<svg width="41" height="39" viewBox="0 0 41 39" fill="none" xmlns="http://www.w3.org/2000/svg">
<path fill-rule="evenodd" clip-rule="evenodd" d="M15.9514 1.54708L16.8638 2.45955V8.34247H15.4503V3.05077L14.4024 2.0028C11.5054 3.25807 10.5667 6.30251 10.5146 8.09723L9.10171 8.05569C9.16465 5.89028 10.3367 1.91607 14.3405 0.501992C15.3356 0.150526 16.4862 -0.0329068 17.8084 0.00487274C18.7663 0.0322417 19.6246 0.16787 20.3916 0.393241C24.9458 1.73153 25.9014 6.05303 25.7717 8.33393L26.9456 8.84809C26.7192 9.37092 26.1774 9.95896 25.3088 10.4975C25.3073 10.5866 25.3039 10.6819 25.2992 10.7798C25.2833 11.1121 25.2509 11.5146 25.2157 11.8979C25.1803 12.283 25.1413 12.6564 25.1112 12.933C25.0961 13.0714 25.0832 13.186 25.0741 13.2661L25.0634 13.3592L25.0596 13.3921L25.0595 13.3927L24.3577 13.3091C25.0595 13.3927 25.0595 13.3927 25.0595 13.3927L25.0245 13.69L24.7892 13.872L24.7888 13.8723L24.7866 13.874L24.7734 13.8845C24.7612 13.8943 24.7429 13.9091 24.7205 13.9279C24.6749 13.9661 24.6168 14.0169 24.5609 14.0709C24.5365 14.0945 24.5152 14.1161 24.4973 14.1353C24.5194 15.0596 24.4009 16.2434 24.034 17.4215C23.6712 18.5862 23.0526 19.7851 22.0469 20.7089V23.3193L24.2182 24.7605L24.5351 38.9681L23.122 39L22.8217 25.5369L21.4213 24.6073L17.4642 28.816L13.3215 24.1401C12.9798 24.2882 12.5387 24.4826 12.0139 24.7188V38.9841H10.6004V25.3636C9.86205 25.7047 9.03218 26.0945 8.13401 26.5258V38.9841H6.72054V27.2118C6.60502 27.2684 6.48869 27.3256 6.37158 27.3834C4.64797 28.2332 3.56026 29.1521 2.90098 29.9284C2.25546 30.6885 2.04321 31.2828 2.00557 31.5341V38.9841H0.592102V31.4527L0.595985 31.4156C0.659963 30.8043 1.03991 29.9309 1.82622 29.0051C2.6263 28.063 3.87533 27.0309 5.74943 26.1069C6.22 25.8749 6.67814 25.6514 7.12129 25.4374C8.62542 24.7107 9.95717 24.0917 11.0165 23.611C11.8633 23.2267 12.5378 22.93 12.9881 22.737V20.7146C11.829 19.6763 11.2233 18.3163 10.8976 17.1647C10.5953 16.0962 10.518 15.1395 10.485 14.7312C10.4799 14.6669 10.4758 14.6161 10.4721 14.5808C10.4625 14.4894 10.4421 14.434 10.4267 14.4029C10.4114 14.372 10.3961 14.3553 10.3857 14.3459C10.375 14.3364 10.365 14.3306 10.3578 14.3274L9.71865 14.2846V10.5827C8.8621 10.0207 8.31404 9.41304 8.03981 8.90177L9.2838 8.2268C9.70913 9.01975 12.0531 11.1558 17.7586 10.9138C20.6173 10.7926 22.5514 10.271 23.7958 9.69832C24.9166 9.18251 25.4242 8.65274 25.597 8.37784L24.3579 8.29575C24.4808 6.41974 23.7288 3.10971 20.4149 1.89602L19.421 3.02469V8.34247H18.0075V2.48563L18.8614 1.51597C18.5193 1.46784 18.1554 1.43698 17.7683 1.42592C17.1024 1.4069 16.4986 1.45165 15.9514 1.54708ZM20.6335 21.6704V23.3762L17.4951 26.714L14.3012 23.109H14.4016V21.6537C15.3256 22.0925 16.4482 22.3404 17.803 22.312C18.895 22.2891 19.834 22.0573 20.6335 21.6704ZM11.1321 11.329V13.1377C11.4889 13.3661 11.8093 13.7782 11.8778 14.4319C11.8833 14.4846 11.8888 14.5511 11.8954 14.63C11.9312 15.0604 11.9976 15.8585 12.2571 16.7756C12.5639 17.8601 13.1192 19.0206 14.1329 19.8256C14.9404 20.467 16.0919 20.9259 17.7736 20.8907C19.1459 20.8619 20.1502 20.4401 20.8946 19.8318C21.7767 19.111 22.3464 18.0839 22.6851 16.9965C23.0237 15.9095 23.1162 14.8087 23.0786 14.0078L23.0778 13.991V13.9742C23.0778 13.8011 23.131 13.6616 23.1702 13.5782C23.2122 13.4887 23.263 13.4121 23.3067 13.3529C23.394 13.2348 23.4971 13.1275 23.5812 13.0461C23.6176 13.011 23.6535 12.9777 23.6875 12.947C23.6932 12.8963 23.6994 12.8397 23.7061 12.7782C23.7357 12.5064 23.7738 12.1415 23.8082 11.7671C23.8253 11.581 23.8414 11.3943 23.8549 11.2168C22.4346 11.7785 20.4683 12.2218 17.8181 12.3342C14.9162 12.4573 12.7176 11.9993 11.1321 11.329Z" fill="url(#paint0_linear_998_16)"/>
<path d="M37.912 23.7298H30.7053V22.3082H37.912V23.7298Z" fill="url(#paint1_linear_998_16)"/>
<path d="M28.1658 23.7298H29.3709V22.3082H28.1658V23.7298Z" fill="url(#paint2_linear_998_16)"/>
<path d="M37.912 26.1522H30.7053V24.7306H37.912V26.1522Z" fill="url(#paint3_linear_998_16)"/>
<path d="M28.1658 26.1522H29.3709V24.7306H28.1658V26.1522Z" fill="url(#paint4_linear_998_16)"/>
<path d="M37.912 28.575H30.7053V27.1534H37.912V28.575Z" fill="url(#paint5_linear_998_16)"/>
<path d="M28.1658 28.575H29.3709V27.1534H28.1658V28.575Z" fill="url(#paint6_linear_998_16)"/>
<path d="M37.912 30.9974H30.7053V29.5758H37.912V30.9974Z" fill="url(#paint7_linear_998_16)"/>
<path d="M34.04 36.6452H37.9119V35.2236H34.04V36.6452Z" fill="url(#paint8_linear_998_16)"/>
<path d="M29.3709 30.9974H28.1658V29.5758H29.3709V30.9974Z" fill="url(#paint9_linear_998_16)"/>
<path fill-rule="evenodd" clip-rule="evenodd" d="M29.514 18.4061V17.2083H37.0185V18.4061H40.5921V38.833H25.8809V18.4061H29.514ZM30.9275 18.6299H35.6051V19.3209H30.9275V18.6299ZM29.514 19.8278H27.2944V37.4114H39.1786V19.8278H37.0185V20.7425H29.514V19.8278Z" fill="url(#paint10_linear_998_16)"/>
<path d="M16.752 29.7764V30.9434H18.1654V29.7764H16.752Z" fill="url(#paint11_linear_998_16)"/>
<path d="M16.752 33.4206V32.2536H18.1654V33.4206H16.752Z" fill="url(#paint12_linear_998_16)"/>
<path d="M16.752 34.7675V35.9346H18.1654V34.7675H16.752Z" fill="url(#paint13_linear_998_16)"/>
<defs>
<linearGradient id="paint0_linear_998_16" x1="0.592102" y1="23.0289" x2="40.5988" y2="22.9517" gradientUnits="userSpaceOnUse">
<stop stop-color="#28B750"/>
<stop offset="1" stop-color="#A6D554"/>
</linearGradient>
<linearGradient id="paint1_linear_998_16" x1="0.592102" y1="23.0289" x2="40.5988" y2="22.9517" gradientUnits="userSpaceOnUse">
<stop stop-color="#28B750"/>
<stop offset="1" stop-color="#A6D554"/>
</linearGradient>
<linearGradient id="paint2_linear_998_16" x1="0.592102" y1="23.0289" x2="40.5988" y2="22.9517" gradientUnits="userSpaceOnUse">
<stop stop-color="#28B750"/>
<stop offset="1" stop-color="#A6D554"/>
</linearGradient>
<linearGradient id="paint3_linear_998_16" x1="0.592102" y1="23.0289" x2="40.5988" y2="22.9517" gradientUnits="userSpaceOnUse">
<stop stop-color="#28B750"/>
<stop offset="1" stop-color="#A6D554"/>
</linearGradient>
<linearGradient id="paint4_linear_998_16" x1="0.592102" y1="23.0289" x2="40.5988" y2="22.9517" gradientUnits="userSpaceOnUse">
<stop stop-color="#28B750"/>
<stop offset="1" stop-color="#A6D554"/>
</linearGradient>
<linearGradient id="paint5_linear_998_16" x1="0.592102" y1="23.0289" x2="40.5988" y2="22.9517" gradientUnits="userSpaceOnUse">
<stop stop-color="#28B750"/>
<stop offset="1" stop-color="#A6D554"/>
</linearGradient>
<linearGradient id="paint6_linear_998_16" x1="0.592102" y1="23.0289" x2="40.5988" y2="22.9517" gradientUnits="userSpaceOnUse">
<stop stop-color="#28B750"/>
<stop offset="1" stop-color="#A6D554"/>
</linearGradient>
<linearGradient id="paint7_linear_998_16" x1="0.592102" y1="23.0289" x2="40.5988" y2="22.9517" gradientUnits="userSpaceOnUse">
<stop stop-color="#28B750"/>
<stop offset="1" stop-color="#A6D554"/>
</linearGradient>
<linearGradient id="paint8_linear_998_16" x1="0.592102" y1="23.0289" x2="40.5988" y2="22.9517" gradientUnits="userSpaceOnUse">
<stop stop-color="#28B750"/>
<stop offset="1" stop-color="#A6D554"/>
</linearGradient>
<linearGradient id="paint9_linear_998_16" x1="0.592102" y1="23.0289" x2="40.5988" y2="22.9517" gradientUnits="userSpaceOnUse">
<stop stop-color="#28B750"/>
<stop offset="1" stop-color="#A6D554"/>
</linearGradient>
<linearGradient id="paint10_linear_998_16" x1="0.592102" y1="23.0289" x2="40.5988" y2="22.9517" gradientUnits="userSpaceOnUse">
<stop stop-color="#28B750"/>
<stop offset="1" stop-color="#A6D554"/>
</linearGradient>
<linearGradient id="paint11_linear_998_16" x1="0.592102" y1="23.0289" x2="40.5988" y2="22.9517" gradientUnits="userSpaceOnUse">
<stop stop-color="#28B750"/>
<stop offset="1" stop-color="#A6D554"/>
</linearGradient>
<linearGradient id="paint12_linear_998_16" x1="0.592102" y1="23.0289" x2="40.5988" y2="22.9517" gradientUnits="userSpaceOnUse">
<stop stop-color="#28B750"/>
<stop offset="1" stop-color="#A6D554"/>
</linearGradient>
<linearGradient id="paint13_linear_998_16" x1="0.592102" y1="23.0289" x2="40.5988" y2="22.9517" gradientUnits="userSpaceOnUse">
<stop stop-color="#28B750"/>
<stop offset="1" stop-color="#A6D554"/>
</linearGradient>
</defs>
</svg>
