<svg width="64" height="64" viewBox="0 0 64 64" fill="none" xmlns="http://www.w3.org/2000/svg">
<circle cx="32" cy="32" r="32" fill="white"/>
<path fill-rule="evenodd" clip-rule="evenodd" d="M40.9691 22.8493C39.3479 21.4842 37.1082 20.8016 34.2499 20.8016H25.867V34.0824H20.5991V36.0543H25.867V37.4746H20.5991V39.4465H25.867V43.1986H28.2347V39.4465H32.7462V37.4746H28.2347V36.1275H34.2499C37.1082 36.1275 39.3479 35.4556 40.9691 34.1118C42.5901 32.7466 43.4007 30.8695 43.4007 28.4805C43.4007 26.0915 42.5901 24.2145 40.9691 22.8493ZM39.2733 32.608C38.1 33.5679 36.4043 34.0478 34.186 34.0478H28.2347V22.8493H34.186C36.4043 22.8493 38.1 23.3399 39.2733 24.3211C40.4464 25.281 41.033 26.6675 41.033 28.4805C41.033 30.251 40.4464 31.6268 39.2733 32.608Z" fill="url(#paint0_linear_951_27)"/>
<path fill-rule="evenodd" clip-rule="evenodd" d="M32.0001 56C45.2548 56 56 45.2548 56 32C56 18.7451 45.2548 8 32.0001 8C18.7452 8 8 18.7451 8 32C8 45.2548 18.7452 56 32.0001 56ZM32.0001 53.4311C43.8361 53.4311 53.4311 43.836 53.4311 32C53.4311 20.1639 43.8361 10.5689 32.0001 10.5689C20.1639 10.5689 10.5689 20.1639 10.5689 32C10.5689 43.836 20.1639 53.4311 32.0001 53.4311Z" fill="url(#paint1_linear_951_27)"/>
<defs>
<linearGradient id="paint0_linear_951_27" x1="8" y1="36.3433" x2="56.008" y2="36.2529" gradientUnits="userSpaceOnUse">
<stop stop-color="#28B750"/>
<stop offset="1" stop-color="#A6D554"/>
</linearGradient>
<linearGradient id="paint1_linear_951_27" x1="8" y1="36.3433" x2="56.008" y2="36.2529" gradientUnits="userSpaceOnUse">
<stop stop-color="#28B750"/>
<stop offset="1" stop-color="#A6D554"/>
</linearGradient>
</defs>
</svg>
