<svg width="20" height="20" viewBox="0 0 20 20" fill="none" xmlns="http://www.w3.org/2000/svg">
<circle cx="10" cy="10" r="10" fill="white"/>
<path fill-rule="evenodd" clip-rule="evenodd" d="M12.9897 6.94977C12.4493 6.49472 11.7027 6.2672 10.75 6.2672H7.95568V10.6941H6.19969V11.3514H7.95568V11.8249H6.19969V12.4822H7.95568V13.7329H8.7449V12.4822H10.2487V11.8249H8.7449V11.3758H10.75C11.7027 11.3758 12.4493 11.1519 12.9897 10.7039C13.53 10.2489 13.8002 9.62318 13.8002 8.82685C13.8002 8.03051 13.53 7.40482 12.9897 6.94977ZM12.4244 10.2027C12.0333 10.5226 11.4681 10.6826 10.7287 10.6826H8.7449V6.94977H10.7287C11.4681 6.94977 12.0333 7.11331 12.4244 7.44038C12.8155 7.76032 13.011 8.2225 13.011 8.82685C13.011 9.417 12.8155 9.8756 12.4244 10.2027Z" fill="url(#paint0_linear_811_620)"/>
<path fill-rule="evenodd" clip-rule="evenodd" d="M10 18C14.4183 18 18 14.4183 18 9.99999C18 5.58171 14.4183 2 10 2C5.58172 2 2 5.58171 2 9.99999C2 14.4183 5.58172 18 10 18ZM10 17.1437C13.9454 17.1437 17.1437 13.9453 17.1437 9.99999C17.1437 6.05464 13.9454 2.8563 10 2.8563C6.05464 2.8563 2.8563 6.05464 2.8563 9.99999C2.8563 13.9453 6.05464 17.1437 10 17.1437Z" fill="url(#paint1_linear_811_620)"/>
<defs>
<linearGradient id="paint0_linear_811_620" x1="2" y1="11.4478" x2="18.0027" y2="11.4176" gradientUnits="userSpaceOnUse">
<stop stop-color="#28B750"/>
<stop offset="1" stop-color="#A6D554"/>
</linearGradient>
<linearGradient id="paint1_linear_811_620" x1="2" y1="11.4478" x2="18.0027" y2="11.4176" gradientUnits="userSpaceOnUse">
<stop stop-color="#28B750"/>
<stop offset="1" stop-color="#A6D554"/>
</linearGradient>
</defs>
</svg>
