<svg width="14" height="18" viewBox="0 0 14 18" fill="none" xmlns="http://www.w3.org/2000/svg">
<g clip-path="url(#clip0_801_357)">
<path d="M13.6762 1.44396C13.5746 1.36173 13.4558 1.30332 13.3286 1.27304C13.2014 1.24275 13.0691 1.24136 12.9412 1.26896C12.0063 1.46491 11.041 1.4674 10.1051 1.27629C9.16906 1.08518 8.28209 0.704508 7.49875 0.157709C7.35228 0.0560974 7.17827 0.00164795 7 0.00164795C6.82173 0.00164795 6.64772 0.0560974 6.50125 0.157709C5.71791 0.704508 4.83094 1.08518 3.89495 1.27629C2.95895 1.4674 1.99375 1.46491 1.05875 1.26896C0.930951 1.24136 0.798587 1.24275 0.671393 1.27304C0.544199 1.30332 0.425408 1.36173 0.323755 1.44396C0.222237 1.52631 0.140461 1.63036 0.0844358 1.74847C0.0284108 1.86658 -0.000439416 1.99574 5.0588e-06 2.12646V8.6452C-0.000772847 9.89973 0.298181 11.1363 0.871972 12.2519C1.44576 13.3675 2.27779 14.3299 3.29875 15.0589L6.4925 17.3339C6.64069 17.4395 6.81808 17.4962 7 17.4962C7.18192 17.4962 7.35931 17.4395 7.5075 17.3339L10.7012 15.0589C11.7222 14.3299 12.5542 13.3675 13.128 12.2519C13.7018 11.1363 14.0008 9.89973 14 8.6452V2.12646C14.0004 1.99574 13.9716 1.86658 13.9156 1.74847C13.8595 1.63036 13.7778 1.52631 13.6762 1.44396ZM12.25 8.6452C12.2507 9.62061 12.0184 10.5821 11.5724 11.4496C11.1265 12.3171 10.4798 13.0656 9.68625 13.6327L7 15.5489L4.31375 13.6327C3.52016 13.0656 2.87349 12.3171 2.42756 11.4496C1.98163 10.5821 1.74933 9.62061 1.75 8.6452V3.13271C3.58438 3.28971 5.42154 2.8641 7 1.91646C8.57846 2.8641 10.4156 3.28971 12.25 3.13271V8.6452ZM8.3475 6.64145L5.99375 9.00395L5.215 8.21645C5.05024 8.05169 4.82677 7.95912 4.59375 7.95912C4.36074 7.95912 4.13727 8.05169 3.9725 8.21645C3.80774 8.38122 3.71517 8.60469 3.71517 8.8377C3.71517 9.07072 3.80774 9.29419 3.9725 9.45895L5.3725 10.859C5.45384 10.941 5.55062 11.0061 5.65725 11.0505C5.76387 11.0949 5.87824 11.1178 5.99375 11.1178C6.10926 11.1178 6.22363 11.0949 6.33026 11.0505C6.43688 11.0061 6.53366 10.941 6.615 10.859L9.625 7.8752C9.78976 7.71044 9.88233 7.48697 9.88233 7.25395C9.88233 7.02094 9.78976 6.79747 9.625 6.6327C9.46023 6.46794 9.23676 6.37537 9.00375 6.37537C8.77073 6.37537 8.54727 6.46794 8.3825 6.6327L8.3475 6.64145Z" fill="url(#paint0_linear_801_357)"/>
</g>
<defs>
<linearGradient id="paint0_linear_801_357" x1="1.93369e-08" y1="10.3319" x2="14.0024" y2="10.3108" gradientUnits="userSpaceOnUse">
<stop stop-color="#28B750"/>
<stop offset="1" stop-color="#A6D554"/>
</linearGradient>
<clipPath id="clip0_801_357">
<rect width="14" height="17.5" fill="white"/>
</clipPath>
</defs>
</svg>
