<svg width="41" height="38" viewBox="0 0 41 38" fill="none" xmlns="http://www.w3.org/2000/svg">
<path d="M30.4452 37.6975H1.69666C1.08655 37.6975 0.592041 37.203 0.592041 36.5929V12.156C0.592041 11.5459 1.08655 11.0514 1.69666 11.0514H33.6593C34.2698 11.0514 34.7644 11.5459 34.7644 12.156V16.6382C34.7644 17.2483 34.2698 17.7428 33.6593 17.7428C33.0496 17.7428 32.5551 17.2483 32.5551 16.6382V13.2602H2.80083V35.4883H30.4452C31.6083 35.4883 32.5551 34.541 32.5551 33.3762V21.8927C32.5551 21.2826 33.0496 20.7881 33.6593 20.7881C34.2698 20.7881 34.7644 21.2826 34.7644 21.8927V33.3766C34.7639 35.7591 32.8263 37.6975 30.4452 37.6975Z" fill="url(#paint0_linear_998_22)"/>
<path fill-rule="evenodd" clip-rule="evenodd" d="M28.3314 3.91291H33.6597C34.2698 3.91291 34.7644 4.40741 34.7644 5.01752V12.1542C34.7639 12.7643 34.2694 13.2588 33.6593 13.2588H1.69666C1.08699 13.2588 0.592484 12.7643 0.592484 12.1542V5.01752C0.592484 4.40741 1.08699 3.91291 1.69666 3.91291H7.02456V2.04126C7.02456 1.43115 7.51906 0.936646 8.12917 0.936646C8.73928 0.936646 9.23379 1.43115 9.23379 2.04126V3.91291H16.5745V2.04126C16.5745 1.43115 17.069 0.936646 17.6786 0.936646C18.2892 0.936646 18.7837 1.43115 18.7837 2.04126V3.91291H26.1221V2.04126C26.1221 1.43115 26.6167 0.936646 27.2268 0.936646C27.8369 0.936646 28.3314 1.43115 28.3314 2.04126V3.91291ZM7.02456 8.09137C7.02456 8.70148 7.51906 9.19599 8.12917 9.19599C8.73928 9.19599 9.23379 8.70148 9.23379 8.09181V6.12214H16.5745V8.09137C16.5745 8.70148 17.069 9.19599 17.6786 9.19599C18.2892 9.19599 18.7837 8.70148 18.7837 8.09181V6.12214H26.1221V8.09137C26.1221 8.70148 26.6167 9.19599 27.2268 9.19599C27.8364 9.19599 28.3309 8.70148 28.3314 8.09181V6.12214H32.5547V11.05H2.80128V6.12214H7.02456V8.09137Z" fill="url(#paint1_linear_998_22)"/>
<path d="M22.2158 27.7287C22.1687 27.7287 22.1204 27.7256 22.0729 27.7195C21.7586 27.6782 21.4778 27.5045 21.3002 27.2417L18.1098 22.5094C17.7692 22.0039 17.9024 21.3173 18.4083 20.9766C18.9138 20.6351 19.6008 20.7692 19.9415 21.2751L22.432 24.9696L28.0593 20.0589V18.1767H16.3731V30.3424H28.0593V26.098C28.0593 25.4879 28.5538 24.9934 29.1639 24.9934C29.774 24.9934 30.2685 25.4879 30.2685 26.098V31.447C30.2685 32.0571 29.774 32.5516 29.1639 32.5516H15.269C14.6589 32.5516 14.1644 32.0571 14.1644 31.447V17.0725C14.1644 16.4624 14.6589 15.9679 15.269 15.9679H29.1639C29.774 15.9679 30.2685 16.4624 30.2685 17.0725V18.131L38.3934 11.0408C38.8531 10.6395 39.5503 10.6865 39.9516 11.1463C40.3525 11.6061 40.3054 12.3037 39.8457 12.7045L29.9244 21.3629C29.9019 21.3843 29.8784 21.4047 29.8542 21.4242L22.9424 27.4562C22.7402 27.6333 22.4817 27.7287 22.2158 27.7287Z" fill="url(#paint2_linear_998_22)"/>
<path fill-rule="evenodd" clip-rule="evenodd" d="M11.0158 22.9969H6.19379C5.58368 22.9969 5.08918 22.5024 5.08918 21.8922V17.0711C5.08918 16.461 5.58368 15.9665 6.19379 15.9665H11.0158C11.6254 15.9665 12.1199 16.461 12.1199 17.0711V21.8922C12.1199 22.5024 11.6254 22.9969 11.0158 22.9969ZM7.29841 20.7876H9.91072V18.1758H7.29841V20.7876Z" fill="url(#paint3_linear_998_22)"/>
<path fill-rule="evenodd" clip-rule="evenodd" d="M11.0158 32.5494H6.19379C5.58368 32.5494 5.08918 32.0549 5.08918 31.4448V26.6241C5.08918 26.014 5.58368 25.5195 6.19379 25.5195H11.0158C11.6254 25.5195 12.1199 26.014 12.1199 26.6241V31.4452C12.1199 32.0549 11.6254 32.5494 11.0158 32.5494ZM7.29841 30.3406H9.91072V27.7287H7.29841V30.3406Z" fill="url(#paint4_linear_998_22)"/>
<defs>
<linearGradient id="paint0_linear_998_22" x1="0.592041" y1="22.6434" x2="40.2305" y2="22.563" gradientUnits="userSpaceOnUse">
<stop stop-color="#28B750"/>
<stop offset="1" stop-color="#A6D554"/>
</linearGradient>
<linearGradient id="paint1_linear_998_22" x1="0.592041" y1="22.6434" x2="40.2305" y2="22.563" gradientUnits="userSpaceOnUse">
<stop stop-color="#28B750"/>
<stop offset="1" stop-color="#A6D554"/>
</linearGradient>
<linearGradient id="paint2_linear_998_22" x1="0.592041" y1="22.6434" x2="40.2305" y2="22.563" gradientUnits="userSpaceOnUse">
<stop stop-color="#28B750"/>
<stop offset="1" stop-color="#A6D554"/>
</linearGradient>
<linearGradient id="paint3_linear_998_22" x1="0.592041" y1="22.6434" x2="40.2305" y2="22.563" gradientUnits="userSpaceOnUse">
<stop stop-color="#28B750"/>
<stop offset="1" stop-color="#A6D554"/>
</linearGradient>
<linearGradient id="paint4_linear_998_22" x1="0.592041" y1="22.6434" x2="40.2305" y2="22.563" gradientUnits="userSpaceOnUse">
<stop stop-color="#28B750"/>
<stop offset="1" stop-color="#A6D554"/>
</linearGradient>
</defs>
</svg>
