<svg width="64" height="64" viewBox="0 0 64 64" fill="none" xmlns="http://www.w3.org/2000/svg">
<circle cx="32" cy="32" r="32" fill="white"/>
<path d="M45.5431 53.5023H12.4822C11.7806 53.5023 11.2119 52.9336 11.2119 52.232V24.1295C11.2119 23.4279 11.7806 22.8592 12.4822 22.8592H49.2393C49.9414 22.8592 50.5101 23.4279 50.5101 24.1295V29.284C50.5101 29.9857 49.9414 30.5543 49.2393 30.5543C48.5381 30.5543 47.9695 29.9857 47.9695 29.284V25.3993H13.752V50.9617H45.5431C46.8806 50.9617 47.9695 49.8723 47.9695 48.5328V35.3267C47.9695 34.6251 48.5381 34.0564 49.2393 34.0564C49.9414 34.0564 50.5101 34.6251 50.5101 35.3267V48.5333C50.5096 51.273 48.2813 53.5023 45.5431 53.5023Z" fill="url(#paint0_linear_951_28)"/>
<path fill-rule="evenodd" clip-rule="evenodd" d="M18.6093 19.4552C18.6093 20.1568 19.178 20.7255 19.8796 20.7255C20.5812 20.7255 21.1499 20.1568 21.1499 19.4557V17.1905H29.5917V19.4552C29.5917 20.1568 30.1603 20.7255 30.8615 20.7255C31.5636 20.7255 32.1323 20.1568 32.1323 19.4557V17.1905H40.5715V19.4552C40.5715 20.1568 41.1402 20.7255 41.8418 20.7255C42.5429 20.7255 43.1116 20.1568 43.1121 19.4557V17.1905H47.9689V22.8576H13.7525V17.1905H18.6093V19.4552ZM43.1121 14.6499H49.2397C49.9414 14.6499 50.5101 15.2186 50.5101 15.9202V24.1275C50.5095 24.8291 49.9409 25.3978 49.2392 25.3978H12.4822C11.7811 25.3978 11.2124 24.8291 11.2124 24.1275V15.9202C11.2124 15.2186 11.7811 14.6499 12.4822 14.6499H18.6093V12.4975C18.6093 11.7959 19.178 11.2272 19.8796 11.2272C20.5812 11.2272 21.1499 11.7959 21.1499 12.4975V14.6499H29.5917V12.4975C29.5917 11.7959 30.1603 11.2272 30.8615 11.2272C31.5636 11.2272 32.1323 11.7959 32.1323 12.4975V14.6499H40.5715V12.4975C40.5715 11.7959 41.1402 11.2272 41.8418 11.2272C42.5434 11.2272 43.1121 11.7959 43.1121 12.4975V14.6499Z" fill="url(#paint1_linear_951_28)"/>
<path fill-rule="evenodd" clip-rule="evenodd" d="M36.0791 42.0381C36.025 42.0381 35.9694 42.0345 35.9148 42.0275C35.5534 41.9799 35.2304 41.7803 35.0262 41.478L31.3573 36.0358C30.9655 35.4545 31.1187 34.6649 31.7005 34.2732C32.2819 33.8804 33.0719 34.0346 33.4637 34.6164L36.3278 38.8651L42.7992 33.2178V31.0532H29.3601V45.0438H42.7992V40.1627C42.7992 39.4611 43.3679 38.8924 44.0695 38.8924C44.7711 38.8924 45.3398 39.4611 45.3398 40.1627V46.3141C45.3398 47.0157 44.7711 47.5844 44.0695 47.5844H28.0903C27.3887 47.5844 26.82 47.0157 26.82 46.3141V29.7834C26.82 29.0818 27.3887 28.5131 28.0903 28.5131H44.0695C44.7711 28.5131 45.3398 29.0818 45.3398 29.7834V31.0007L54.6833 22.847C55.2121 22.3855 56.0138 22.4396 56.4753 22.9683C56.9363 23.4971 56.8822 24.2993 56.3535 24.7603L44.944 34.7174C44.9181 34.742 44.8912 34.7655 44.8633 34.7879L36.9147 41.7247C36.6822 41.9284 36.385 42.0381 36.0791 42.0381ZM23.1991 36.5965H17.6539C16.9522 36.5965 16.3835 36.0278 16.3835 35.3261V29.7819C16.3835 29.0803 16.9522 28.5116 17.6539 28.5116H23.1991C23.9002 28.5116 24.4689 29.0803 24.4689 29.7819V35.3261C24.4689 36.0278 23.9002 36.5965 23.1991 36.5965ZM18.9242 34.0558H21.9283V31.0522H18.9242V34.0558ZM23.1991 47.5819H17.6539C16.9522 47.5819 16.3835 47.0132 16.3835 46.3116V40.7678C16.3835 40.0662 16.9522 39.4975 17.6539 39.4975H23.1991C23.9002 39.4975 24.4689 40.0662 24.4689 40.7678V46.3121C24.4689 47.0132 23.9002 47.5819 23.1991 47.5819ZM18.9242 45.0418H21.9283V42.0381H18.9242V45.0418Z" fill="url(#paint2_linear_951_28)"/>
<defs>
<linearGradient id="paint0_linear_951_28" x1="11.2119" y1="40.9535" x2="50.5165" y2="40.8586" gradientUnits="userSpaceOnUse">
<stop stop-color="#28B750"/>
<stop offset="1" stop-color="#A6D554"/>
</linearGradient>
<linearGradient id="paint1_linear_951_28" x1="11.2124" y1="19.5947" x2="50.5157" y2="19.3895" gradientUnits="userSpaceOnUse">
<stop stop-color="#28B750"/>
<stop offset="1" stop-color="#A6D554"/>
</linearGradient>
<linearGradient id="paint2_linear_951_28" x1="16.3835" y1="37.3256" x2="56.795" y2="37.203" gradientUnits="userSpaceOnUse">
<stop stop-color="#28B750"/>
<stop offset="1" stop-color="#A6D554"/>
</linearGradient>
</defs>
</svg>
