<svg width="41" height="40" viewBox="0 0 41 40" fill="none" xmlns="http://www.w3.org/2000/svg">
<path fill-rule="evenodd" clip-rule="evenodd" d="M27.882 12.3744C26.5311 11.2368 24.6646 10.668 22.2828 10.668H15.297V21.7353H10.9071V23.3786H15.297V24.5621H10.9071V26.2054H15.297V29.3321H17.2701V26.2054H21.0297V24.5621H17.2701V23.4396H22.2828C24.6646 23.4396 26.5311 22.8797 27.882 21.7599C29.2329 20.6222 29.9084 19.058 29.9084 17.0671C29.9084 15.0763 29.2329 13.512 27.882 12.3744ZM26.4689 20.5067C25.4912 21.3065 24.0781 21.7065 22.2295 21.7065H17.2701V12.3744H22.2295C24.0781 12.3744 25.4912 12.7833 26.4689 13.6009C27.4465 14.4008 27.9354 15.5562 27.9354 17.0671C27.9354 18.5425 27.4465 19.689 26.4689 20.5067Z" fill="url(#paint0_linear_998_25)"/>
<path fill-rule="evenodd" clip-rule="evenodd" d="M20.4079 40C31.4535 40 40.4078 31.0457 40.4078 20C40.4078 8.95429 31.4535 0 20.4079 0C9.36213 0 0.407837 8.95429 0.407837 20C0.407837 31.0457 9.36213 40 20.4079 40ZM20.4079 36.8592C30.2712 36.8592 37.2671 29.8634 37.2671 20C37.2671 10.1366 30.2712 3.14075 20.4079 3.14075C10.5444 3.14075 3.54859 10.1366 3.54859 20C3.54859 29.8634 10.5444 36.8592 20.4079 36.8592Z" fill="url(#paint1_linear_998_25)"/>
<defs>
<linearGradient id="paint0_linear_998_25" x1="0.407837" y1="23.6194" x2="40.4145" y2="23.5441" gradientUnits="userSpaceOnUse">
<stop stop-color="#28B750"/>
<stop offset="1" stop-color="#A6D554"/>
</linearGradient>
<linearGradient id="paint1_linear_998_25" x1="0.407837" y1="23.6194" x2="40.4145" y2="23.5441" gradientUnits="userSpaceOnUse">
<stop stop-color="#28B750"/>
<stop offset="1" stop-color="#A6D554"/>
</linearGradient>
</defs>
</svg>
