<svg width="35" height="40" viewBox="0 0 35 40" fill="none" xmlns="http://www.w3.org/2000/svg">
<path d="M8.68888 24.7054C9.1837 24.7054 9.58484 24.2975 9.58484 23.7947C9.58484 23.2916 9.1837 22.8839 8.68888 22.8839C8.19406 22.8839 7.79293 23.2916 7.79293 23.7947C7.79293 24.2975 8.19406 24.7054 8.68888 24.7054Z" fill="url(#paint0_linear_998_19)"/>
<path fill-rule="evenodd" clip-rule="evenodd" d="M18.9872 0.322166C19.9184 0.756065 20.895 1.61552 21.4228 2.71646C21.9726 3.86332 21.8916 5.45879 21.6466 6.86365C21.466 7.89861 21.1808 8.9119 20.9066 9.71848H29.1472C29.1992 9.71848 29.2586 9.71749 29.3242 9.71669C29.786 9.70993 30.5559 9.6986 31.2227 9.95421C31.6258 10.1089 32.0233 10.369 32.3147 10.8013C32.6054 11.2323 32.7548 11.7812 32.7548 12.4497C32.7548 13.1974 32.475 13.7776 32.01 14.1881C31.9821 14.2127 31.9537 14.2366 31.9249 14.2598C32.1729 14.3727 32.4078 14.5146 32.6162 14.6937C33.1217 15.1284 33.4268 15.7458 33.4268 16.5478C33.4268 17.3883 33.1349 18.0317 32.6221 18.4746C32.3018 18.7513 31.9214 18.9266 31.5325 19.0381C31.8573 19.3807 32.0828 19.8313 32.0828 20.4183C32.0828 21.1704 31.7955 21.7554 31.3261 22.1736C30.9662 22.4942 30.5214 22.6973 30.0722 22.8293C30.4558 23.1757 30.7389 23.6498 30.7389 24.2888C30.7389 25.2826 30.2841 25.9357 29.7414 26.3366C29.2285 26.7157 28.65 26.8616 28.3743 26.9278L28.3118 26.9429L28.2476 26.9441C26.2671 26.9828 23.2346 27.0293 20.5736 27.0428C19.2435 27.0496 18.0033 27.0482 17.0326 27.0333C16.5476 27.026 16.1264 27.015 15.7933 27.0001C15.4744 26.9856 15.1983 26.9661 15.028 26.9339C14.0562 26.7501 13.5158 26.0967 13.2604 25.5525H12.2918V27.1762H4.65497L2.34896 9.71848H12.2918V11.2382C12.3135 11.2323 12.3351 11.2259 12.3565 11.2193C12.38 11.212 12.4033 11.2046 12.4264 11.1967L12.4477 11.1891C12.7177 11.0927 12.7917 11.0025 12.8047 10.9866C12.8069 10.984 12.8074 10.9834 12.8068 10.9852C12.9034 10.6926 13.13 10.3899 13.3297 10.1331L13.3991 10.0445L13.4642 9.96216L13.5902 9.80395C13.7475 9.60697 13.9154 9.39649 14.1011 9.14902C14.6654 8.39651 15.2937 7.42595 15.7147 6.16718C16.2426 4.58881 16.2822 3.53934 16.2434 2.79955L16.2378 2.70414L16.2309 2.60138C16.2246 2.51671 16.2176 2.43502 16.2105 2.35551L16.198 2.22035L16.1836 2.06333C16.1755 1.9713 16.1682 1.88027 16.1635 1.79341C16.1475 1.49228 16.1541 1.13849 16.3216 0.796017C16.5796 0.269097 17.0661 0.0403205 17.553 0.0051395C18.0194 -0.0284514 18.5224 0.105515 18.9872 0.322166ZM12.2918 12.4904V24.3313H14.1744L14.2716 24.8213C14.3174 25.0528 14.5858 25.608 15.248 25.7334C15.2852 25.7404 15.3517 25.7483 15.4499 25.7563C15.549 25.7644 15.6805 25.7726 15.8466 25.7801C16.1629 25.7944 16.571 25.805 17.0507 25.8123C18.0095 25.8268 19.2405 25.8284 20.5676 25.8216C23.192 25.8083 26.1811 25.7628 28.159 25.7245C28.4145 25.6605 28.7539 25.5565 29.035 25.3488C29.3093 25.1463 29.5375 24.8414 29.5375 24.2888C29.5375 23.929 29.2546 23.5967 28.5688 23.3431C28.2043 23.2081 27.8081 23.1308 27.4713 23.0942C27.3665 23.0928 27.2669 23.0906 27.1736 23.0883L27.0003 23.0837C26.9148 23.0815 26.8366 23.0793 26.7667 23.0779L26.7244 21.8593C26.9342 21.84 27.2159 21.8424 27.5319 21.8732C28.1386 21.8808 28.8519 21.8635 29.489 21.7204C29.9478 21.6174 30.3025 21.4614 30.5344 21.2549C30.7435 21.0686 30.8814 20.8184 30.8814 20.4183C30.8814 20.0154 30.5847 19.6757 29.894 19.4213C29.6033 19.3142 29.2878 19.242 28.9898 19.1963C28.8443 19.1867 28.7125 19.1768 28.5928 19.1679L28.5839 19.1673C28.3425 19.149 28.151 19.1347 27.9953 19.1347L27.9674 17.9141C28.2573 17.9004 28.6662 17.9155 29.1129 17.9803C29.1654 17.9838 29.2175 17.987 29.2688 17.9898C29.7638 18.0172 30.2853 18.0238 30.7587 17.9558C31.2389 17.887 31.6053 17.7503 31.8443 17.544C32.0573 17.3599 32.2254 17.0735 32.2254 16.5478C32.2254 16.0978 32.0705 15.8241 31.8402 15.6261C31.5843 15.4059 31.1933 15.2463 30.6872 15.1457C30.2831 15.0652 29.8579 15.03 29.4412 15.0159C28.9108 15.0465 28.4069 15.033 28.0372 15.0231C27.9467 15.0205 27.8645 15.0183 27.792 15.0171L27.7128 15.0165L27.6647 15.0157L27.6743 13.7947C27.7174 13.7947 27.7621 13.7949 27.8082 13.7957C27.9289 13.7957 28.0678 13.7937 28.2206 13.7913H28.2317C28.3386 13.7897 28.4523 13.7881 28.5712 13.787C28.6659 13.7862 28.764 13.7856 28.8647 13.7858C29.0455 13.786 29.2349 13.7883 29.4286 13.7947C29.6964 13.7776 29.9664 13.7464 30.227 13.6929C30.6665 13.6023 31.0034 13.4592 31.2222 13.266C31.4172 13.0941 31.5534 12.8538 31.5534 12.4497C31.5534 11.9665 31.4468 11.6743 31.3238 11.4918C31.2015 11.3104 31.0273 11.1846 30.7986 11.0969C30.3633 10.9299 29.8487 10.9343 29.3661 10.9385H29.3639C29.2908 10.9391 29.2184 10.9397 29.1472 10.9397H19.1454L19.4842 10.0979C19.803 9.30565 20.2298 7.99064 20.4636 6.65038C20.7037 5.27434 20.7121 4.02194 20.3427 3.25133C19.9513 2.43482 19.1968 1.7632 18.4864 1.43206C18.1305 1.26629 17.835 1.20905 17.638 1.22336C17.4617 1.23608 17.4199 1.29392 17.3973 1.34003C17.3827 1.37004 17.3685 1.41437 17.3625 1.49844C17.3584 1.5545 17.3579 1.62824 17.3632 1.72722C17.3691 1.83734 17.3803 1.95798 17.3942 2.10765L17.3988 2.15695C17.4111 2.28932 17.4245 2.4374 17.4351 2.59999C17.438 2.64372 17.4407 2.68864 17.4431 2.73455C17.4894 3.61746 17.4331 4.82355 16.8522 6.56034C16.3737 7.99083 15.6633 9.08025 15.0564 9.88942C14.9761 9.99655 14.8955 10.1013 14.817 10.2021C14.7639 10.27 14.7118 10.3362 14.6611 10.4L14.5025 10.5994L14.4937 10.6107C14.4112 10.7141 14.3363 10.8081 14.2722 10.8904C14.1213 11.0844 14.0347 11.21 13.9882 11.2885C13.965 11.3279 13.9519 11.3553 13.9457 11.3738C13.7578 11.943 13.2061 12.2128 12.8457 12.3414C12.6616 12.4069 12.4713 12.4556 12.2918 12.4904ZM3.72248 10.9397L5.70587 25.955H11.0904V10.9397H3.72248Z" fill="url(#paint1_linear_998_19)"/>
<path fill-rule="evenodd" clip-rule="evenodd" d="M6.37016 34.275L5.00615 31.4657L3.64213 34.275L0.592102 34.7254L2.79912 36.9122L2.27812 40L5.00615 38.5421L7.73417 40L7.21317 36.9122L8.28125 35.854L9.34933 36.9122L8.82833 40L11.5563 38.5421L14.2844 40L13.7634 36.9122L14.7436 35.9411L15.7238 36.9122L15.2027 40L17.9308 38.5421L20.6588 40L20.1378 36.9122L21.1045 35.9544L22.0712 36.9122L21.5502 40L24.2782 38.5421L27.0062 40L26.4852 36.9122L27.3249 36.0802L28.1646 36.9122L27.6436 40L30.3716 38.5421L33.0996 40L32.5786 36.9122L34.7856 34.7254L31.7356 34.275L30.3716 31.4657L29.0076 34.275L27.3249 34.5235L25.6422 34.275L24.2782 31.4657L22.9142 34.275L21.1045 34.5424L19.2948 34.275L17.9308 31.4657L16.5668 34.275L14.7436 34.5444L12.9204 34.275L11.5563 31.4657L10.1923 34.275L8.28125 34.5573L6.37016 34.275ZM6.83841 35.5781L5.57234 35.3913L5.00615 34.2251L4.43995 35.3913L3.17391 35.5781L4.09003 36.4859L3.87376 37.7677L5.00615 37.1625L6.13854 37.7677L5.92226 36.4859L6.83841 35.5781ZM13.3886 35.5781L12.1225 35.3913L11.5563 34.2251L10.9902 35.3913L9.72411 35.5781L10.6402 36.4859L10.424 37.7677L11.5563 37.1625L12.6887 37.7677L12.4725 36.4859L13.3886 35.5781ZM18.497 35.3913L19.763 35.5781L18.8469 36.4859L19.0632 37.7677L17.9308 37.1625L16.7984 37.7677L17.0146 36.4859L16.0985 35.5781L17.3646 35.3913L17.9308 34.2251L18.497 35.3913ZM26.1104 35.5781L24.8444 35.3913L24.2782 34.2251L23.712 35.3913L22.4459 35.5781L23.3621 36.4859L23.1458 37.7677L24.2782 37.1625L25.4106 37.7677L25.1943 36.4859L26.1104 35.5781ZM30.9378 35.3913L32.2038 35.5781L31.2877 36.4859L31.504 37.7677L30.3716 37.1625L29.2392 37.7677L29.4555 36.4859L28.5394 35.5781L29.8054 35.3913L30.3716 34.2251L30.9378 35.3913Z" fill="url(#paint2_linear_998_19)"/>
<defs>
<linearGradient id="paint0_linear_998_19" x1="0.592102" y1="23.6194" x2="34.7914" y2="23.5644" gradientUnits="userSpaceOnUse">
<stop stop-color="#28B750"/>
<stop offset="1" stop-color="#A6D554"/>
</linearGradient>
<linearGradient id="paint1_linear_998_19" x1="0.592102" y1="23.6194" x2="34.7914" y2="23.5644" gradientUnits="userSpaceOnUse">
<stop stop-color="#28B750"/>
<stop offset="1" stop-color="#A6D554"/>
</linearGradient>
<linearGradient id="paint2_linear_998_19" x1="0.592102" y1="23.6194" x2="34.7914" y2="23.5644" gradientUnits="userSpaceOnUse">
<stop stop-color="#28B750"/>
<stop offset="1" stop-color="#A6D554"/>
</linearGradient>
</defs>
</svg>
