<svg width="117" height="118" viewBox="0 0 117 118" fill="none" xmlns="http://www.w3.org/2000/svg">
<path fill-rule="evenodd" clip-rule="evenodd" d="M68.9965 18.1188C67.1033 16.5245 64.4878 15.7274 61.1499 15.7274H51.3602V31.2369H45.2082V33.5397H51.3602V35.1984H45.2082V37.5012H51.3602V41.8829H54.1252V37.5012H59.3938V35.1984H54.1252V33.6252H61.1499C64.4878 33.6252 67.1033 32.8406 68.9965 31.2713C70.8896 29.677 71.8363 27.4849 71.8363 24.695C71.8363 21.9051 70.8896 19.713 68.9965 18.1188ZM67.0162 29.5151C65.6461 30.636 63.6657 31.1965 61.0752 31.1965H54.1252V18.1188H61.0752C63.6657 18.1188 65.6461 18.6917 67.0162 19.8376C68.3862 20.9585 69.0712 22.5777 69.0712 24.695C69.0712 26.7626 68.3862 28.3693 67.0162 29.5151Z" fill="url(#paint0_linear_138_177)"/>
<path fill-rule="evenodd" clip-rule="evenodd" d="M58.5224 56.8326C74.0015 56.8326 86.5499 44.2842 86.5499 28.8051C86.5499 13.3259 74.0015 0.777527 58.5224 0.777527C43.0432 0.777527 30.4948 13.3259 30.4948 28.8051C30.4948 44.2842 43.0432 56.8326 58.5224 56.8326ZM58.5224 53.8326C72.3447 53.8326 83.5499 42.6274 83.5499 28.8051C83.5499 14.9827 72.3447 3.77753 58.5224 3.77753C44.7 3.77753 33.4948 14.9827 33.4948 28.8051C33.4948 42.6274 44.7 53.8326 58.5224 53.8326Z" fill="url(#paint1_linear_138_177)"/>
<path fill-rule="evenodd" clip-rule="evenodd" d="M5.8564 26.6307C5.18575 27.8357 4.91744 29.2436 4.96956 30.8868C3.71248 31.231 2.7264 31.8111 1.99349 32.5558C1.01143 33.5538 0.583941 34.7473 0.497759 35.7803C0.470049 36.1136 0.526934 36.5295 0.576006 36.8459C0.634478 37.2224 0.722612 37.6911 0.833208 38.2287C1.05477 39.3066 1.37813 40.7207 1.76766 42.3467C2.5472 45.6019 3.60274 49.7541 4.6667 53.8655C5.21871 55.999 5.77364 58.1239 6.29427 60.1095C6.67122 61.5474 7.03011 62.9122 7.35677 64.1545L7.62435 65.1725C8.03389 66.7301 8.37886 68.0436 8.62654 68.9993C8.75057 69.4775 8.84932 69.8626 8.91939 70.1425C8.97664 70.3715 9.00484 70.4919 9.01534 70.5367L9.02022 70.5568C9.07881 70.9082 9.24654 71.1627 9.29573 71.2374L9.29659 71.2385C9.37361 71.3554 9.45845 71.4605 9.53072 71.5446C9.60896 71.6357 9.6982 71.7319 9.79463 71.8312C9.87911 71.9182 9.96919 72.0076 10.0625 72.0978C10.4672 72.4896 11.0271 72.991 11.6905 73.5667C13.0219 74.722 14.845 76.2404 16.8499 77.9027L17.9825 78.8412C21.5377 81.7866 25.4818 85.0543 28.3541 87.6174V100.516H25.4664V117.445H56.6638V100.516H51.5246V76.4124L51.5179 76.3414C51.264 73.6754 49.5582 68.123 44.7512 64.5178C43.4027 63.5064 42.0203 62.429 40.656 61.3654C38.6826 59.8272 36.7464 58.3181 35.0036 57.0798C33.5065 56.0162 32.0622 55.0848 30.7429 54.4377C29.9066 54.0276 29.0299 53.6851 28.1649 53.5338C27.3397 50.121 26.1551 45.3502 24.9985 40.9551C23.7313 36.14 22.4539 31.6 21.7172 29.9056C18.9799 23.6098 13.5642 21.5437 9.68099 23.3711C8.09712 24.1165 6.71309 25.0916 5.8564 26.6307ZM18.966 31.1018C16.6812 25.8469 12.8505 25.1951 10.9583 26.0856C9.6545 26.6991 8.90376 27.3243 8.47774 28.0897C8.15828 28.6638 7.94979 29.4465 7.9637 30.6021C9.2806 30.7319 10.6777 31.2142 12.1307 32.1175C13.6994 33.0926 15.0206 34.795 16.1302 36.7043C17.2585 38.6454 18.2575 40.9586 19.1187 43.3349C20.4992 47.1437 21.5618 51.2167 22.2423 54.3923C22.6261 54.2351 23.0151 54.111 23.3952 54.0103C23.958 53.8612 24.5407 53.7539 25.1113 53.671C24.2987 50.3235 23.1848 45.8514 22.0972 41.7186C20.8022 36.7976 19.5882 32.5329 18.966 31.1018ZM31.3541 86.2819V100.516H48.5246V76.5584C48.3016 74.437 46.8537 69.8447 42.9513 66.9178C41.5047 65.8329 40.1015 64.7385 38.7445 63.6799L38.713 63.6555L38.7089 63.6522L38.7078 63.6512L38.6983 63.6439C36.793 62.1575 34.9795 60.7427 33.2661 59.5255C31.8159 58.4951 30.5253 57.6724 29.4218 57.1312C28.2752 56.5688 27.5347 56.4148 27.1156 56.4567C26.0518 56.563 25.0479 56.6759 24.1635 56.9102C23.276 57.1453 22.6726 57.4629 22.3006 57.8634C21.9115 58.2823 21.5506 59.0389 21.8212 60.6628C22.1626 62.7107 23.4842 64.4551 25.8054 66.3828C27.3549 67.6697 29.1934 68.92 31.2887 70.3448C32.3889 71.093 33.5599 71.8893 34.797 72.7642L33.0645 75.2135C31.9508 74.4257 30.8416 73.6709 29.7663 72.9391L29.7652 72.9384C27.586 71.4554 25.546 70.067 23.8886 68.6907C21.3714 66.6001 19.3807 64.2678 18.862 61.1559C18.5449 59.2527 18.7943 57.6774 19.6024 56.4566C18.9819 53.2584 17.8424 48.6176 16.2983 44.3571C15.4714 42.0756 14.5426 39.9429 13.5365 38.2118C12.5119 36.4489 11.4923 35.2529 10.547 34.6653C8.97493 33.6881 7.71407 33.4807 6.74544 33.5939C5.33248 33.7592 4.55709 34.2278 4.13179 34.66C3.70772 35.0909 3.53072 35.587 3.49043 36.0003C3.49288 36.0003 3.49727 36.1064 3.54061 36.386C3.58821 36.6932 3.66548 37.108 3.77168 37.6247C3.9836 38.6552 4.29817 40.0325 4.68514 41.6479C5.45809 44.8756 6.50813 49.0063 7.571 53.114C8.53133 56.8254 9.50044 60.5109 10.2827 63.4854L10.5257 64.4096C10.935 65.9661 11.2813 67.2848 11.5306 68.2464C11.6855 68.8438 11.8161 69.352 11.8972 69.6896C11.9422 69.7372 11.999 69.795 12.0686 69.8636C12.0937 69.8884 12.1204 69.9146 12.149 69.9423C12.4935 70.2757 13.0035 70.7341 13.6567 71.3008C14.9582 72.4303 16.755 73.9269 18.7647 75.5933L19.9041 76.5374C23.6538 79.6438 27.906 83.1666 30.8596 85.8353L31.3541 86.2819ZM28.4664 114.445V103.516H53.6638V114.445H28.4664Z" fill="url(#paint2_linear_138_177)"/>
<path fill-rule="evenodd" clip-rule="evenodd" d="M110.717 26.6307C111.388 27.8357 111.656 29.2436 111.604 30.8868C112.861 31.231 113.847 31.8111 114.58 32.5558C115.562 33.5538 115.99 34.7473 116.076 35.7803C116.085 35.893 116.085 36.0151 116.078 36.1396C116.071 36.2877 116.055 36.439 116.036 36.582C116.024 36.6745 116.01 36.7635 115.998 36.8459C115.939 37.2224 115.851 37.6911 115.74 38.2287C115.519 39.3066 115.196 40.7207 114.806 42.3467C114.026 45.6019 112.971 49.7541 111.907 53.8655C110.935 57.6231 109.953 61.3539 109.167 64.3444L108.949 65.1725C108.54 66.7301 108.195 68.0436 107.947 68.9993L107.818 69.4979C107.753 69.7518 107.698 69.9677 107.654 70.1425C107.597 70.3715 107.569 70.4919 107.558 70.5367L107.553 70.5568C107.495 70.9082 107.327 71.1627 107.278 71.2374L107.277 71.2385C107.243 71.2905 107.207 71.3402 107.171 71.3867C107.127 71.4448 107.083 71.4979 107.043 71.5446C106.928 71.6782 106.79 71.8228 106.64 71.9719C106.598 72.0135 106.555 72.0556 106.511 72.0978C106.106 72.4896 105.547 72.991 104.883 73.5667C103.552 74.722 101.729 76.2404 99.7237 77.9027L98.5911 78.8412C95.036 81.7866 91.0919 85.0543 88.2196 87.6174V100.516H91.1073V117.445H59.9099V100.516H65.049V76.4124L65.0557 76.3414C65.3096 73.6754 67.0155 68.123 71.8225 64.5178C73.171 63.5064 74.5533 62.429 75.9177 61.3654C77.8911 59.8272 79.8272 58.3181 81.57 57.0798C83.0671 56.0162 84.5114 55.0848 85.8308 54.4377C86.6671 54.0276 87.5438 53.6851 88.4088 53.5338C89.234 50.121 90.4185 45.3502 91.5751 40.9551C92.8424 36.14 94.1197 31.6 94.8564 29.9056C97.5937 23.6098 103.009 21.5437 106.893 23.3711C108.477 24.1165 109.861 25.0916 110.717 26.6307ZM97.6076 31.1018C99.8924 25.8469 103.723 25.1951 105.615 26.0856C106.919 26.6991 107.67 27.3243 108.096 28.0897C108.415 28.6638 108.624 29.4465 108.61 30.6021C107.293 30.7319 105.896 31.2142 104.443 32.1175C102.874 33.0926 101.553 34.795 100.443 36.7043C99.3151 38.6454 98.3161 40.9586 97.4549 43.3349C96.0744 47.1437 95.0118 51.2167 94.3314 54.3923C93.9476 54.2351 93.5585 54.111 93.1784 54.0103C92.6157 53.8612 92.0329 53.7539 91.4624 53.671C92.275 50.3235 93.3889 45.8514 94.4764 41.7186C95.7714 36.7976 96.9854 32.5329 97.6076 31.1018ZM85.2196 86.2819V100.516H68.049V76.5584C68.272 74.437 69.7199 69.8447 73.6224 66.9178C75.0815 65.8235 76.4967 64.7194 77.8647 63.6522L77.8658 63.6512L77.8753 63.6439C79.7806 62.1575 81.5942 60.7427 83.3076 59.5255C84.7578 58.4951 86.0483 57.6724 87.1518 57.1312C88.2984 56.5688 89.0389 56.4148 89.4581 56.4567C90.5218 56.563 91.5257 56.6759 92.4101 56.9102C93.2977 57.1453 93.9011 57.4629 94.273 57.8634C94.6622 58.2823 95.023 59.0389 94.7524 60.6628C94.4111 62.7107 93.0894 64.4551 90.7683 66.3828C89.2187 67.6697 87.3802 68.92 85.285 70.3448C84.1848 71.093 83.0137 71.8893 81.7767 72.7642L83.5091 75.2135C84.6229 74.4257 85.732 73.6709 86.8073 72.9391L86.8084 72.9384C88.9876 71.4554 91.0277 70.067 92.685 68.6907C95.2022 66.6001 97.1929 64.2678 97.7116 61.1559C98.0288 59.2527 97.7794 57.6774 96.9713 56.4566C97.5918 53.2584 98.7313 48.6176 100.275 44.3571C101.102 42.0756 102.031 39.9429 103.037 38.2118C104.062 36.4489 105.081 35.2529 106.027 34.6653C107.599 33.6881 108.86 33.4807 109.828 33.5939C111.241 33.7592 112.017 34.2278 112.442 34.66C112.866 35.0909 113.043 35.587 113.083 36.0003L113.082 36.0021L113.08 36.0275C113.075 36.0746 113.064 36.1858 113.033 36.386C112.985 36.6932 112.908 37.108 112.802 37.6247C112.59 38.6552 112.275 40.0325 111.889 41.6479C111.116 44.8756 110.066 49.0063 109.003 53.114C108.042 56.8254 107.073 60.5109 106.291 63.4854L106.048 64.4096C105.639 65.9661 105.292 67.2848 105.043 68.2464C104.888 68.8438 104.758 69.352 104.676 69.6896C104.655 69.7118 104.632 69.7361 104.606 69.7628C104.555 69.814 104.495 69.8737 104.425 69.9423C104.08 70.2757 103.57 70.7341 102.917 71.3008C101.615 72.4303 99.8187 73.9269 97.8089 75.5933L96.6695 76.5374C92.9199 79.6438 88.6677 83.1666 85.7141 85.8353L85.2196 86.2819ZM88.1073 114.445V103.516H62.9099V114.445H88.1073Z" fill="url(#paint3_linear_138_177)"/>
<defs>
<linearGradient id="paint0_linear_138_177" x1="0.490479" y1="69.6681" x2="116.102" y2="69.4525" gradientUnits="userSpaceOnUse">
<stop stop-color="#28B750"/>
<stop offset="1" stop-color="#A6D554"/>
</linearGradient>
<linearGradient id="paint1_linear_138_177" x1="0.490479" y1="69.6681" x2="116.102" y2="69.4525" gradientUnits="userSpaceOnUse">
<stop stop-color="#28B750"/>
<stop offset="1" stop-color="#A6D554"/>
</linearGradient>
<linearGradient id="paint2_linear_138_177" x1="0.490479" y1="69.6681" x2="116.102" y2="69.4525" gradientUnits="userSpaceOnUse">
<stop stop-color="#28B750"/>
<stop offset="1" stop-color="#A6D554"/>
</linearGradient>
<linearGradient id="paint3_linear_138_177" x1="0.490479" y1="69.6681" x2="116.102" y2="69.4525" gradientUnits="userSpaceOnUse">
<stop stop-color="#28B750"/>
<stop offset="1" stop-color="#A6D554"/>
</linearGradient>
</defs>
</svg>
