<svg width="133" height="113" viewBox="0 0 133 113" fill="none" xmlns="http://www.w3.org/2000/svg">
<path fill-rule="evenodd" clip-rule="evenodd" d="M102.176 52.0431H87.5188C83.9289 52.0431 81.0188 54.9532 81.0188 58.5431V62.6379H70.5881C66.9983 62.6379 64.0881 65.5481 64.0881 69.1379V101.805C60.4008 102.68 56.5541 103.143 52.5994 103.143C25.2064 103.143 3 80.9362 3 53.5432C3 26.1502 25.2064 3.94385 52.5994 3.94385C79.4905 3.94385 101.383 25.3441 102.176 52.0431ZM105.178 52.0431C104.384 23.6869 81.1475 0.943848 52.5994 0.943848C23.5495 0.943848 0 24.4933 0 53.5432C0 82.593 23.5495 106.143 52.5994 106.143C56.5455 106.143 60.3902 105.708 64.0881 104.884V106.189C64.0881 109.778 66.9983 112.689 70.5881 112.689H126.441C130.031 112.689 132.941 109.778 132.941 106.189V69.1379C132.941 65.5481 130.031 62.6379 126.441 62.6379H116.01V58.5431C116.01 54.9532 113.1 52.0431 109.51 52.0431H105.178ZM52.072 8.19531C52.9005 8.19531 53.572 8.86688 53.572 9.69531V17.3686C53.572 18.197 52.9005 18.8686 52.072 18.8686C51.2436 18.8686 50.572 18.197 50.572 17.3686V9.69531C50.572 8.86688 51.2436 8.19531 52.072 8.19531ZM52.072 23.3694C52.9005 23.3694 53.572 24.041 53.572 24.8694V50.9753C54.686 51.2822 55.5867 52.1034 56.003 53.1674H75.8593C76.6877 53.1674 77.3593 53.839 77.3593 54.6674C77.3593 55.4958 76.6877 56.1674 75.8593 56.1674H55.8499C55.2435 57.3456 54.0155 58.1514 52.5993 58.1514C50.5815 58.1514 48.9458 56.5156 48.9458 54.4979C48.9458 53.2301 49.5916 52.1132 50.572 51.4579V24.8694C50.572 24.041 51.2436 23.3694 52.072 23.3694ZM31.5867 14.3033C30.8826 14.7399 30.6657 15.6646 31.1022 16.3686L35.0667 22.763C35.5033 23.467 36.4279 23.684 37.132 23.2474C37.8361 22.8109 38.053 21.8862 37.6165 21.1822L33.6519 14.7878C33.2154 14.0837 32.2907 13.8668 31.5867 14.3033ZM15.596 31.3016C14.8935 30.8625 14.68 29.9371 15.119 29.2346C15.5581 28.532 16.4835 28.3185 17.186 28.7576L24.3477 33.2336C25.0503 33.6727 25.2638 34.5981 24.8248 35.3007C24.3857 36.0032 23.4603 36.2167 22.7578 35.7776L15.596 31.3016ZM19.4257 53.0911C19.4257 52.2626 18.7542 51.5911 17.9257 51.5911H9.99667C9.16824 51.5911 8.49667 52.2626 8.49667 53.0911C8.49667 53.9195 9.16824 54.5911 9.99667 54.5911H17.9257C18.7542 54.5911 19.4257 53.9195 19.4257 53.0911ZM23.5175 70.4128C24.1678 69.8995 24.2787 68.9562 23.7654 68.306C23.2521 67.6558 22.3088 67.5448 21.6586 68.0582L15.3235 73.0595C14.6733 73.5729 14.5623 74.5161 15.0757 75.1663C15.589 75.8165 16.5322 75.9275 17.1825 75.4142L23.5175 70.4128ZM37.0561 83.6356C37.5205 82.9496 37.3408 82.017 36.6548 81.5526C35.9688 81.0882 35.0362 81.2679 34.5718 81.9539L29.6815 89.1781C29.2172 89.8641 29.3968 90.7968 30.0829 91.2611C30.7689 91.7255 31.7015 91.5458 32.1659 90.8598L37.0561 83.6356ZM53.5096 88.1296C53.5096 87.3011 52.8381 86.6296 52.0096 86.6296C51.1812 86.6296 50.5096 87.3011 50.5096 88.1296V95.2426C50.5096 96.071 51.1812 96.7426 52.0096 96.7426C52.8381 96.7426 53.5096 96.071 53.5096 95.2426V88.1296ZM75.8553 17.3918C76.2918 16.6877 76.075 15.7631 75.3708 15.3265C74.6668 14.89 73.7421 15.1069 73.3056 15.811L69.3411 22.2054C68.9045 22.9094 69.1215 23.8341 69.8255 24.2706C70.5296 24.7072 71.4542 24.4902 71.8908 23.7862L75.8553 17.3918ZM92.7336 31.4088C93.1727 32.1112 92.9591 33.0367 92.2567 33.4757L85.0949 37.9518C84.3924 38.3909 83.467 38.1773 83.0279 37.4748C82.5889 36.7723 82.8024 35.8469 83.5049 35.4078L90.6666 30.9317C91.3691 30.4927 92.2946 30.7062 92.7336 31.4088ZM87.5188 55.0431C85.5858 55.0431 84.0188 56.6101 84.0188 58.5431V62.6378H113.01V58.5431C113.01 56.6101 111.443 55.0431 109.51 55.0431H87.5188ZM67.0881 69.1379C67.0881 67.2049 68.6551 65.6379 70.5881 65.6379H126.441C128.374 65.6379 129.941 67.2049 129.941 69.1379V91.0721H118.194V83.4809H103.699V91.0721H91.7297V83.4809H77.2349V91.0721H67.0881V69.1379ZM103.699 94.0721H91.7297V97.9758H77.2349V94.0721H67.0881V106.189C67.0881 108.122 68.6551 109.689 70.5881 109.689H126.441C128.374 109.689 129.941 108.122 129.941 106.189V94.0721H118.194V97.9758H103.699V94.0721ZM80.2349 94.9758V86.4809H88.7297V94.9758H80.2349ZM106.699 94.9758V86.4809H115.194V94.9758H106.699Z" fill="url(#paint0_linear_146_20)"/>
<defs>
<linearGradient id="paint0_linear_146_20" x1="1.83619e-07" y1="66.9274" x2="132.963" y2="66.6297" gradientUnits="userSpaceOnUse">
<stop stop-color="#28B750"/>
<stop offset="1" stop-color="#A6D554"/>
</linearGradient>
</defs>
</svg>
