<svg width="103" height="119" viewBox="0 0 103 119" fill="none" xmlns="http://www.w3.org/2000/svg">
<path d="M28.1364 42.1382C28.1364 41.3098 28.808 40.6382 29.6364 40.6382H67.955C68.7834 40.6382 69.455 41.3098 69.455 42.1382C69.455 42.9667 68.7834 43.6382 67.955 43.6382H29.6364C28.808 43.6382 28.1364 42.9667 28.1364 42.1382Z" fill="url(#paint0_linear_138_171)"/>
<path d="M15.2687 40.6382C14.4403 40.6382 13.7687 41.3098 13.7687 42.1382C13.7687 42.9666 14.4403 43.6382 15.2687 43.6382H23.0616C23.89 43.6382 24.5616 42.9666 24.5616 42.1382C24.5616 41.3098 23.89 40.6382 23.0616 40.6382H15.2687Z" fill="url(#paint1_linear_138_171)"/>
<path d="M15.2687 48.359C14.4403 48.359 13.7687 49.0306 13.7687 49.859C13.7687 50.6874 14.4403 51.359 15.2687 51.359H23.0616C23.89 51.359 24.5616 50.6874 24.5616 49.859C24.5616 49.0306 23.89 48.359 23.0616 48.359H15.2687Z" fill="url(#paint2_linear_138_171)"/>
<path d="M15.2687 56.0798C14.4403 56.0798 13.7687 56.7514 13.7687 57.5798C13.7687 58.4082 14.4403 59.0798 15.2687 59.0798H23.0616C23.89 59.0798 24.5616 58.4082 24.5616 57.5798C24.5616 56.7514 23.89 56.0798 23.0616 56.0798H15.2687Z" fill="url(#paint3_linear_138_171)"/>
<path d="M15.2687 63.8006C14.4403 63.8006 13.7687 64.4721 13.7687 65.3006C13.7687 66.129 14.4403 66.8006 15.2687 66.8006H23.0616C23.89 66.8006 24.5616 66.129 24.5616 65.3006C24.5616 64.4721 23.89 63.8006 23.0616 63.8006H15.2687Z" fill="url(#paint4_linear_138_171)"/>
<path d="M15.2687 71.5214C14.4403 71.5214 13.7687 72.1929 13.7687 73.0214C13.7687 73.8498 14.4403 74.5214 15.2687 74.5214H23.0616C23.89 74.5214 24.5616 73.8498 24.5616 73.0214C24.5616 72.1929 23.89 71.5214 23.0616 71.5214H15.2687Z" fill="url(#paint5_linear_138_171)"/>
<path d="M24.7463 18.5959C24.7463 17.7675 25.4179 17.0959 26.2463 17.0959H46.2665C47.095 17.0959 47.7665 17.7675 47.7665 18.5959C47.7665 19.4244 47.095 20.0959 46.2665 20.0959H26.2463C25.4179 20.0959 24.7463 19.4244 24.7463 18.5959Z" fill="url(#paint6_linear_138_171)"/>
<path d="M26.2463 22.2864C25.4179 22.2864 24.7463 22.958 24.7463 23.7864C24.7463 24.6148 25.4179 25.2864 26.2463 25.2864H59.6134C60.4418 25.2864 61.1134 24.6148 61.1134 23.7864C61.1134 22.958 60.4418 22.2864 59.6134 22.2864H26.2463Z" fill="url(#paint7_linear_138_171)"/>
<path d="M24.7463 28.9768C24.7463 28.1484 25.4179 27.4768 26.2463 27.4768H59.6134C60.4418 27.4768 61.1134 28.1484 61.1134 28.9768C61.1134 29.8052 60.4418 30.4768 59.6134 30.4768H26.2463C25.4179 30.4768 24.7463 29.8052 24.7463 28.9768Z" fill="url(#paint8_linear_138_171)"/>
<path fill-rule="evenodd" clip-rule="evenodd" d="M62.6713 54.6447C61.0145 54.6447 59.6713 55.9878 59.6713 57.6447V69.8793C59.6713 71.5361 61.0145 72.8793 62.6713 72.8793H92.9508C94.6076 72.8793 95.9508 71.5361 95.9508 69.8793V57.6447C95.9508 55.9878 94.6076 54.6447 92.9508 54.6447H62.6713ZM62.6713 69.8793V57.6447H92.9508V69.8793H62.6713Z" fill="url(#paint9_linear_138_171)"/>
<path fill-rule="evenodd" clip-rule="evenodd" d="M59.6157 75.4606V86.0981H70.2532V75.4606H59.6157ZM67.2532 78.4606H62.6157V83.0981H67.2532V78.4606Z" fill="url(#paint10_linear_138_171)"/>
<path fill-rule="evenodd" clip-rule="evenodd" d="M59.6157 99.2425V88.605H70.2532V99.2425H59.6157ZM62.6157 91.605H67.2532V96.2425H62.6157V91.605Z" fill="url(#paint11_linear_138_171)"/>
<path fill-rule="evenodd" clip-rule="evenodd" d="M59.6157 101.75V112.387H70.2532V101.75H59.6157ZM67.2532 104.75H62.6157V109.387H67.2532V104.75Z" fill="url(#paint12_linear_138_171)"/>
<path fill-rule="evenodd" clip-rule="evenodd" d="M72.4926 86.0981V75.4606H83.1301V86.0981H72.4926ZM75.4926 78.4606H80.1301V83.0981H75.4926V78.4606Z" fill="url(#paint13_linear_138_171)"/>
<path fill-rule="evenodd" clip-rule="evenodd" d="M72.4926 88.605V99.2425H83.1301V88.605H72.4926ZM80.1301 91.605H75.4926V96.2425H80.1301V91.605Z" fill="url(#paint14_linear_138_171)"/>
<path fill-rule="evenodd" clip-rule="evenodd" d="M72.4926 112.387V101.75H83.1301V112.387H72.4926ZM75.4926 104.75H80.1301V109.387H75.4926V104.75Z" fill="url(#paint15_linear_138_171)"/>
<path fill-rule="evenodd" clip-rule="evenodd" d="M85.3689 75.4606V86.0981H96.0064V75.4606H85.3689ZM93.0064 78.4606H88.3689V83.0981H93.0064V78.4606Z" fill="url(#paint16_linear_138_171)"/>
<path fill-rule="evenodd" clip-rule="evenodd" d="M85.3689 99.2425V88.605H96.0064V99.2425H85.3689ZM88.3689 91.605H93.0064V96.2425H88.3689V91.605Z" fill="url(#paint17_linear_138_171)"/>
<path fill-rule="evenodd" clip-rule="evenodd" d="M85.3689 101.75V112.387H96.0064V101.75H85.3689ZM93.0064 104.75H88.3689V109.387H93.0064V104.75Z" fill="url(#paint18_linear_138_171)"/>
<path fill-rule="evenodd" clip-rule="evenodd" d="M79.9418 46.8589V14.0434L66.2907 0.943848H1.23163C0.679344 0.943848 0.231628 1.39156 0.231628 1.94385V97.7743C0.231628 98.3266 0.679345 98.7743 1.23163 98.7743H53.4006V112.978C53.4006 116.291 56.0869 118.978 59.4006 118.978H96.2216C99.5353 118.978 102.222 116.291 102.222 112.978V52.8589C102.222 49.5452 99.5353 46.8589 96.2216 46.8589H79.9418ZM3.23163 3.94385V95.7743H53.4006V74.5214H29.6364C28.808 74.5214 28.1364 73.8498 28.1364 73.0214C28.1364 72.1929 28.808 71.5214 29.6364 71.5214H53.4006V66.8006H29.6364C28.808 66.8006 28.1364 66.129 28.1364 65.3006C28.1364 64.4722 28.808 63.8006 29.6364 63.8006H53.4006V59.0798H29.6364C28.808 59.0798 28.1364 58.4082 28.1364 57.5798C28.1364 56.7513 28.808 56.0798 29.6364 56.0798H53.4006V52.8589C53.4006 52.341 53.4662 51.8384 53.5896 51.359H29.6364C28.808 51.359 28.1364 50.6874 28.1364 49.859C28.1364 49.0306 28.808 48.359 29.6364 48.359H55.4317C56.4894 47.4254 57.8788 46.8589 59.4006 46.8589H76.9418V16.3385H65.2751C64.4467 16.3385 63.7751 15.6669 63.7751 14.8385V3.94385H3.23163ZM59.4006 49.8589C58.2901 49.8589 57.3205 50.4622 56.8018 51.359C56.5466 51.8002 56.4006 52.3125 56.4006 52.8589V112.978C56.4006 114.635 57.7437 115.978 59.4006 115.978H96.2216C97.8784 115.978 99.2216 114.635 99.2216 112.978V52.8589C99.2216 51.202 97.8784 49.8589 96.2216 49.8589H59.4006ZM66.7751 5.56648V13.3385H74.8743L66.7751 5.56648Z" fill="url(#paint19_linear_138_171)"/>
<defs>
<linearGradient id="paint0_linear_138_171" x1="0.231629" y1="70.6411" x2="102.239" y2="70.4752" gradientUnits="userSpaceOnUse">
<stop stop-color="#28B750"/>
<stop offset="1" stop-color="#A6D554"/>
</linearGradient>
<linearGradient id="paint1_linear_138_171" x1="0.231629" y1="70.6411" x2="102.239" y2="70.4752" gradientUnits="userSpaceOnUse">
<stop stop-color="#28B750"/>
<stop offset="1" stop-color="#A6D554"/>
</linearGradient>
<linearGradient id="paint2_linear_138_171" x1="0.231629" y1="70.6411" x2="102.239" y2="70.4752" gradientUnits="userSpaceOnUse">
<stop stop-color="#28B750"/>
<stop offset="1" stop-color="#A6D554"/>
</linearGradient>
<linearGradient id="paint3_linear_138_171" x1="0.231629" y1="70.6411" x2="102.239" y2="70.4752" gradientUnits="userSpaceOnUse">
<stop stop-color="#28B750"/>
<stop offset="1" stop-color="#A6D554"/>
</linearGradient>
<linearGradient id="paint4_linear_138_171" x1="0.231629" y1="70.6411" x2="102.239" y2="70.4752" gradientUnits="userSpaceOnUse">
<stop stop-color="#28B750"/>
<stop offset="1" stop-color="#A6D554"/>
</linearGradient>
<linearGradient id="paint5_linear_138_171" x1="0.231629" y1="70.6411" x2="102.239" y2="70.4752" gradientUnits="userSpaceOnUse">
<stop stop-color="#28B750"/>
<stop offset="1" stop-color="#A6D554"/>
</linearGradient>
<linearGradient id="paint6_linear_138_171" x1="0.231629" y1="70.6411" x2="102.239" y2="70.4752" gradientUnits="userSpaceOnUse">
<stop stop-color="#28B750"/>
<stop offset="1" stop-color="#A6D554"/>
</linearGradient>
<linearGradient id="paint7_linear_138_171" x1="0.231629" y1="70.6411" x2="102.239" y2="70.4752" gradientUnits="userSpaceOnUse">
<stop stop-color="#28B750"/>
<stop offset="1" stop-color="#A6D554"/>
</linearGradient>
<linearGradient id="paint8_linear_138_171" x1="0.231629" y1="70.6411" x2="102.239" y2="70.4752" gradientUnits="userSpaceOnUse">
<stop stop-color="#28B750"/>
<stop offset="1" stop-color="#A6D554"/>
</linearGradient>
<linearGradient id="paint9_linear_138_171" x1="0.231629" y1="70.6411" x2="102.239" y2="70.4752" gradientUnits="userSpaceOnUse">
<stop stop-color="#28B750"/>
<stop offset="1" stop-color="#A6D554"/>
</linearGradient>
<linearGradient id="paint10_linear_138_171" x1="0.231629" y1="70.6411" x2="102.239" y2="70.4752" gradientUnits="userSpaceOnUse">
<stop stop-color="#28B750"/>
<stop offset="1" stop-color="#A6D554"/>
</linearGradient>
<linearGradient id="paint11_linear_138_171" x1="0.231629" y1="70.6411" x2="102.239" y2="70.4752" gradientUnits="userSpaceOnUse">
<stop stop-color="#28B750"/>
<stop offset="1" stop-color="#A6D554"/>
</linearGradient>
<linearGradient id="paint12_linear_138_171" x1="0.231629" y1="70.6411" x2="102.239" y2="70.4752" gradientUnits="userSpaceOnUse">
<stop stop-color="#28B750"/>
<stop offset="1" stop-color="#A6D554"/>
</linearGradient>
<linearGradient id="paint13_linear_138_171" x1="0.231629" y1="70.6411" x2="102.239" y2="70.4752" gradientUnits="userSpaceOnUse">
<stop stop-color="#28B750"/>
<stop offset="1" stop-color="#A6D554"/>
</linearGradient>
<linearGradient id="paint14_linear_138_171" x1="0.231629" y1="70.6411" x2="102.239" y2="70.4752" gradientUnits="userSpaceOnUse">
<stop stop-color="#28B750"/>
<stop offset="1" stop-color="#A6D554"/>
</linearGradient>
<linearGradient id="paint15_linear_138_171" x1="0.231629" y1="70.6411" x2="102.239" y2="70.4752" gradientUnits="userSpaceOnUse">
<stop stop-color="#28B750"/>
<stop offset="1" stop-color="#A6D554"/>
</linearGradient>
<linearGradient id="paint16_linear_138_171" x1="0.231629" y1="70.6411" x2="102.239" y2="70.4752" gradientUnits="userSpaceOnUse">
<stop stop-color="#28B750"/>
<stop offset="1" stop-color="#A6D554"/>
</linearGradient>
<linearGradient id="paint17_linear_138_171" x1="0.231629" y1="70.6411" x2="102.239" y2="70.4752" gradientUnits="userSpaceOnUse">
<stop stop-color="#28B750"/>
<stop offset="1" stop-color="#A6D554"/>
</linearGradient>
<linearGradient id="paint18_linear_138_171" x1="0.231629" y1="70.6411" x2="102.239" y2="70.4752" gradientUnits="userSpaceOnUse">
<stop stop-color="#28B750"/>
<stop offset="1" stop-color="#A6D554"/>
</linearGradient>
<linearGradient id="paint19_linear_138_171" x1="0.231629" y1="70.6411" x2="102.239" y2="70.4752" gradientUnits="userSpaceOnUse">
<stop stop-color="#28B750"/>
<stop offset="1" stop-color="#A6D554"/>
</linearGradient>
</defs>
</svg>
