<svg width="26" height="25" viewBox="0 0 26 25" fill="none" xmlns="http://www.w3.org/2000/svg">
<mask id="path-1-outside-1_129_28" maskUnits="userSpaceOnUse" x="0.69104" y="0.303711" width="17" height="25" fill="black">
<rect fill="white" x="0.69104" y="0.303711" width="17" height="25"/>
<path fill-rule="evenodd" clip-rule="evenodd" d="M4.69104 2.30371C3.58647 2.30371 2.69104 3.19914 2.69104 4.30371V20.9126C2.69104 22.0172 3.58647 22.9126 4.69104 22.9126H13.4772C14.5818 22.9126 15.4772 22.0172 15.4772 20.9126V4.30371C15.4772 3.19914 14.5818 2.30371 13.4772 2.30371H4.69104ZM6.03662 4.47216C4.93205 4.47216 4.03662 5.36759 4.03662 6.47216V18.7434C4.03662 19.8479 4.93205 20.7434 6.03662 20.7434H12.1316C13.2362 20.7434 14.1316 19.8479 14.1316 18.7434V6.47216C14.1316 5.36759 13.2362 4.47216 12.1316 4.47216H6.03662Z"/>
</mask>
<path d="M4.69104 4.30371L4.69104 4.30371V0.303711C2.4819 0.303711 0.69104 2.09457 0.69104 4.30371H4.69104ZM4.69104 20.9126V4.30371H0.69104V20.9126H4.69104ZM4.69104 20.9126H4.69104H0.69104C0.69104 23.1217 2.4819 24.9126 4.69104 24.9126V20.9126ZM13.4772 20.9126H4.69104V24.9126H13.4772V20.9126ZM13.4772 20.9126V24.9126C15.6863 24.9126 17.4772 23.1217 17.4772 20.9126H13.4772ZM13.4772 4.30371V20.9126H17.4772V4.30371H13.4772ZM13.4772 4.30371H17.4772C17.4772 2.09457 15.6863 0.303711 13.4772 0.303711V4.30371ZM4.69104 4.30371H13.4772V0.303711H4.69104V4.30371ZM6.03662 6.47216V6.47216V2.47216C3.82748 2.47216 2.03662 4.26302 2.03662 6.47216H6.03662ZM6.03662 18.7434V6.47216H2.03662V18.7434H6.03662ZM6.03662 18.7434H6.03662H2.03662C2.03662 20.9525 3.82748 22.7434 6.03662 22.7434V18.7434ZM12.1316 18.7434H6.03662V22.7434H12.1316V18.7434ZM12.1316 18.7434V18.7434V22.7434C14.3408 22.7434 16.1316 20.9525 16.1316 18.7434H12.1316ZM12.1316 6.47216V18.7434H16.1316V6.47216H12.1316ZM12.1316 6.47216H12.1316H16.1316C16.1316 4.26302 14.3408 2.47216 12.1316 2.47216V6.47216ZM6.03662 6.47216H12.1316V2.47216H6.03662V6.47216Z" fill="#28B750" mask="url(#path-1-outside-1_129_28)"/>
<path d="M18.8463 10.6243C19.604 11.1205 20.1046 11.9769 20.1046 12.9503C20.1046 13.9237 19.604 14.7802 18.8463 15.2764" stroke="#28B750" stroke-width="2" stroke-linecap="round"/>
<path d="M19.8871 8.0864C21.4714 9.12393 22.518 10.9147 22.518 12.9499C22.518 14.9852 21.4714 16.7759 19.8871 17.8135" stroke="#28B750" stroke-width="2" stroke-linecap="round"/>
<path d="M20.825 5.2794C23.3236 6.9157 24.9742 9.73998 24.9742 12.9498C24.9742 16.1595 23.3236 18.9838 20.825 20.6201" stroke="#28B750" stroke-width="2" stroke-linecap="round"/>
</svg>
