<svg width="28" height="27" viewBox="0 0 28 27" fill="none" xmlns="http://www.w3.org/2000/svg">
<path fill-rule="evenodd" clip-rule="evenodd" d="M5.02362 18.1555C4.11701 16.5744 3.58815 14.6922 3.58815 12.81C3.58815 6.86217 8.42341 2.0437 14.3919 2.0437C17.2629 2.0437 19.9827 3.17303 22.0226 5.20582C24.0624 7.23861 25.1202 9.949 25.1957 12.7347C25.1957 18.6825 20.3605 23.5009 14.3919 23.5009C12.5787 23.5009 10.841 23.0492 9.25447 22.221L3.5126 23.7268L5.02362 18.1555ZM9.04744 24.343C10.7104 25.0915 12.5136 25.5009 14.3919 25.5009C21.4585 25.5009 27.1957 19.7936 27.1957 12.7347V12.7076L27.195 12.6805C27.1067 9.42683 25.868 6.21437 23.4343 3.78915C21.0221 1.38526 17.7956 0.0437012 14.3919 0.0437012C7.32541 0.0437012 1.58815 5.75105 1.58815 12.81C1.58815 14.7587 2.06071 16.6912 2.88735 18.3915L0.677979 26.5378L9.04744 24.343ZM13.4738 16.6576C12.8994 16.2985 12.3856 15.8842 11.9406 15.4693C11.9269 15.4565 11.9134 15.4438 11.8998 15.4311C10.8525 14.4453 10.1951 13.4656 10.0366 13.2265C10.0328 13.2209 10.0294 13.2157 10.0262 13.2109C10.0196 13.2009 10.0142 13.1927 10.01 13.1864C9.98769 13.1642 9.94732 13.1174 9.89469 13.0494C9.89167 13.0455 9.88861 13.0416 9.88552 13.0375C9.57641 12.6348 8.87672 11.5446 8.87672 10.4007C8.87672 9.22483 9.38866 8.61578 9.67219 8.27847C9.71542 8.22703 9.75334 8.18192 9.78333 8.14207C10.01 7.84092 10.3122 7.84092 10.5388 7.84092H11.0677C11.0837 7.84092 11.1006 7.84007 11.1183 7.83919C11.2669 7.83173 11.4695 7.82155 11.6721 8.29265C11.7493 8.47214 11.8615 8.7477 11.979 9.03604C12.2064 9.59431 12.4533 10.2005 12.5032 10.2502C12.5787 10.4007 12.5787 10.5513 12.5032 10.7019C12.4276 10.8525 12.3521 11.003 12.201 11.1536C12.1124 11.2418 12.0239 11.3559 11.9506 11.4503C11.8987 11.5171 11.8545 11.5742 11.8232 11.6054C11.7079 11.7203 11.5926 11.8352 11.6116 11.9836C11.6159 12.0175 11.6273 12.0532 11.6473 12.091C11.6545 12.1045 11.6627 12.1183 11.6721 12.1324C11.8232 12.4335 12.3521 13.2617 13.1831 14.0146C13.6737 14.4336 14.1155 14.7231 14.4784 14.928C14.7793 15.098 15.026 15.2099 15.2013 15.2893C15.2703 15.3207 15.3283 15.347 15.3741 15.3698C15.6763 15.5204 15.8274 15.4451 15.9785 15.2945C16.1296 15.1439 16.6585 14.5416 16.8096 14.2405C16.9607 13.9393 17.1873 14.0146 17.414 14.0899C17.6406 14.1652 19.0005 14.8428 19.2272 14.9933C19.5294 15.1439 19.6805 15.2192 19.756 15.2945C19.8316 15.5204 19.8316 16.0474 19.6049 16.6497C19.3783 17.252 18.3206 17.8543 17.7917 17.9296C17.3384 18.0049 16.734 18.0049 16.1296 17.8543C16.0152 17.8087 15.887 17.7631 15.747 17.7133C15.4247 17.5987 15.04 17.462 14.6186 17.252C14.2147 17.0843 13.8324 16.8817 13.4738 16.6576ZM11.2239 9.8364C11.2266 9.8363 11.228 9.83623 11.2279 9.83623C11.2278 9.83622 11.2269 9.83626 11.2252 9.83634L11.2239 9.8364ZM9.83481 9.08281C9.83496 9.08316 9.8351 9.0835 9.83525 9.08385C9.83206 9.07714 9.83205 9.07639 9.83481 9.08281Z" fill="#28B750"/>
</svg>