<svg width="86" height="100" viewBox="0 0 86 100" fill="none" xmlns="http://www.w3.org/2000/svg">
<path d="M20.2906 61.5536C21.5262 61.5536 22.5278 60.5517 22.5278 59.3163C22.5278 58.0805 21.5262 57.079 20.2906 57.079C19.055 57.079 18.0533 58.0805 18.0533 59.3163C18.0533 60.5517 19.055 61.5536 20.2906 61.5536Z" fill="url(#paint0_linear_145_3)"/>
<path fill-rule="evenodd" clip-rule="evenodd" d="M46.006 1.65374C48.3313 2.71966 50.77 4.83099 52.0878 7.53557C53.4607 10.353 53.2585 14.2724 52.6466 17.7236C52.1958 20.266 51.4836 22.7553 50.7988 24.7367H71.3761C71.506 24.7367 71.6543 24.7343 71.8181 24.7324C72.9712 24.7158 74.8936 24.6879 76.5586 25.3158C77.5652 25.6957 78.5577 26.3349 79.2855 27.3969C80.0115 28.4555 80.3844 29.8041 80.3844 31.4462C80.3844 33.2831 79.6858 34.7084 78.5247 35.7167C78.4551 35.7773 78.3842 35.8359 78.312 35.893C78.9315 36.1703 79.5181 36.519 80.0383 36.9589C81.3007 38.0268 82.0624 39.5434 82.0624 41.5136C82.0624 43.5785 81.3336 45.1591 80.0531 46.247C79.2532 46.9267 78.3035 47.3574 77.3323 47.6313C78.1433 48.4731 78.7064 49.58 78.7064 51.0219C78.7064 52.8696 77.989 54.3066 76.817 55.3339C75.9181 56.1215 74.8076 56.6205 73.6858 56.9448C74.6438 57.7958 75.3506 58.9604 75.3506 60.5302C75.3506 62.9716 74.2151 64.5761 72.8597 65.561C71.5791 66.4921 70.1345 66.8505 69.446 67.0131L69.29 67.0502L69.1296 67.0532C64.1842 67.1484 56.6121 67.2626 49.9674 67.2958C46.646 67.3124 43.5491 67.309 41.1254 67.2724C39.9143 67.2543 38.8625 67.2275 38.0308 67.1908C37.2344 67.1552 36.545 67.1074 36.1198 67.0283C33.6931 66.5766 32.3436 64.9716 31.7058 63.6347H29.2874V67.6235H10.2177L4.45947 24.7367H29.2874V28.4701C29.3414 28.4555 29.3954 28.4399 29.4489 28.4238C29.5076 28.4057 29.5658 28.3876 29.6233 28.3681L29.6766 28.3495C30.3507 28.1127 30.5356 27.891 30.5681 27.852C30.5735 27.8456 30.5747 27.8442 30.5732 27.8486C30.8145 27.1298 31.3802 26.3862 31.8789 25.7553L32.0522 25.5375L32.2147 25.3354L32.5295 24.9467C32.9221 24.4628 33.3416 23.9457 33.8051 23.3378C35.2144 21.4892 36.7832 19.1049 37.8345 16.0126C39.1526 12.1352 39.2515 9.55706 39.1545 7.73968L39.1407 7.5053L39.1233 7.25286C39.1077 7.04485 39.0902 6.84417 39.0724 6.64886L39.0411 6.31682L39.0052 5.93108C38.985 5.70501 38.9668 5.48138 38.9552 5.268C38.9152 4.52825 38.9315 3.65911 39.35 2.8178C39.994 1.52337 41.2089 0.961356 42.4248 0.87493C43.5894 0.792411 44.8453 1.12151 46.006 1.65374ZM29.2874 31.5463V60.6347H33.9883L34.2308 61.8383C34.3453 62.4072 35.0154 63.7709 36.6689 64.079C36.7618 64.0961 36.928 64.1157 37.1731 64.1352C37.4208 64.1552 37.7491 64.1752 38.1638 64.1938C38.9536 64.2289 39.9725 64.2548 41.1704 64.2729C43.5647 64.3085 46.6384 64.3124 49.9524 64.2958C56.5056 64.2631 63.9696 64.1513 68.9084 64.0571C69.5464 63.8998 70.394 63.6445 71.0959 63.1342C71.7808 62.6367 72.3506 61.8876 72.3506 60.5302C72.3506 59.6464 71.6443 58.83 69.9319 58.207C69.0216 57.8754 68.0322 57.6855 67.1912 57.5956C66.9297 57.5922 66.6809 57.5868 66.4479 57.581L66.0151 57.5698C65.8018 57.5644 65.6063 57.559 65.4318 57.5556L65.3262 54.5619C65.8501 54.5146 66.5535 54.5204 67.3427 54.5961C68.8575 54.6147 70.6388 54.5722 72.2295 54.2206C73.3751 53.9677 74.261 53.5844 74.84 53.0771C75.3622 52.6196 75.7064 52.0048 75.7064 51.0219C75.7064 50.0322 74.9657 49.1977 73.2408 48.5727C72.5149 48.3095 71.7272 48.1323 70.9832 48.02C70.6196 47.9965 70.2905 47.9721 69.9918 47.9501L69.9695 47.9487C69.3667 47.9037 68.8884 47.8686 68.4996 47.8686L68.4301 44.87C69.1541 44.8364 70.1749 44.8735 71.2905 45.0326C71.4215 45.0414 71.5516 45.0492 71.6798 45.0561C72.9156 45.1235 74.218 45.1396 75.4001 44.9726C76.5991 44.8036 77.5142 44.4677 78.111 43.9609C78.6427 43.5087 79.0624 42.8051 79.0624 41.5136C79.0624 40.4081 78.6757 39.7358 78.1007 39.2494C77.4615 38.7084 76.4852 38.3163 75.2214 38.0693C74.2125 37.8715 73.1508 37.7851 72.1101 37.7504C70.7859 37.8256 69.5276 37.7924 68.6042 37.768C68.3783 37.7617 68.1732 37.7563 67.9921 37.7533L67.7942 37.7519L67.6741 37.7499L67.6982 34.7504C67.8058 34.7504 67.9174 34.7509 68.0326 34.7529C68.334 34.7529 68.6807 34.748 69.0624 34.7421H69.09C69.3569 34.7382 69.6407 34.7343 69.9379 34.7314C70.1743 34.7294 70.4192 34.728 70.6708 34.7284C71.1222 34.7289 71.595 34.7348 72.0789 34.7504C72.7476 34.7084 73.4218 34.6318 74.0723 34.5004C75.1699 34.2778 76.011 33.9262 76.5575 33.4516C77.0443 33.0292 77.3844 32.4389 77.3844 31.4462C77.3844 30.2592 77.1184 29.5414 76.8112 29.0932C76.5057 28.6474 76.0707 28.3383 75.4998 28.123C74.4128 27.7128 73.1277 27.7236 71.9226 27.7338H71.9171C71.7346 27.7353 71.554 27.7367 71.3761 27.7367H46.4011L47.2471 25.6689C48.0432 23.7226 49.1089 20.4921 49.6927 17.1996C50.2921 13.8193 50.3132 10.7426 49.3909 8.84954C48.4135 6.84368 46.5294 5.19378 44.7556 4.3803C43.8667 3.97307 43.1289 3.83245 42.6371 3.86761C42.1967 3.89886 42.0924 4.04095 42.0359 4.15423C41.9994 4.22796 41.9641 4.33684 41.949 4.54339C41.9388 4.68108 41.9376 4.86224 41.9508 5.1054C41.9655 5.37591 41.9935 5.67229 42.0283 6.03997L42.0398 6.16106C42.0704 6.48626 42.1038 6.85003 42.1304 7.24944C42.1376 7.35686 42.1443 7.46722 42.1503 7.58001C42.266 9.74895 42.1252 12.7118 40.6748 16.9784C39.48 20.4926 37.7062 23.1689 36.1907 25.1567C35.99 25.4199 35.7889 25.6772 35.5929 25.9247C35.4603 26.0917 35.3301 26.2543 35.2036 26.4111L34.8076 26.9008L34.7854 26.9286C34.5795 27.1825 34.3925 27.4135 34.2325 27.6157C33.8557 28.0922 33.6393 28.4008 33.5233 28.5937C33.4653 28.6904 33.4325 28.7577 33.4172 28.8032C32.9479 30.2016 31.5704 30.8642 30.6703 31.1801C30.2106 31.3412 29.7355 31.4609 29.2874 31.5463ZM7.88922 27.7367L12.8419 64.6235H26.2874V27.7367H7.88922Z" fill="url(#paint1_linear_145_3)"/>
<path fill-rule="evenodd" clip-rule="evenodd" d="M14.5006 85.0624L11.0946 78.1611L7.6886 85.0624L0.0725098 86.1689L5.58356 91.5409L4.28259 99.1264L11.0946 95.5449L17.9066 99.1264L16.6057 91.5409L19.2727 88.9413L21.9398 91.5409L20.6388 99.1264L27.4508 95.5449L34.2628 99.1264L32.9619 91.5409L35.4094 89.1552L37.8571 91.5409L36.556 99.1264L43.368 95.5449L50.1801 99.1264L48.8792 91.5409L51.293 89.1879L53.7069 91.5409L52.4059 99.1264L59.2179 95.5449L66.0299 99.1264L64.729 91.5409L66.8257 89.497L68.9224 91.5409L67.6215 99.1264L74.4335 95.5449L81.2455 99.1264L79.9446 91.5409L85.4556 86.1689L77.8395 85.0624L74.4335 78.1611L71.0275 85.0624L66.8257 85.6728L62.6239 85.0624L59.2179 78.1611L55.8119 85.0624L51.293 85.7192L46.774 85.0624L43.368 78.1611L39.962 85.0624L35.4094 85.7241L30.8568 85.0624L27.4508 78.1611L24.0448 85.0624L19.2727 85.7558L14.5006 85.0624ZM15.6699 88.2636L12.5084 87.8046L11.0946 84.9399L9.68079 87.8046L6.51941 88.2636L8.80701 90.4936L8.26697 93.6425L11.0946 92.1557L13.9222 93.6425L13.3822 90.4936L15.6699 88.2636ZM32.026 88.2636L28.8646 87.8046L27.4508 84.9399L26.037 87.8046L22.8756 88.2636L25.1632 90.4936L24.6232 93.6425L27.4508 92.1557L30.2784 93.6425L29.7384 90.4936L32.026 88.2636ZM44.7819 87.8046L47.9432 88.2636L45.6556 90.4936L46.1957 93.6425L43.368 92.1557L40.5404 93.6425L41.0804 90.4936L38.7928 88.2636L41.9542 87.8046L43.368 84.9399L44.7819 87.8046ZM63.7931 88.2636L60.6317 87.8046L59.2179 84.9399L57.8041 87.8046L54.6427 88.2636L56.9303 90.4936L56.3903 93.6425L59.2179 92.1557L62.0455 93.6425L61.5055 90.4936L63.7931 88.2636ZM75.8473 87.8046L79.0087 88.2636L76.7211 90.4936L77.2611 93.6425L74.4335 92.1557L71.6058 93.6425L72.1459 90.4936L69.8583 88.2636L73.0197 87.8046L74.4335 84.9399L75.8473 87.8046Z" fill="url(#paint2_linear_145_3)"/>
<defs>
<linearGradient id="paint0_linear_145_3" x1="0.0725099" y1="58.8858" x2="85.4699" y2="58.7461" gradientUnits="userSpaceOnUse">
<stop stop-color="#28B750"/>
<stop offset="1" stop-color="#A6D554"/>
</linearGradient>
<linearGradient id="paint1_linear_145_3" x1="0.0725099" y1="58.8858" x2="85.4699" y2="58.7461" gradientUnits="userSpaceOnUse">
<stop stop-color="#28B750"/>
<stop offset="1" stop-color="#A6D554"/>
</linearGradient>
<linearGradient id="paint2_linear_145_3" x1="0.0725099" y1="58.8858" x2="85.4699" y2="58.7461" gradientUnits="userSpaceOnUse">
<stop stop-color="#28B750"/>
<stop offset="1" stop-color="#A6D554"/>
</linearGradient>
</defs>
</svg>
