<svg width="85" height="83" viewBox="0 0 85 83" fill="none" xmlns="http://www.w3.org/2000/svg">
<path fill-rule="evenodd" clip-rule="evenodd" d="M32.6044 3.79893L34.5409 5.72447V18.139H31.5409V6.9721L29.3168 4.76062C23.1681 7.40956 21.1759 13.8341 21.0651 17.6215L18.0664 17.5338C18.2 12.9642 20.6877 4.57759 29.1854 1.59352C31.2975 0.851829 33.7395 0.464738 36.5458 0.544462C38.5788 0.602218 40.4006 0.888429 42.0284 1.36402C51.6944 4.18816 53.7226 13.3077 53.4474 18.121L55.9388 19.206C55.4584 20.3093 54.3084 21.5502 52.4649 22.6866C52.4617 22.8748 52.4544 23.0758 52.4445 23.2825C52.4107 23.9836 52.3421 24.833 52.2673 25.642C52.1922 26.4546 52.1094 27.2425 52.0455 27.8262C52.0135 28.1183 51.9861 28.3601 51.9668 28.5291L51.9441 28.7255L51.9359 28.7949L51.9358 28.7962L50.4462 28.6198C51.9357 28.7964 51.9358 28.7963 51.9358 28.7962L51.8614 29.4236L51.3621 29.8077L51.3612 29.8083L51.3566 29.812L51.3286 29.8341C51.3027 29.8547 51.2638 29.8861 51.2164 29.9257C51.1196 30.0063 50.9961 30.1135 50.8776 30.2274C50.8256 30.2774 50.7806 30.323 50.7426 30.3634C50.7895 32.3139 50.538 34.812 49.7591 37.2982C48.9892 39.756 47.6763 42.286 45.5418 44.2354V49.7439L50.1502 52.7854L50.8228 82.7671L47.8236 82.8344L47.1862 54.4237L44.214 52.4621L35.8153 61.3435L27.0226 51.476C26.2973 51.7886 25.3613 52.199 24.2473 52.6973V82.8008H21.2473V54.0581C19.6802 54.7779 17.9189 55.6005 16.0126 56.5106V82.8008H13.0126V57.9582C12.7674 58.0778 12.5205 58.1985 12.2719 58.3203C8.61368 60.1136 6.30508 62.0528 4.90581 63.691C3.53574 65.295 3.08525 66.549 3.00537 67.0794V82.8008H0.00537109V66.9076L0.0136125 66.8293C0.149402 65.5392 0.955806 63.6963 2.6247 61.7425C4.32282 59.7545 6.9738 57.5764 10.9514 55.6265C11.9502 55.137 12.9226 54.6655 13.8631 54.2137C17.0556 52.6803 19.8821 51.374 22.1304 50.3596C23.9278 49.5487 25.3593 48.9226 26.3151 48.5153V44.2474C23.8548 42.0563 22.5695 39.1865 21.878 36.7561C21.2365 34.5014 21.0725 32.4824 21.0025 31.6209C20.9915 31.4852 20.9828 31.378 20.9749 31.3034C20.9546 31.1107 20.9113 30.9936 20.8785 30.928C20.8461 30.863 20.8138 30.8277 20.7915 30.8079C20.769 30.7877 20.7476 30.7755 20.7324 30.7687L19.3758 30.6784V22.8664C17.5579 21.6805 16.3947 20.3982 15.8126 19.3193L18.4529 17.8949C19.3556 19.5682 24.3305 24.0759 36.44 23.5652C42.5075 23.3094 46.6126 22.2086 49.2536 21.0002C51.6326 19.9117 52.7099 18.7937 53.0766 18.2136L50.4467 18.0404C50.7074 14.0815 49.1114 7.09649 42.0779 4.53528L39.9683 6.91706V18.139H36.9683V5.77951L38.7807 3.73328C38.0546 3.63171 37.2822 3.56659 36.4606 3.54325C35.0473 3.5031 33.7659 3.59754 32.6044 3.79893ZM42.5418 46.2645V49.8641L35.8809 56.9078L29.102 49.3003H29.3151V46.2293C31.2763 47.1552 33.6589 47.6783 36.5344 47.6184C38.852 47.5701 40.8451 47.0808 42.5418 46.2645ZM22.3758 24.4414V28.2581C23.1331 28.7402 23.8132 29.6099 23.9584 30.9894C23.9701 31.1005 23.9819 31.2408 23.9958 31.4073C24.0719 32.3157 24.2129 33.9999 24.7635 35.9352C25.4146 38.2237 26.5933 40.6727 28.7447 42.3715C30.4587 43.7249 32.9026 44.6934 36.472 44.619C39.3845 44.5583 41.516 43.6681 43.096 42.3845C44.9683 40.8634 46.1775 38.696 46.8963 36.4014C47.615 34.1074 47.8114 31.7845 47.7314 30.0944L47.7297 30.0589V30.0235C47.7297 29.6581 47.8426 29.3638 47.9258 29.1877C48.0151 28.9989 48.1227 28.8373 48.2156 28.7123C48.4008 28.4631 48.6197 28.2367 48.7983 28.0649C48.8754 27.9908 48.9516 27.9205 49.0238 27.8558C49.0358 27.7487 49.0491 27.6292 49.0633 27.4996C49.1261 26.926 49.207 26.156 49.2801 25.3658C49.3164 24.973 49.3504 24.5792 49.3791 24.2045C46.3645 25.39 42.1912 26.3254 36.5664 26.5625C30.4074 26.8223 25.7408 25.8558 22.3758 24.4414Z" fill="url(#paint0_linear_138_252)"/>
<path d="M79.2143 50.6104H63.9186V47.6104H79.2143V50.6104Z" fill="url(#paint1_linear_138_252)"/>
<path d="M58.5287 50.6104H61.0865V47.6104H58.5287V50.6104Z" fill="url(#paint2_linear_138_252)"/>
<path d="M79.2143 55.7222H63.9186V52.7222H79.2143V55.7222Z" fill="url(#paint3_linear_138_252)"/>
<path d="M58.5287 55.7222H61.0865V52.7222H58.5287V55.7222Z" fill="url(#paint4_linear_138_252)"/>
<path d="M79.2143 60.835H63.9186V57.835H79.2143V60.835Z" fill="url(#paint5_linear_138_252)"/>
<path d="M58.5287 60.835H61.0865V57.835H58.5287V60.835Z" fill="url(#paint6_linear_138_252)"/>
<path d="M79.2143 65.9468H63.9186V62.9468H79.2143V65.9468Z" fill="url(#paint7_linear_138_252)"/>
<path d="M70.9962 77.8652H79.2142V74.8652H70.9962V77.8652Z" fill="url(#paint8_linear_138_252)"/>
<path d="M61.0865 65.9468H58.5287V62.9468H61.0865V65.9468Z" fill="url(#paint9_linear_138_252)"/>
<path fill-rule="evenodd" clip-rule="evenodd" d="M61.3903 39.376V36.8481H77.318V39.376H84.9027V82.4821H53.6792V39.376H61.3903ZM64.3903 39.8481H74.318V41.3063H64.3903V39.8481ZM61.3903 42.376H56.6792V79.4821H81.9027V42.376H77.318V44.3063H61.3903V42.376Z" fill="url(#paint10_linear_138_252)"/>
<path d="M34.3036 63.3701V65.8329H37.3036V63.3701H34.3036Z" fill="url(#paint11_linear_138_252)"/>
<path d="M34.3036 71.0604V68.5977H37.3036V71.0604H34.3036Z" fill="url(#paint12_linear_138_252)"/>
<path d="M34.3036 73.9028V76.3656H37.3036V73.9028H34.3036Z" fill="url(#paint13_linear_138_252)"/>
<defs>
<linearGradient id="paint0_linear_138_252" x1="0.00537121" y1="49.1312" x2="84.9168" y2="48.9664" gradientUnits="userSpaceOnUse">
<stop stop-color="#28B750"/>
<stop offset="1" stop-color="#A6D554"/>
</linearGradient>
<linearGradient id="paint1_linear_138_252" x1="0.00537121" y1="49.1312" x2="84.9168" y2="48.9664" gradientUnits="userSpaceOnUse">
<stop stop-color="#28B750"/>
<stop offset="1" stop-color="#A6D554"/>
</linearGradient>
<linearGradient id="paint2_linear_138_252" x1="0.00537121" y1="49.1312" x2="84.9168" y2="48.9664" gradientUnits="userSpaceOnUse">
<stop stop-color="#28B750"/>
<stop offset="1" stop-color="#A6D554"/>
</linearGradient>
<linearGradient id="paint3_linear_138_252" x1="0.00537121" y1="49.1312" x2="84.9168" y2="48.9664" gradientUnits="userSpaceOnUse">
<stop stop-color="#28B750"/>
<stop offset="1" stop-color="#A6D554"/>
</linearGradient>
<linearGradient id="paint4_linear_138_252" x1="0.00537121" y1="49.1312" x2="84.9168" y2="48.9664" gradientUnits="userSpaceOnUse">
<stop stop-color="#28B750"/>
<stop offset="1" stop-color="#A6D554"/>
</linearGradient>
<linearGradient id="paint5_linear_138_252" x1="0.00537121" y1="49.1312" x2="84.9168" y2="48.9664" gradientUnits="userSpaceOnUse">
<stop stop-color="#28B750"/>
<stop offset="1" stop-color="#A6D554"/>
</linearGradient>
<linearGradient id="paint6_linear_138_252" x1="0.00537121" y1="49.1312" x2="84.9168" y2="48.9664" gradientUnits="userSpaceOnUse">
<stop stop-color="#28B750"/>
<stop offset="1" stop-color="#A6D554"/>
</linearGradient>
<linearGradient id="paint7_linear_138_252" x1="0.00537121" y1="49.1312" x2="84.9168" y2="48.9664" gradientUnits="userSpaceOnUse">
<stop stop-color="#28B750"/>
<stop offset="1" stop-color="#A6D554"/>
</linearGradient>
<linearGradient id="paint8_linear_138_252" x1="0.00537121" y1="49.1312" x2="84.9168" y2="48.9664" gradientUnits="userSpaceOnUse">
<stop stop-color="#28B750"/>
<stop offset="1" stop-color="#A6D554"/>
</linearGradient>
<linearGradient id="paint9_linear_138_252" x1="0.00537121" y1="49.1312" x2="84.9168" y2="48.9664" gradientUnits="userSpaceOnUse">
<stop stop-color="#28B750"/>
<stop offset="1" stop-color="#A6D554"/>
</linearGradient>
<linearGradient id="paint10_linear_138_252" x1="0.00537121" y1="49.1312" x2="84.9168" y2="48.9664" gradientUnits="userSpaceOnUse">
<stop stop-color="#28B750"/>
<stop offset="1" stop-color="#A6D554"/>
</linearGradient>
<linearGradient id="paint11_linear_138_252" x1="0.00537121" y1="49.1312" x2="84.9168" y2="48.9664" gradientUnits="userSpaceOnUse">
<stop stop-color="#28B750"/>
<stop offset="1" stop-color="#A6D554"/>
</linearGradient>
<linearGradient id="paint12_linear_138_252" x1="0.00537121" y1="49.1312" x2="84.9168" y2="48.9664" gradientUnits="userSpaceOnUse">
<stop stop-color="#28B750"/>
<stop offset="1" stop-color="#A6D554"/>
</linearGradient>
<linearGradient id="paint13_linear_138_252" x1="0.00537121" y1="49.1312" x2="84.9168" y2="48.9664" gradientUnits="userSpaceOnUse">
<stop stop-color="#28B750"/>
<stop offset="1" stop-color="#A6D554"/>
</linearGradient>
</defs>
</svg>
