<svg width="90" height="101" viewBox="0 0 90 101" fill="none" xmlns="http://www.w3.org/2000/svg">
<path d="M35.7674 43.3771L35.8113 39.7463V5.83236C36.5814 5.6672 38.3693 5.1223 39.3595 4.26441C40.5972 3.19168 41.7524 2.61415 44.9705 2.53157C47.545 2.46556 55.175 2.50405 58.6682 2.53157C59.4224 2.45613 61.5557 3.02882 64.4377 5.74978H77.9776C82.1702 5.74978 85.5691 9.14869 85.5691 13.3413C85.5691 17.5338 82.1702 20.9327 77.9776 20.9327H77.5049L80.1848 40.0857L80.3093 40.0646L84.636 65.4244C85.6096 71.1309 81.7727 76.5463 76.0661 77.5201C70.3595 78.4937 64.9441 74.6567 63.9704 68.9502L61.4939 54.4342H59.2458L56.3577 47.6678L57.0179 45.6875H59.2458V43.7897H42.5465L35.7674 43.3771ZM35.7674 43.3771L41.724 43.7397C42.8405 43.7397 43.3603 44.2821 43.3603 45.3987C43.3603 46.5153 42.4552 47.4203 41.3386 47.4203H39.9676V64.0325C39.9676 67.3313 37.2935 70.0054 33.9947 70.0054C30.696 70.0054 28.0218 67.3313 28.0218 64.0325V47.4203H26.6508C25.5343 47.4203 24.6292 46.5153 24.6292 45.3987C24.6292 44.2821 25.5343 43.3771 26.6508 43.3771H30.4848V40.2415C26.5656 40.2415 24.9578 37.0643 24.9578 33.1452V14.0014C24.9578 10.0823 28.135 6.16241 32.0542 6.16241H35.7674V43.3771ZM48.5614 32.3729C47.4449 32.3729 46.5398 33.278 46.5398 34.3946C46.5398 35.5111 47.4449 36.4162 48.5614 36.4162H57.0591C58.1756 36.4162 59.0808 35.5111 59.0808 34.3946C59.0808 33.278 58.1756 32.3729 57.0591 32.3729H48.5614ZM46.5398 11.3196C46.5398 10.2031 47.4449 9.29804 48.5614 9.29804H57.0591C58.1756 9.29804 59.0808 10.2031 59.0808 11.3196C59.0808 12.4362 58.1756 13.3413 57.0591 13.3413H48.5614C47.4449 13.3413 46.5398 12.4362 46.5398 11.3196ZM47.8359 17.3021C46.7194 17.3021 45.8143 18.2072 45.8143 19.3237C45.8143 20.4403 46.7194 21.3454 47.8359 21.3454H65.3107C66.4272 21.3454 67.3324 20.4403 67.3324 19.3237C67.3324 18.2072 66.4272 17.3021 65.3107 17.3021H47.8359ZM45.8143 26.7029C45.8143 25.5863 46.7194 24.6813 47.8359 24.6813H65.3107C66.4272 24.6813 67.3324 25.5863 67.3324 26.7029C67.3324 27.8195 66.4272 28.7245 65.3107 28.7245H47.8359C46.7194 28.7245 45.8143 27.8195 45.8143 26.7029ZM10.7435 24.9759H3.99021C2.87369 24.9759 1.96857 24.0709 1.96857 22.9543C1.96857 21.8378 2.87368 20.9327 3.99021 20.9327H10.7603C11.7121 16.3622 15.7629 12.9286 20.6158 12.9286H24.824V33.0626H20.6158C15.7338 33.0626 11.6635 29.5873 10.7435 24.9759Z" stroke="url(#paint0_linear_145_4)" stroke-width="3"/>
<path fill-rule="evenodd" clip-rule="evenodd" d="M18.1048 86.8301L14.6988 79.9287L11.2928 86.8301L3.6767 87.9367L9.18775 93.3087L7.88677 100.894L14.6988 97.3127L21.5108 100.894L20.2099 93.3087L25.7209 87.9367L18.1048 86.8301ZM19.274 90.0315L16.1126 89.5721L14.6988 86.7074L13.285 89.5721L10.1236 90.0315L12.4112 92.2613L11.8712 95.4099L14.6988 93.9234L17.5264 95.4099L16.9864 92.2613L19.274 90.0315Z" fill="url(#paint1_linear_145_4)"/>
<path fill-rule="evenodd" clip-rule="evenodd" d="M34.4611 86.8301L31.0551 79.9287L27.6491 86.8301L20.033 87.9367L25.5441 93.3087L24.2431 100.894L31.0551 97.3127L37.8672 100.894L36.5662 93.3087L42.0772 87.9367L34.4611 86.8301ZM35.6303 90.0315L32.4689 89.5721L31.0551 86.7074L29.6413 89.5721L26.4799 90.0315L28.7675 92.2613L28.2275 95.4099L31.0551 93.9234L33.8828 95.4099L33.3427 92.2613L35.6303 90.0315Z" fill="url(#paint2_linear_145_4)"/>
<path fill-rule="evenodd" clip-rule="evenodd" d="M50.3783 86.8301L46.9723 79.9287L43.5663 86.8301L35.9502 87.9367L41.4613 93.3087L40.1603 100.894L46.9723 97.3127L53.7844 100.894L52.4834 93.3087L57.9944 87.9367L50.3783 86.8301ZM51.5476 90.0315L48.3861 89.5721L46.9723 86.7074L45.5585 89.5721L42.3971 90.0315L44.6847 92.2613L44.1447 95.4099L46.9723 93.9234L49.8 95.4099L49.2599 92.2613L51.5476 90.0315Z" fill="url(#paint3_linear_145_4)"/>
<path fill-rule="evenodd" clip-rule="evenodd" d="M66.228 86.8301L62.822 79.9287L59.416 86.8301L51.7999 87.9367L57.3109 93.3087L56.0099 100.894L62.822 97.3127L69.634 100.894L68.333 93.3087L73.8441 87.9367L66.228 86.8301ZM67.3972 90.0315L64.2358 89.5721L62.822 86.7074L61.4081 89.5721L58.2467 90.0315L60.5344 92.2613L59.9943 95.4099L62.822 93.9234L65.6496 95.4099L65.1096 92.2613L67.3972 90.0315Z" fill="url(#paint4_linear_145_4)"/>
<path fill-rule="evenodd" clip-rule="evenodd" d="M81.4436 86.8301L78.0376 79.9287L74.6316 86.8301L67.0155 87.9367L72.5266 93.3087L71.2256 100.894L78.0376 97.3127L84.8496 100.894L83.5487 93.3087L89.0597 87.9367L81.4436 86.8301ZM82.6128 90.0315L79.4514 89.5721L78.0376 86.7074L76.6238 89.5721L73.4624 90.0315L75.75 92.2613L75.21 95.4099L78.0376 93.9234L80.8652 95.4099L80.3252 92.2613L82.6128 90.0315Z" fill="url(#paint5_linear_145_4)"/>
<defs>
<linearGradient id="paint0_linear_145_4" x1="1.96857" y1="46.8854" x2="85.5829" y2="46.7104" gradientUnits="userSpaceOnUse">
<stop stop-color="#28B750"/>
<stop offset="1" stop-color="#A6D554"/>
</linearGradient>
<linearGradient id="paint1_linear_145_4" x1="3.6767" y1="92.3084" x2="89.0692" y2="91.6538" gradientUnits="userSpaceOnUse">
<stop stop-color="#28B750"/>
<stop offset="1" stop-color="#A6D554"/>
</linearGradient>
<linearGradient id="paint2_linear_145_4" x1="3.6767" y1="92.3084" x2="89.0692" y2="91.6538" gradientUnits="userSpaceOnUse">
<stop stop-color="#28B750"/>
<stop offset="1" stop-color="#A6D554"/>
</linearGradient>
<linearGradient id="paint3_linear_145_4" x1="3.6767" y1="92.3084" x2="89.0692" y2="91.6538" gradientUnits="userSpaceOnUse">
<stop stop-color="#28B750"/>
<stop offset="1" stop-color="#A6D554"/>
</linearGradient>
<linearGradient id="paint4_linear_145_4" x1="3.6767" y1="92.3084" x2="89.0692" y2="91.6538" gradientUnits="userSpaceOnUse">
<stop stop-color="#28B750"/>
<stop offset="1" stop-color="#A6D554"/>
</linearGradient>
<linearGradient id="paint5_linear_145_4" x1="3.6767" y1="92.3084" x2="89.0692" y2="91.6538" gradientUnits="userSpaceOnUse">
<stop stop-color="#28B750"/>
<stop offset="1" stop-color="#A6D554"/>
</linearGradient>
</defs>
</svg>
