<svg width="104" height="62" viewBox="0 0 104 62" fill="none" xmlns="http://www.w3.org/2000/svg">
<path d="M24.0731 10.7524C24.0731 9.92401 24.7447 9.25244 25.5731 9.25244L37.4575 9.25244C38.2859 9.25244 38.9575 9.92401 38.9575 10.7524C38.9575 11.5809 38.2859 12.2524 37.4575 12.2524L25.5731 12.2524C24.7447 12.2524 24.0731 11.5809 24.0731 10.7524Z" fill="url(#paint0_linear_126_314)"/>
<path fill-rule="evenodd" clip-rule="evenodd" d="M40.1494 52.7524C40.1494 55.5139 37.9108 57.7524 35.1494 57.7524C32.388 57.7524 30.1494 55.5139 30.1494 52.7524C30.1494 49.991 32.388 47.7524 35.1494 47.7524C37.9108 47.7524 40.1494 49.991 40.1494 52.7524ZM37.1494 52.7524C37.1494 53.857 36.254 54.7524 35.1494 54.7524C34.0448 54.7524 33.1494 53.857 33.1494 52.7524C33.1494 51.6479 34.0448 50.7524 35.1494 50.7524C36.254 50.7524 37.1494 51.6479 37.1494 52.7524Z" fill="url(#paint1_linear_126_314)"/>
<path fill-rule="evenodd" clip-rule="evenodd" d="M92.1494 52.7524C92.1494 55.5139 89.9108 57.7524 87.1494 57.7524C84.388 57.7524 82.1494 55.5139 82.1494 52.7524C82.1494 49.991 84.388 47.7524 87.1494 47.7524C89.9108 47.7524 92.1494 49.991 92.1494 52.7524ZM89.1494 52.7524C89.1494 53.857 88.254 54.7524 87.1494 54.7524C86.0448 54.7524 85.1494 53.857 85.1494 52.7524C85.1494 51.6479 86.0448 50.7524 87.1494 50.7524C88.254 50.7524 89.1494 51.6479 89.1494 52.7524Z" fill="url(#paint2_linear_126_314)"/>
<path fill-rule="evenodd" clip-rule="evenodd" d="M16.1494 26.0103V52.7524H26.1494C26.1494 57.723 30.1789 61.7524 35.1494 61.7524C40.12 61.7524 44.1494 57.723 44.1494 52.7524H70.6494V52.8016H78.1495C78.1757 57.7499 82.195 61.7524 87.1494 61.7524C92.1038 61.7524 96.1232 57.7492 96.1493 52.8009L103.649 52.8016V38.6177H103.724L103.649 38.4869V36.3275L92.5334 16.2524H73.1494V4.75244C73.1494 2.5433 71.3586 0.752441 69.1494 0.752441H20.1494C17.9403 0.752441 16.1494 2.5433 16.1494 4.75244V9.25244L2.14941 9.25244C1.32099 9.25244 0.649414 9.92401 0.649414 10.7524C0.649414 11.5809 1.32099 12.2524 2.14941 12.2524L16.1494 12.2524V16.2524L10.1494 16.2524C9.32099 16.2524 8.64941 16.924 8.64941 17.7524C8.64941 18.5809 9.32099 19.2524 10.1494 19.2524H16.1494V23.0103L5.64227 23.0103C4.81385 23.0103 4.14227 23.6818 4.14227 24.5103C4.14227 25.3387 4.81385 26.0103 5.64227 26.0103L16.1494 26.0103ZM69.1494 3.75244H20.1494C19.5971 3.75244 19.1494 4.20016 19.1494 4.75244V9.25244H20.1494C20.9778 9.25244 21.6494 9.92401 21.6494 10.7524C21.6494 11.5809 20.9778 12.2524 20.1494 12.2524H19.1494V16.2524L28.1494 16.2524C28.9778 16.2524 29.6494 16.924 29.6494 17.7524C29.6494 18.5809 28.9778 19.2524 28.1494 19.2524L19.1494 19.2524V23.0103H23.6423C24.4707 23.0103 25.1423 23.6818 25.1423 24.5103C25.1423 25.3387 24.4707 26.0103 23.6423 26.0103H19.1494V40.7524H70.1494V4.75244C70.1494 4.20016 69.7017 3.75244 69.1494 3.75244ZM100.649 49.8016H95.6545C94.433 46.2804 91.0864 43.7524 87.1494 43.7524C83.2124 43.7524 79.8658 46.2804 78.6443 49.8016H73.6494V19.2524H90.7654L91.5214 20.6177H81.6494V38.6177H100.649V49.8016ZM70.1494 49.7524H43.6373C42.4018 46.2569 39.0681 43.7524 35.1494 43.7524H70.1494V49.7524ZM35.1494 43.7524C31.2308 43.7524 27.897 46.2569 26.6615 49.7524H19.1494V43.7524H35.1494ZM35.1494 58.7524C38.4631 58.7524 41.1494 56.0662 41.1494 52.7524C41.1494 49.4387 38.4631 46.7524 35.1494 46.7524C31.8357 46.7524 29.1494 49.4387 29.1494 52.7524C29.1494 56.0662 31.8357 58.7524 35.1494 58.7524ZM84.6494 23.6177V35.6177H98.5753L91.7753 23.6177H84.6494ZM87.1494 58.7524C90.4631 58.7524 93.1494 56.0662 93.1494 52.7524C93.1494 49.4387 90.4631 46.7524 87.1494 46.7524C83.8357 46.7524 81.1494 49.4387 81.1494 52.7524C81.1494 56.0662 83.8357 58.7524 87.1494 58.7524Z" fill="url(#paint3_linear_126_314)"/>
<defs>
<linearGradient id="paint0_linear_126_314" x1="0.649414" y1="36.772" x2="103.74" y2="36.4441" gradientUnits="userSpaceOnUse">
<stop stop-color="#28B750"/>
<stop offset="1" stop-color="#A6D554"/>
</linearGradient>
<linearGradient id="paint1_linear_126_314" x1="0.649414" y1="36.772" x2="103.74" y2="36.4441" gradientUnits="userSpaceOnUse">
<stop stop-color="#28B750"/>
<stop offset="1" stop-color="#A6D554"/>
</linearGradient>
<linearGradient id="paint2_linear_126_314" x1="0.649414" y1="36.772" x2="103.74" y2="36.4441" gradientUnits="userSpaceOnUse">
<stop stop-color="#28B750"/>
<stop offset="1" stop-color="#A6D554"/>
</linearGradient>
<linearGradient id="paint3_linear_126_314" x1="0.649414" y1="36.772" x2="103.74" y2="36.4441" gradientUnits="userSpaceOnUse">
<stop stop-color="#28B750"/>
<stop offset="1" stop-color="#A6D554"/>
</linearGradient>
</defs>
</svg>
