<svg width="34" height="34" viewBox="0 0 34 34" fill="none" xmlns="http://www.w3.org/2000/svg">
<path d="M2.53263 29.7586L1.95952 31.8718L4.0774 31.3164L10.8921 29.5292C12.9543 30.5264 15.2016 31.0715 17.5449 31.0715C25.8055 31.0715 32.5056 24.4011 32.5056 16.1584V16.1412L32.5051 16.1241C32.4013 12.2968 30.946 8.54334 28.111 5.7182C25.2895 2.90657 21.5212 1.34071 17.5449 1.34071C9.28425 1.34071 2.5842 8.01117 2.5842 16.2538C2.5842 18.685 3.21715 21.1043 4.31397 23.1906L2.53263 29.7586ZM21.6752 21.4879L21.6608 21.49L21.6463 21.4924C21.2489 21.5584 20.6905 21.5633 20.1284 21.4352C19.9424 21.3631 19.77 21.3022 19.5998 21.2421C19.2272 21.1104 18.8656 20.9827 18.3974 20.7494L18.3584 20.73L18.3182 20.7133C17.8586 20.5225 17.4225 20.2898 17.0126 20.0312C17.467 20.2899 17.8282 20.4524 18.0504 20.5524C18.1244 20.5857 18.183 20.612 18.2245 20.6327C18.5557 20.7977 18.9956 20.9357 19.4923 20.8367C19.9802 20.7395 20.2949 20.4556 20.4504 20.3006C20.5875 20.1641 20.8325 19.8902 21.062 19.6107C21.1466 19.5077 21.2466 19.383 21.3469 19.2489C21.5283 19.3349 21.7424 19.4393 21.959 19.5472C22.2042 19.6694 22.4466 19.7931 22.6424 19.8963C22.7405 19.9481 22.8231 19.9926 22.8865 20.028C22.9365 20.0559 22.9621 20.0711 22.9704 20.0761C22.9741 20.0783 22.9744 20.0785 22.9721 20.077L23.0376 20.1204L23.1067 20.1549C23.0823 20.3035 23.0393 20.4767 22.9697 20.6638C22.9673 20.667 22.9414 20.7131 22.8602 20.7961C22.7614 20.8971 22.6214 21.0109 22.4517 21.1221C22.2838 21.2322 22.1087 21.3255 21.9529 21.3927C21.8758 21.426 21.8097 21.4502 21.7573 21.4665C21.7314 21.4746 21.711 21.48 21.696 21.4835C21.682 21.4869 21.6752 21.4879 21.6752 21.4879ZM13.825 13.183C13.8374 13.2114 13.8499 13.2398 13.8624 13.2677C13.7093 13.4218 13.5752 13.592 13.4935 13.6967C13.4732 13.7226 13.4569 13.7437 13.4427 13.762C13.4207 13.7903 13.4039 13.812 13.3857 13.8349C13.3814 13.8403 13.3779 13.8447 13.3749 13.8483C13.2931 13.9278 13.04 14.1776 12.8922 14.509C12.7941 14.7291 12.7276 15.0059 12.7584 15.3202C12.7777 15.5172 12.8319 15.6951 12.9047 15.8521L12.8856 15.8332C12.8894 15.8369 12.8851 15.8314 12.8742 15.8174C12.8167 15.7433 12.5737 15.4304 12.3253 14.9531C12.0368 14.3987 11.8221 13.7729 11.8221 13.2003C11.8221 12.5703 11.9759 12.1602 12.1299 11.8826C12.2553 11.6564 12.346 11.55 12.4651 11.4103C12.5114 11.356 12.562 11.2967 12.6206 11.2233C12.6326 11.2233 12.6459 11.2233 12.6613 11.2233H12.6624H12.6635H12.6647H12.6658H12.6669H12.668H12.6692H12.6703H12.6715H12.6726H12.6737H12.6749H12.676H12.6772H12.6783H12.6795H12.6807H12.6818H12.683H12.6841H12.6853H12.6865H12.6876H12.6888H12.69H12.6912H12.6923H12.6935H12.6947H12.6959H12.6971H12.6983H12.6994H12.7006H12.7018H12.703H12.7042H12.7054H12.7066H12.7078H12.709H12.7102H12.7114H12.7126H12.7139H12.7151H12.7163H12.7175H12.7187H12.7199H12.7212H12.7224H12.7236H12.7248H12.7261H12.7273H12.7285H12.7298H12.731H12.7322H12.7335H12.7347H12.736H12.7372H12.7385H12.7397H12.7409H12.7422H12.7435H12.7447H12.746H12.7472H12.7485H12.7497H12.751H12.7523H12.7535H12.7548H12.7561H12.7573H12.7586H12.7599H12.7611H12.7624H12.7637H12.765H12.7663H12.7675H12.7688H12.7701H12.7714H12.7727H12.774H12.7753H12.7765H12.7778H12.7791H12.7804H12.7817H12.783H12.7843H12.7856H12.7869H12.7882H12.7895H12.7908H12.7921H12.7935H12.7948H12.7961H12.7974H12.7987H12.8H12.8013H12.8026H12.804H12.8053H12.8066H12.8079H12.8092H12.8106H12.8119H12.8132H12.8146H12.8159H12.8172H12.8185H12.8199H12.8212H12.8225H12.8239H12.8252H12.8265H12.8279H12.8292H12.8306H12.8319H12.8333H12.8346H12.8359H12.8373H12.8386H12.84H12.8413H12.8427H12.844H12.8454H12.8467H12.8481H12.8494H12.8508H12.8521H12.8535H12.8549H12.8562H12.8576H12.8589H12.8603H12.8617H12.863H12.8644H12.8658H12.8671H12.8685H12.8699H12.8712H12.8726H12.874H12.8753H12.8767H12.8781H12.8794H12.8808H12.8822H12.8836H12.8849H12.8863H12.8877H12.8891H12.8904H12.8918H12.8932H12.8946H12.896H12.8973H12.8987H12.9001H12.9015H12.9029H12.9043H12.9056H12.907H12.9084H12.9098H12.9112H12.9126H12.914H12.9153H12.9167H12.9181H12.9195H12.9209H12.9223H12.9237H12.9251H12.9265H12.9279H12.9293H12.9306H12.932H12.9334H12.9348H12.9362H12.9376H12.939H12.9404H12.9418H12.9432H12.9446H12.946H12.9474H12.9488H12.9502H12.9516H12.953H12.9544H12.9558H12.9572H12.9586H12.96H12.9614H12.9628H12.9642H12.9656H12.967H12.9684H12.9698H12.9712H12.9726H12.974H12.9754H12.9768H12.9782H12.9796H12.981H12.9824H12.9838H12.9852H12.9866H12.988H12.9894H12.9908H12.9922H12.9936H12.995H12.9964H12.9978H12.9992H13.0006H13.002H13.0034H13.0048H13.0062H13.0076H13.009H13.0104H13.0119H13.0133H13.0147H13.0153C13.0981 11.4216 13.1987 11.6687 13.3057 11.9314C13.3767 12.1056 13.4505 12.2867 13.5236 12.4649C13.6317 12.7281 13.738 12.984 13.825 13.183ZM12.8903 10.9422C12.8904 10.9421 12.8914 10.9436 12.8934 10.9469C12.8913 10.9439 12.8903 10.9423 12.8903 10.9422ZM23.1279 19.7557C23.1277 19.7546 23.1276 19.754 23.1276 19.754L23.1279 19.7557Z" stroke="#28B750" stroke-width="2.5349"/>
</svg>
