<svg width="35" height="38" viewBox="0 0 35 38" fill="none" xmlns="http://www.w3.org/2000/svg">
<path d="M24.9427 1.71143H17.5604V24.7861C17.5311 24.7861 17.5604 25.8149 16.7916 26.9655C16.3605 27.6107 15.7478 28.1135 15.031 28.4104C14.3142 28.7073 13.5254 28.785 12.7644 28.6336C12.0035 28.4823 11.3045 28.1086 10.7559 27.56C10.2072 27.0114 9.8336 26.3124 9.68222 25.5514C9.53085 24.7904 9.60855 24.0017 9.90545 23.2848C10.2024 22.568 10.7052 21.9553 11.3503 21.5243C11.9954 21.0932 12.7539 20.8632 13.5298 20.8632V13.3731C11.2725 13.3731 9.06592 14.0425 7.18907 15.2965C5.31223 16.5506 3.84939 18.3331 2.98559 20.4185C2.12176 22.504 1.89576 24.7987 2.33611 27.0126C2.7765 29.2265 3.86346 31.2601 5.45961 32.8562C7.05573 34.4524 9.08931 35.5394 11.3032 35.9797C13.5171 36.4201 15.8119 36.1941 17.8973 35.3303C19.9827 34.4664 21.7652 33.0036 23.0193 31.1268C24.2369 29.3045 24.9033 27.1715 24.941 24.983H24.9427V14.6564C27.5118 16.2816 30.5243 17.1258 33.6078 17.0461L33.4149 9.58363C31.2949 9.63842 29.24 8.84883 27.7022 7.38851C26.1643 5.92818 25.2696 3.91678 25.2148 1.79678L24.9427 1.80382V1.71143Z" stroke="#28B750" stroke-width="2.5349"/>
</svg>
