<svg width="32" height="32" viewBox="0 0 32 32" fill="none" xmlns="http://www.w3.org/2000/svg">
<path fill-rule="evenodd" clip-rule="evenodd" d="M4.4051 6.95641C4.4051 6.62045 4.52735 6.31304 4.72979 6.07625C4.97835 5.7855 5.3478 5.60121 5.7603 5.60121H15.8647C16.2772 5.60121 16.6467 5.78551 16.8952 6.07626C17.0976 6.31305 17.2199 6.62045 17.2199 6.95641V24.901C17.2199 25.237 17.0976 25.5444 16.8952 25.7812C16.6467 26.0719 16.2772 26.2562 15.8647 26.2562H5.7603C5.3478 26.2562 4.97835 26.0719 4.72979 25.7812C4.52735 25.5444 4.4051 25.237 4.4051 24.901V6.95641ZM6.4379 24.2234V7.634H15.1871V24.2234H6.4379Z" fill="#28B750"/>
<path fill-rule="evenodd" clip-rule="evenodd" d="M4.05219 0.81543C2.18106 0.81543 0.6642 2.33229 0.6642 4.20342V27.6543C0.6642 29.5255 2.18106 31.0423 4.05219 31.0423H17.5728C19.4439 31.0423 20.9608 29.5255 20.9608 27.6543V4.20342C20.9608 2.33228 19.4439 0.81543 17.5728 0.81543H4.05219ZM17.5728 2.84822C18.3213 2.84822 18.928 3.45497 18.928 4.20342V27.6543C18.928 28.4028 18.3213 29.0095 17.5728 29.0095H4.05219C3.30374 29.0095 2.697 28.4028 2.697 27.6543V4.20342C2.697 3.45497 3.30374 2.84822 4.05219 2.84822H17.5728Z" fill="#28B750"/>
<path d="M22.648 18.4653C22.1784 18.7728 22.047 19.4028 22.3545 19.8724C22.662 20.342 23.292 20.4734 23.7616 20.1659C24.9981 19.3562 25.8185 17.9556 25.8185 16.3629C25.8185 14.7702 24.9981 13.3696 23.7616 12.5598C23.292 12.2523 22.662 12.3837 22.3545 12.8533C22.047 13.3229 22.1784 13.9529 22.648 14.2604C23.3352 14.7105 23.7857 15.4844 23.7857 16.3629C23.7857 17.2414 23.3352 18.0152 22.648 18.4653Z" fill="#28B750"/>
<path d="M23.6757 23.0937C23.3682 22.6241 23.4996 21.9941 23.9692 21.6866C25.7057 20.5493 26.8493 18.5894 26.8493 16.363C26.8493 14.1365 25.7057 12.1766 23.9692 11.0394C23.4996 10.7319 23.3682 10.1019 23.6757 9.63227C23.9832 9.16266 24.6132 9.03128 25.0828 9.33881C27.3686 10.8357 28.8821 13.4223 28.8821 16.363C28.8821 19.3036 27.3686 21.8903 25.0828 23.3871C24.6132 23.6947 23.9832 23.5633 23.6757 23.0937Z" fill="#28B750"/>
<path d="M25.1596 25.2499C24.69 25.5574 24.5586 26.1874 24.8662 26.657C25.1737 27.1266 25.8037 27.258 26.2733 26.9505C29.7197 24.6935 32 20.7949 32 16.3633C32 11.9316 29.7197 8.03306 26.2733 5.77608C25.8037 5.46855 25.1737 5.59994 24.8662 6.06954C24.5586 6.53914 24.69 7.16914 25.1596 7.47667C28.0569 9.374 29.9672 12.6458 29.9672 16.3633C29.9672 20.0807 28.0569 23.3526 25.1596 25.2499Z" fill="#28B750"/>
</svg>
