<svg width="47" height="46" viewBox="0 0 47 46" fill="none" xmlns="http://www.w3.org/2000/svg">
<path fill-rule="evenodd" clip-rule="evenodd" d="M5.52083 9.84508C5.52083 9.34928 5.70124 8.89561 6 8.54614C6.36683 8.11706 6.91206 7.84508 7.52083 7.84508H22.4329C23.0417 7.84508 23.5869 8.11707 23.9537 8.54616C24.2525 8.89562 24.4329 9.34928 24.4329 9.84508V36.3277C24.4329 36.8235 24.2525 37.2772 23.9537 37.6267C23.5869 38.0558 23.0417 38.3277 22.4329 38.3277H7.52083C6.91206 38.3277 6.36683 38.0558 6 37.6267C5.70124 37.2772 5.52083 36.8235 5.52083 36.3277V9.84508ZM8.52083 35.3277V10.8451H21.4329V35.3277H8.52083Z" fill="url(#paint0_linear_138_258)"/>
<path fill-rule="evenodd" clip-rule="evenodd" d="M5 0.782227C2.23858 0.782227 0 3.0208 0 5.78223V40.3911C0 43.1525 2.23858 45.3911 5 45.3911H24.9537C27.7152 45.3911 29.9537 43.1525 29.9537 40.3911V5.78223C29.9537 3.0208 27.7152 0.782227 24.9537 0.782227H5ZM24.9537 3.78223C26.0583 3.78223 26.9537 4.67766 26.9537 5.78223V40.3911C26.9537 41.4957 26.0583 42.3911 24.9537 42.3911H5C3.89543 42.3911 3 41.4957 3 40.3911V5.78223C3 4.67766 3.89543 3.78223 5 3.78223H24.9537Z" fill="url(#paint1_linear_138_258)"/>
<path d="M32.4437 26.8299C31.7506 27.2838 31.5567 28.2135 32.0106 28.9066C32.4644 29.5996 33.3942 29.7935 34.0872 29.3397C35.912 28.1447 37.1227 26.0777 37.1227 23.7271C37.1227 21.3766 35.912 19.3096 34.0872 18.1146C33.3942 17.6608 32.4644 17.8547 32.0106 18.5477C31.5567 19.2408 31.7506 20.1705 32.4437 20.6244C33.4579 21.2886 34.1227 22.4306 34.1227 23.7271C34.1227 25.0237 33.4579 26.1657 32.4437 26.8299Z" fill="url(#paint2_linear_138_258)"/>
<path d="M33.9604 33.6605C33.5065 32.9674 33.7004 32.0377 34.3935 31.5838C36.9563 29.9055 38.644 27.0131 38.644 23.7273C38.644 20.4415 36.9563 17.5491 34.3935 15.8708C33.7004 15.4169 33.5065 14.4872 33.9604 13.7941C34.4142 13.1011 35.344 12.9072 36.037 13.361C39.4104 15.5701 41.644 19.3875 41.644 23.7273C41.644 28.0671 39.4104 31.8845 36.037 34.0936C35.344 34.5474 34.4142 34.3535 33.9604 33.6605Z" fill="url(#paint3_linear_138_258)"/>
<path d="M36.1504 36.8426C35.4573 37.2965 35.2634 38.2262 35.7173 38.9193C36.1711 39.6123 37.1009 39.8062 37.7939 39.3523C42.8802 36.0215 46.2453 30.268 46.2453 23.7278C46.2453 17.1875 42.8802 11.434 37.7939 8.10316C37.1009 7.6493 36.1711 7.8432 35.7173 8.53625C35.2634 9.22929 35.4573 10.159 36.1504 10.6129C40.4261 13.413 43.2453 18.2415 43.2453 23.7278C43.2453 29.214 40.4261 34.0425 36.1504 36.8426Z" fill="url(#paint4_linear_138_258)"/>
<defs>
<linearGradient id="paint0_linear_138_258" x1="6.38744e-08" y1="27.1231" x2="46.253" y2="27.0328" gradientUnits="userSpaceOnUse">
<stop stop-color="#28B750"/>
<stop offset="1" stop-color="#A6D554"/>
</linearGradient>
<linearGradient id="paint1_linear_138_258" x1="6.38744e-08" y1="27.1231" x2="46.253" y2="27.0328" gradientUnits="userSpaceOnUse">
<stop stop-color="#28B750"/>
<stop offset="1" stop-color="#A6D554"/>
</linearGradient>
<linearGradient id="paint2_linear_138_258" x1="6.38744e-08" y1="27.1231" x2="46.253" y2="27.0328" gradientUnits="userSpaceOnUse">
<stop stop-color="#28B750"/>
<stop offset="1" stop-color="#A6D554"/>
</linearGradient>
<linearGradient id="paint3_linear_138_258" x1="6.38744e-08" y1="27.1231" x2="46.253" y2="27.0328" gradientUnits="userSpaceOnUse">
<stop stop-color="#28B750"/>
<stop offset="1" stop-color="#A6D554"/>
</linearGradient>
<linearGradient id="paint4_linear_138_258" x1="6.38744e-08" y1="27.1231" x2="46.253" y2="27.0328" gradientUnits="userSpaceOnUse">
<stop stop-color="#28B750"/>
<stop offset="1" stop-color="#A6D554"/>
</linearGradient>
</defs>
</svg>
