<svg width="53" height="45" viewBox="0 0 53 45" fill="none" xmlns="http://www.w3.org/2000/svg">
<path d="M19.9017 20.8345C19.0732 20.8345 18.4017 21.506 18.4017 22.3345C18.4017 23.1629 19.0732 23.8345 19.9017 23.8345H44.6307C45.4591 23.8345 46.1307 23.1629 46.1307 22.3345C46.1307 21.506 45.4591 20.8345 44.6307 20.8345H19.9017Z" fill="url(#paint0_linear_138_276)"/>
<path d="M9.12946 22.3345C9.12946 21.506 9.80103 20.8345 10.6295 20.8345H15.6586C16.487 20.8345 17.1586 21.506 17.1586 22.3345C17.1586 23.1629 16.487 23.8345 15.6586 23.8345H10.6295C9.80103 23.8345 9.12946 23.1629 9.12946 22.3345Z" fill="url(#paint1_linear_138_276)"/>
<path d="M9.12946 27.5962C9.12946 26.7678 9.80103 26.0962 10.6295 26.0962H15.6586C16.487 26.0962 17.1586 26.7678 17.1586 27.5962C17.1586 28.4246 16.487 29.0962 15.6586 29.0962H10.6295C9.80103 29.0962 9.12946 28.4246 9.12946 27.5962Z" fill="url(#paint2_linear_138_276)"/>
<path d="M19.9017 7.15479C19.0732 7.15479 18.4017 7.82636 18.4017 8.65479C18.4017 9.48321 19.0732 10.1548 19.9017 10.1548H31.509C32.3374 10.1548 33.009 9.48321 33.009 8.65479C33.009 7.82636 32.3374 7.15479 31.509 7.15479H19.9017Z" fill="url(#paint3_linear_138_276)"/>
<path d="M18.4017 13.9653C18.4017 13.1369 19.0732 12.4653 19.9017 12.4653H39.2473C40.0757 12.4653 40.7473 13.1369 40.7473 13.9653C40.7473 14.7938 40.0757 15.4653 39.2473 15.4653H19.9017C19.0732 15.4653 18.4017 14.7938 18.4017 13.9653Z" fill="url(#paint4_linear_138_276)"/>
<path fill-rule="evenodd" clip-rule="evenodd" d="M37.5663 37.2645C39.8679 37.2645 41.7337 35.3987 41.7337 33.0971C41.7337 30.7955 39.8679 28.9297 37.5663 28.9297C35.2647 28.9297 33.3989 30.7955 33.3989 33.0971C33.3989 35.3987 35.2647 37.2645 37.5663 37.2645ZM37.5663 34.2645C38.211 34.2645 38.7337 33.7418 38.7337 33.0971C38.7337 32.4524 38.211 31.9297 37.5663 31.9297C36.9215 31.9297 36.3989 32.4524 36.3989 33.0971C36.3989 33.7418 36.9215 34.2645 37.5663 34.2645Z" fill="url(#paint5_linear_138_276)"/>
<path fill-rule="evenodd" clip-rule="evenodd" d="M44.4011 1.30569L52.3664 7.96297V43.5769C52.3664 44.1292 51.9186 44.5769 51.3664 44.5769H1.92517C1.37289 44.5769 0.925171 44.1292 0.925171 43.5769V1.09228C0.925171 0.539998 1.37289 0.0922852 1.92517 0.0922852H42.9493L44.1557 1.10059H44.4011V1.30569ZM3.92517 41.5769V3.09229H41.4011V9.05917C41.4011 9.8876 42.0727 10.5592 42.9011 10.5592H49.3664V41.5769H39.5386C43.3955 40.6833 46.2701 37.2261 46.2701 33.0974C46.2701 28.2904 42.3732 24.3936 37.5662 24.3936C35.8041 24.3936 34.1643 24.9172 32.7939 25.8174H19.9017C19.0732 25.8174 18.4017 26.489 18.4017 27.3174C18.4017 28.1458 19.0732 28.8174 19.9017 28.8174H29.9857C29.2705 30.0812 28.8624 31.5417 28.8624 33.0974C28.8624 37.2261 31.737 40.6833 35.5939 41.5769H3.92517ZM47.2052 7.55917L44.4011 5.21554V7.55917H47.2052ZM43.2701 33.0974C43.2701 36.2476 40.7164 38.8013 37.5662 38.8013C34.4161 38.8013 31.8624 36.2476 31.8624 33.0974C31.8624 29.9473 34.4161 27.3936 37.5662 27.3936C40.7164 27.3936 43.2701 29.9473 43.2701 33.0974Z" fill="url(#paint6_linear_138_276)"/>
<defs>
<linearGradient id="paint0_linear_138_276" x1="0.925171" y1="26.3598" x2="52.3749" y2="26.2478" gradientUnits="userSpaceOnUse">
<stop stop-color="#28B750"/>
<stop offset="1" stop-color="#A6D554"/>
</linearGradient>
<linearGradient id="paint1_linear_138_276" x1="0.925171" y1="26.3598" x2="52.3749" y2="26.2478" gradientUnits="userSpaceOnUse">
<stop stop-color="#28B750"/>
<stop offset="1" stop-color="#A6D554"/>
</linearGradient>
<linearGradient id="paint2_linear_138_276" x1="0.925171" y1="26.3598" x2="52.3749" y2="26.2478" gradientUnits="userSpaceOnUse">
<stop stop-color="#28B750"/>
<stop offset="1" stop-color="#A6D554"/>
</linearGradient>
<linearGradient id="paint3_linear_138_276" x1="0.925171" y1="26.3598" x2="52.3749" y2="26.2478" gradientUnits="userSpaceOnUse">
<stop stop-color="#28B750"/>
<stop offset="1" stop-color="#A6D554"/>
</linearGradient>
<linearGradient id="paint4_linear_138_276" x1="0.925171" y1="26.3598" x2="52.3749" y2="26.2478" gradientUnits="userSpaceOnUse">
<stop stop-color="#28B750"/>
<stop offset="1" stop-color="#A6D554"/>
</linearGradient>
<linearGradient id="paint5_linear_138_276" x1="0.925171" y1="26.3598" x2="52.3749" y2="26.2478" gradientUnits="userSpaceOnUse">
<stop stop-color="#28B750"/>
<stop offset="1" stop-color="#A6D554"/>
</linearGradient>
<linearGradient id="paint6_linear_138_276" x1="0.925171" y1="26.3598" x2="52.3749" y2="26.2478" gradientUnits="userSpaceOnUse">
<stop stop-color="#28B750"/>
<stop offset="1" stop-color="#A6D554"/>
</linearGradient>
</defs>
</svg>
