<svg width="48" height="48" viewBox="0 0 48 48" fill="none" xmlns="http://www.w3.org/2000/svg">
<path fill-rule="evenodd" clip-rule="evenodd" d="M24.9693 4.4794C25.5572 4.59545 26.1556 4.76959 26.7141 5.02736C27.879 5.56502 28.7908 6.55279 29.4262 7.41845C30.0785 8.3072 30.5574 9.23063 30.8118 9.84529L31.1236 10.599L30.3498 11.7211L32.5939 13.7334L32.6648 13.6852C34.069 12.7303 35.6634 13.5507 36.6707 14.6588C36.9142 14.9267 37.129 15.1925 37.2943 15.4583C37.4533 15.714 37.6272 16.0649 37.6704 16.4883C37.6774 16.5572 37.6809 16.6241 37.6811 16.6889C38.4812 17.4091 39.4778 18.3088 40.0293 18.8142C41.1016 17.5938 43.0322 15.4218 43.8468 14.6072C43.9466 14.5074 44.011 14.4216 44.0525 14.3534C43.4815 13.8101 42.7794 13.1623 42.1616 12.6326C41.9179 12.4236 41.7007 12.2447 41.5181 12.1022C41.234 12.1808 40.9456 12.2125 40.6769 12.2169C40.039 12.2272 39.3294 12.0864 38.6522 11.8012C38.0446 11.5453 37.6696 11.0835 37.4484 10.6769C37.2302 10.2758 37.1155 9.84891 37.0511 9.48744C36.9849 9.11575 36.9591 8.73783 36.9573 8.39304L34.7645 6.58311L32.6639 7.05745L32.1511 5.96773C32.1568 5.97987 32.1551 5.97782 32.1435 5.96335C32.0959 5.90394 31.8806 5.63508 31.3179 5.27952C30.6632 4.86586 29.614 4.38602 28.04 4.03624C26.9501 3.79404 25.9097 4.01184 24.9693 4.4794ZM27.0278 11.2538L27.6966 10.284C27.5139 9.9476 27.281 9.56592 27.0077 9.19348C26.4925 8.49153 25.9462 7.97706 25.4569 7.75124C24.8699 7.48028 24.0766 7.33166 23.2484 7.28222C22.4342 7.23362 21.7041 7.28729 21.3176 7.34351L17.8818 7.84329L19.8728 4.99893C20.4765 4.13662 21.5875 2.96715 23.0575 2.10512C24.5427 1.23417 26.4997 0.620775 28.6908 1.10768C30.5524 1.52138 31.9332 2.11962 32.9204 2.74339C33.3757 3.03109 33.7724 3.34062 34.096 3.65853L35.5392 3.33264L40.0763 7.07754L39.9821 7.88815C39.9496 8.16743 39.9413 8.60541 40.0047 8.96165C40.016 9.02532 40.0281 9.07714 40.0393 9.11828C40.2676 9.19021 40.4683 9.2171 40.609 9.21738C40.9831 8.92816 41.4069 8.88464 41.6446 8.89478C41.9341 8.90713 42.1636 8.99436 42.2732 9.03998C42.5139 9.14019 42.74 9.28519 42.9062 9.39937C43.2641 9.64525 43.6928 9.99368 44.1143 10.3551C44.9709 11.0895 45.9497 12.009 46.5891 12.6304L46.7848 12.8205L46.9009 13.0674C47.3405 14.0015 47.2138 15.4828 45.9681 16.7285C45.1634 17.5332 43.0098 19.963 42.0069 21.1092L41.9082 21.222L41.7892 21.313C41.4712 21.5562 40.9692 21.82 40.366 21.901C39.7086 21.9894 38.8978 21.8559 38.2137 21.2207C37.6314 20.6799 35.7625 18.9971 34.8919 18.2153L33.783 17.2196L33.1507 18.0253C26.0959 27.0154 11.7136 45.3218 11.0393 46.0861C10.3199 46.9014 9.33977 47.0722 8.67058 47.0761C7.986 47.08 7.34785 46.9177 6.93416 46.7576L6.71887 46.6742L6.53861 46.53C5.83055 45.9636 4.13967 44.6003 3.06459 43.6972C1.26329 42.1842 1.69264 40.0798 2.09534 39.2456L2.18705 39.0556L27.0278 11.2538ZM35.0521 15.8569C35.0521 15.8569 35.0489 15.8598 35.0409 15.8655C35.0478 15.8598 35.0521 15.8569 35.0521 15.8569ZM27.5763 15.1425L4.75789 40.681C4.75718 40.6844 4.75649 40.6878 4.7558 40.6913C4.73974 40.7733 4.73356 40.8615 4.74121 40.9459C4.74863 41.0278 4.76834 41.1004 4.80075 41.166C4.83165 41.2285 4.88605 41.3093 4.99416 41.4001C5.94523 42.199 7.41026 43.3833 8.19863 44.0159C8.22885 44.0235 8.26144 44.031 8.29599 44.038C8.42049 44.0632 8.54444 44.0768 8.65335 44.0761C8.7422 44.0756 8.79579 44.067 8.82434 44.06C8.83323 44.0493 8.84344 44.037 8.85505 44.0228C8.8971 43.9717 8.95275 43.9033 9.02222 43.8172C9.16095 43.6455 9.34872 43.411 9.58129 43.1192C10.0461 42.5361 10.6844 41.7309 11.456 40.755C12.9988 38.8036 15.0708 36.1745 17.3449 33.285C21.5374 27.9579 26.4153 21.7479 29.9278 17.2727L27.5763 15.1425Z" fill="url(#paint0_linear_138_278)"/>
<path fill-rule="evenodd" clip-rule="evenodd" d="M8.24298 5.68727C8.66069 5.95144 9.09356 6.24841 9.47579 6.5721C9.99954 7.01561 10.6677 7.70389 10.8677 8.64651C11.0323 9.42277 10.9097 10.198 10.7116 10.843C10.509 11.5026 10.1936 12.1362 9.84846 12.6854C9.50334 13.2344 9.1002 13.7438 8.69004 14.1453C8.48517 14.3458 8.25805 14.5397 8.01582 14.7C7.79149 14.8484 7.46224 15.0302 7.06303 15.1007C6.36592 15.2237 5.68862 14.9665 5.31826 14.8085C5.04122 14.6903 4.75888 14.5459 4.48772 14.3947C4.89763 14.9655 5.33577 15.4723 5.7694 15.8369C6.27597 16.2629 6.61967 16.3651 6.80235 16.3651H11.9757L17.7608 21.3915L19.533 19.4446C18.2445 18.2674 16.5106 16.7008 15.4814 15.8276C14.4954 14.991 13.8518 14.21 13.4188 13.3169C13.0206 12.4957 12.8415 11.6496 12.6699 10.8394C12.6638 10.8108 12.6578 10.7821 12.6517 10.7536C12.5322 10.1903 12.5113 9.6234 12.4953 9.1896C12.4946 9.17188 12.494 9.15439 12.4933 9.13712C12.4753 8.65355 12.4585 8.29868 12.3905 7.96357C12.2839 7.43782 12.0408 6.85423 10.9685 6.21879C10.2545 5.79572 9.29421 5.63911 8.24298 5.68727ZM2.14047 12.9583L2.14336 12.9588L2.14047 12.9583ZM7.75833 2.71161C9.21123 2.60118 10.9792 2.73798 12.4979 3.63791C14.2886 4.69907 15.0529 5.99764 15.3307 7.36731C15.4519 7.96494 15.4735 8.54692 15.49 8.99211L15.4913 9.0253C15.5096 9.51815 15.5252 9.84247 15.5864 10.1311C15.7802 11.0446 15.8943 11.5462 16.1183 12.0081C16.3215 12.4273 16.6588 12.8922 17.4224 13.5401C18.8497 14.7511 21.5194 17.1897 22.6653 18.2474L23.7598 19.2578L18.0061 25.5788L10.8544 19.3651H6.80235C5.60652 19.3651 4.5922 18.7667 3.83864 18.133C3.06625 17.4836 2.39748 16.6549 1.86315 15.8773C1.32285 15.091 0.881853 14.3008 0.576257 13.6829C0.4237 13.3745 0.297838 13.0948 0.207594 12.868C0.163569 12.7574 0.119773 12.6388 0.0855008 12.5251C0.068884 12.4699 0.0469366 12.3912 0.0298651 12.3013L0.0289218 12.2964C0.0192469 12.2466 -0.0267097 12.0099 0.0220153 11.7261C0.0965714 11.2918 0.297366 10.8647 0.656342 10.5303C1.00627 10.2043 1.41581 10.0503 1.77705 9.99183C2.45875 9.88142 3.11725 10.0774 3.60274 10.3201C3.85047 10.444 4.18919 10.6661 4.4674 10.8485C4.47859 10.8559 4.48969 10.8632 4.50069 10.8704C4.52094 10.8837 4.5413 10.897 4.56176 10.9104C4.87321 11.1147 5.20734 11.3338 5.5459 11.5392C5.91218 11.7615 6.2373 11.939 6.49536 12.0491C6.50638 12.0538 6.51699 12.0582 6.52719 12.0625C6.54725 12.0441 6.56867 12.0238 6.5914 12.0015C6.81085 11.7867 7.07046 11.4676 7.30855 11.0888C7.54661 10.7101 7.73496 10.3165 7.84383 9.96208C7.95122 9.61249 7.95389 9.39173 7.9361 9.28565C7.93179 9.28438 7.86656 9.14052 7.53707 8.8615C7.17963 8.55881 6.69477 8.24807 6.13337 7.91321C6.00901 7.83904 5.87691 7.76147 5.74147 7.68196C5.32194 7.43565 4.87048 7.17058 4.51868 6.92948C4.28202 6.76728 4.006 6.56066 3.77562 6.31531C3.58246 6.10961 3.18157 5.62868 3.18157 4.92835V3.91755L4.11842 3.53807C4.94632 3.20272 6.28785 2.82338 7.75833 2.71161Z" fill="url(#paint1_linear_138_278)"/>
<path fill-rule="evenodd" clip-rule="evenodd" d="M36.8032 41.8039C36.3855 41.5397 35.9527 41.2428 35.5704 40.9191C35.0467 40.4756 34.3785 39.7873 34.1786 38.8447C34.0139 38.0684 34.1365 37.2931 34.3346 36.6481C34.5373 35.9886 34.8526 35.3549 35.1978 34.8058C35.5429 34.2568 35.946 33.7474 36.3562 33.3459C36.561 33.1453 36.7882 32.9515 37.0304 32.7912C37.2547 32.6427 37.584 32.4609 37.9832 32.3905C38.6803 32.2675 39.3576 32.5247 39.728 32.6826C40.005 32.8008 40.2873 32.9452 40.5585 33.0964C40.1486 32.5256 39.7104 32.0189 39.2768 31.6542C38.7702 31.2283 38.4265 31.1261 38.2439 31.1261L33.0705 31.1261L27.3732 26.176L25.7378 28.2742C26.942 29.3673 28.5245 30.7809 29.5648 31.6635C30.5508 32.5002 31.1944 33.2812 31.6274 34.1742C32.0256 34.9955 32.2048 35.8416 32.3763 36.6518C32.3824 36.6804 32.3885 36.709 32.3945 36.7376C32.514 37.3008 32.5349 37.8678 32.5509 38.3016C32.5516 38.3193 32.5522 38.3368 32.5529 38.354C32.5709 38.8376 32.5877 39.1925 32.6557 39.5276C32.7623 40.0533 33.0054 40.6369 34.0777 41.2724C34.7917 41.6954 35.752 41.8521 36.8032 41.8039ZM42.9057 34.5329L42.9029 34.5324L42.9057 34.5329ZM37.2879 44.7796C35.835 44.89 34.067 44.7532 32.5484 43.8533C30.7576 42.7921 29.9933 41.4935 29.7156 40.1239C29.5944 39.5262 29.5727 38.9442 29.5562 38.499L29.555 38.4659C29.5366 37.973 29.521 37.6487 29.4598 37.3601C29.266 36.4466 29.1519 35.945 28.928 35.4831C28.7247 35.0639 28.3874 34.5989 27.6238 33.951C26.2009 32.7437 23.84 30.6139 22.685 29.5478L21.671 28.6118L26.9523 21.8361L34.1918 28.1261H38.2439C39.4397 28.1261 40.454 28.7245 41.2076 29.3581C41.98 30.0076 42.6487 30.8363 43.1831 31.6139C43.7234 32.4002 44.1644 33.1904 44.47 33.8083C44.6225 34.1167 44.7484 34.3964 44.8386 34.6232C44.8826 34.7338 44.9264 34.8524 44.9607 34.9661C44.9773 35.0212 44.9993 35.1 45.0163 35.1899L45.0173 35.1948C45.027 35.2446 45.0729 35.4813 45.0242 35.7651C44.9496 36.1994 44.7488 36.6264 44.3899 36.9609C44.0399 37.2869 43.6304 37.4408 43.2692 37.4993C42.5875 37.6097 41.929 37.4138 41.4435 37.171C41.1958 37.0472 40.857 36.8251 40.5788 36.6426C40.5676 36.6353 40.5565 36.628 40.5455 36.6208C40.5253 36.6075 40.5049 36.5942 40.4845 36.5807C40.173 36.3765 39.8389 36.1574 39.5003 35.952C39.134 35.7297 38.8089 35.5522 38.5509 35.4421C38.5398 35.4374 38.5292 35.4329 38.519 35.4287C38.499 35.4471 38.4775 35.4674 38.4548 35.4896C38.2354 35.7045 37.9758 36.0235 37.7377 36.4023C37.4996 36.7811 37.3113 37.1747 37.2024 37.5291C37.095 37.8787 37.0923 38.0994 37.1101 38.2055C37.1144 38.2068 37.1797 38.3507 37.5091 38.6297C37.8666 38.9324 38.3514 39.2431 38.9128 39.578C39.0372 39.6521 39.1693 39.7297 39.3048 39.8092C39.7243 40.0555 40.1757 40.3206 40.5275 40.5617C40.7642 40.7239 41.0402 40.9305 41.2706 41.1759C41.4638 41.3816 41.8646 41.8625 41.8646 42.5628V43.5736L40.9278 43.9531C40.0999 44.2884 38.7584 44.6678 37.2879 44.7796Z" fill="url(#paint2_linear_138_278)"/>
<defs>
<linearGradient id="paint0_linear_138_278" x1="6.5098e-08" y1="28.1809" x2="47.1391" y2="28.0902" gradientUnits="userSpaceOnUse">
<stop stop-color="#28B750"/>
<stop offset="1" stop-color="#A6D554"/>
</linearGradient>
<linearGradient id="paint1_linear_138_278" x1="6.5098e-08" y1="28.1809" x2="47.1391" y2="28.0902" gradientUnits="userSpaceOnUse">
<stop stop-color="#28B750"/>
<stop offset="1" stop-color="#A6D554"/>
</linearGradient>
<linearGradient id="paint2_linear_138_278" x1="6.5098e-08" y1="28.1809" x2="47.1391" y2="28.0902" gradientUnits="userSpaceOnUse">
<stop stop-color="#28B750"/>
<stop offset="1" stop-color="#A6D554"/>
</linearGradient>
</defs>
</svg>
