<svg width="145" height="181" viewBox="0 0 145 181" fill="none" xmlns="http://www.w3.org/2000/svg">
<path d="M0 163.437H20.4952V159.957H0V163.437Z" fill="#28B750"/>
<path d="M20.4952 171.861H0V168.381H20.4952V171.861Z" fill="#28B750"/>
<path d="M20.4952 180.233H0V176.753H20.4952V180.233Z" fill="#28B750"/>
<path d="M124.337 163.437H144.833V159.957H124.337V163.437Z" fill="#28B750"/>
<path d="M144.833 171.861H124.337V168.381H144.833V171.861Z" fill="#28B750"/>
<path d="M144.833 180.233H124.337V176.753H144.833V180.233Z" fill="#28B750"/>
<path d="M31.6943 123.366C31.1649 123.366 30.6896 123.254 30.2686 123.031C29.8475 122.808 29.519 122.498 29.2829 122.103C29.0469 121.701 28.9289 121.248 28.9289 120.744C28.9289 120.24 29.0469 119.79 29.2829 119.395C29.519 118.999 29.8443 118.69 30.259 118.467C30.68 118.243 31.1585 118.132 31.6943 118.132C32.1983 118.132 32.6385 118.234 33.0149 118.438C33.3976 118.642 33.6847 118.936 33.8761 119.318L32.9574 119.854C32.8107 119.618 32.6257 119.443 32.4024 119.328C32.1855 119.207 31.9463 119.146 31.6848 119.146C31.2382 119.146 30.8682 119.293 30.5748 119.586C30.2813 119.873 30.1346 120.259 30.1346 120.744C30.1346 121.229 30.2781 121.618 30.5652 121.912C30.8586 122.199 31.2318 122.342 31.6848 122.342C31.9463 122.342 32.1855 122.285 32.4024 122.17C32.6257 122.049 32.8107 121.87 32.9574 121.634L33.8761 122.17C33.6783 122.553 33.3881 122.849 33.0053 123.06C32.6289 123.264 32.1919 123.366 31.6943 123.366Z" fill="white"/>
<path d="M39.9827 119.204H38.1933V123.299H36.9972V119.204H35.1982V118.189H39.9827V119.204Z" fill="white"/>
<path d="M44.7354 118.132C45.233 118.132 45.6764 118.24 46.0655 118.457C46.461 118.674 46.7704 118.98 46.9937 119.376C47.217 119.771 47.3286 120.227 47.3286 120.744C47.3286 121.261 47.217 121.72 46.9937 122.122C46.7704 122.518 46.461 122.824 46.0655 123.041C45.6764 123.258 45.233 123.366 44.7354 123.366C44.0464 123.366 43.501 123.136 43.0991 122.677V125.155H41.903V118.189H43.0417V118.859C43.2394 118.617 43.4819 118.435 43.7689 118.314C44.0624 118.192 44.3845 118.132 44.7354 118.132ZM44.6014 122.342C45.0416 122.342 45.402 122.195 45.6827 121.902C45.9698 121.609 46.1133 121.223 46.1133 120.744C46.1133 120.266 45.9698 119.88 45.6827 119.586C45.402 119.293 45.0416 119.146 44.6014 119.146C44.3144 119.146 44.056 119.213 43.8263 119.347C43.5967 119.475 43.4149 119.66 43.2809 119.902C43.1469 120.145 43.08 120.425 43.08 120.744C43.08 121.063 43.1469 121.344 43.2809 121.586C43.4149 121.829 43.5967 122.017 43.8263 122.151C44.056 122.278 44.3144 122.342 44.6014 122.342Z" fill="white"/>
<path d="M51.8491 123.366C51.3323 123.366 50.8666 123.254 50.452 123.031C50.0373 122.808 49.712 122.498 49.476 122.103C49.2463 121.701 49.1315 121.248 49.1315 120.744C49.1315 120.24 49.2463 119.79 49.476 119.395C49.712 118.999 50.0373 118.69 50.452 118.467C50.8666 118.243 51.3323 118.132 51.8491 118.132C52.3722 118.132 52.8411 118.243 53.2557 118.467C53.6704 118.69 53.9925 118.999 54.2222 119.395C54.4582 119.79 54.5762 120.24 54.5762 120.744C54.5762 121.248 54.4582 121.701 54.2222 122.103C53.9925 122.498 53.6704 122.808 53.2557 123.031C52.8411 123.254 52.3722 123.366 51.8491 123.366ZM51.8491 122.342C52.2892 122.342 52.6529 122.195 52.9399 121.902C53.227 121.609 53.3705 121.223 53.3705 120.744C53.3705 120.266 53.227 119.88 52.9399 119.586C52.6529 119.293 52.2892 119.146 51.8491 119.146C51.4089 119.146 51.0453 119.293 50.7582 119.586C50.4775 119.88 50.3372 120.266 50.3372 120.744C50.3372 121.223 50.4775 121.609 50.7582 121.902C51.0453 122.195 51.4089 122.342 51.8491 122.342Z" fill="white"/>
<path d="M56.8104 118.189H58.0066V121.558L60.8294 118.189H61.9203V123.299H60.7242V119.931L57.9109 123.299H56.8104V118.189Z" fill="white"/>
<path d="M68.6296 119.204H66.8402V123.299H65.6441V119.204H63.8451V118.189H68.6296V119.204Z" fill="white"/>
<path d="M75.1101 120.773C75.1101 120.856 75.1037 120.974 75.0909 121.127H71.0815C71.1517 121.503 71.3335 121.803 71.6269 122.026C71.9268 122.243 72.2968 122.352 72.7369 122.352C73.2983 122.352 73.7608 122.167 74.1245 121.797L74.7656 122.534C74.5359 122.808 74.2457 123.015 73.8948 123.156C73.5439 123.296 73.1484 123.366 72.7082 123.366C72.1469 123.366 71.6525 123.254 71.225 123.031C70.7976 122.808 70.4659 122.498 70.2299 122.103C70.0002 121.701 69.8854 121.248 69.8854 120.744C69.8854 120.247 69.997 119.8 70.2203 119.405C70.45 119.003 70.7657 118.69 71.1676 118.467C71.5695 118.243 72.0225 118.132 72.5264 118.132C73.024 118.132 73.4674 118.243 73.8565 118.467C74.252 118.684 74.5582 118.993 74.7751 119.395C74.9984 119.79 75.1101 120.25 75.1101 120.773ZM72.5264 119.089C72.1437 119.089 71.8183 119.204 71.5504 119.433C71.2888 119.656 71.1293 119.956 71.0719 120.333H73.9713C73.9203 119.963 73.764 119.663 73.5025 119.433C73.2409 119.204 72.9156 119.089 72.5264 119.089Z" fill="white"/>
<path d="M82.0369 118.189V123.299H80.8408V119.204H78.927L78.8791 120.218C78.8472 120.894 78.7834 121.462 78.6877 121.921C78.5984 122.374 78.4421 122.735 78.2189 123.002C78.002 123.264 77.7021 123.395 77.3194 123.395C77.1408 123.395 76.9207 123.36 76.6591 123.29L76.7165 122.285C76.8058 122.304 76.8824 122.313 76.9462 122.313C77.1886 122.313 77.3704 122.218 77.4916 122.026C77.6128 121.829 77.6894 121.596 77.7213 121.328C77.7595 121.054 77.7914 120.664 77.817 120.16L77.9031 118.189H82.0369Z" fill="white"/>
<path d="M87.2649 119.873C87.9156 119.873 88.4131 120.02 88.7576 120.314C89.1085 120.607 89.2839 121.022 89.2839 121.558C89.2839 122.119 89.0925 122.553 88.7098 122.859C88.327 123.165 87.788 123.315 87.0926 123.309L84.7004 123.299V118.189H85.8965V119.864L87.2649 119.873ZM86.9874 122.428C87.3382 122.435 87.6062 122.361 87.7912 122.208C87.9762 122.055 88.0687 121.832 88.0687 121.538C88.0687 121.251 87.9794 121.041 87.8007 120.907C87.6221 120.773 87.351 120.703 86.9874 120.696L85.8965 120.687V122.419L86.9874 122.428Z" fill="white"/>
<path d="M93.7131 123.366C93.1836 123.366 92.7084 123.254 92.2873 123.031C91.8663 122.808 91.5378 122.498 91.3017 122.103C91.0657 121.701 90.9477 121.248 90.9477 120.744C90.9477 120.24 91.0657 119.79 91.3017 119.395C91.5378 118.999 91.8631 118.69 92.2778 118.467C92.6988 118.243 93.1772 118.132 93.7131 118.132C94.2171 118.132 94.6572 118.234 95.0336 118.438C95.4164 118.642 95.7035 118.936 95.8948 119.318L94.9762 119.854C94.8295 119.618 94.6445 119.443 94.4212 119.328C94.2043 119.207 93.9651 119.146 93.7035 119.146C93.257 119.146 92.887 119.293 92.5935 119.586C92.3001 119.873 92.1534 120.259 92.1534 120.744C92.1534 121.229 92.2969 121.618 92.584 121.912C92.8774 122.199 93.2506 122.342 93.7035 122.342C93.9651 122.342 94.2043 122.285 94.4212 122.17C94.6445 122.049 94.8295 121.87 94.9762 121.634L95.8948 122.17C95.6971 122.553 95.4068 122.849 95.0241 123.06C94.6477 123.264 94.2107 123.366 93.7131 123.366Z" fill="white"/>
<path d="M102.002 119.204H100.212V123.299H99.016V119.204H97.217V118.189H102.002V119.204Z" fill="white"/>
<path d="M107.625 120.639C108.257 120.83 108.572 121.239 108.572 121.864C108.572 122.323 108.4 122.677 108.056 122.926C107.711 123.175 107.201 123.299 106.525 123.299H103.922V118.189H106.419C107.044 118.189 107.532 118.304 107.883 118.534C108.234 118.763 108.41 119.089 108.41 119.51C108.41 119.771 108.339 119.998 108.199 120.189C108.065 120.381 107.874 120.53 107.625 120.639ZM105.06 120.323H106.314C106.933 120.323 107.242 120.109 107.242 119.682C107.242 119.267 106.933 119.06 106.314 119.06H105.06V120.323ZM106.429 122.428C107.086 122.428 107.414 122.215 107.414 121.787C107.414 121.564 107.338 121.398 107.185 121.29C107.032 121.175 106.792 121.117 106.467 121.117H105.06V122.428H106.429Z" fill="white"/>
<path d="M113.176 123.366C112.66 123.366 112.194 123.254 111.779 123.031C111.365 122.808 111.039 122.498 110.803 122.103C110.574 121.701 110.459 121.248 110.459 120.744C110.459 120.24 110.574 119.79 110.803 119.395C111.039 118.999 111.365 118.69 111.779 118.467C112.194 118.243 112.66 118.132 113.176 118.132C113.699 118.132 114.168 118.243 114.583 118.467C114.998 118.69 115.32 118.999 115.549 119.395C115.785 119.79 115.903 120.24 115.903 120.744C115.903 121.248 115.785 121.701 115.549 122.103C115.32 122.498 114.998 122.808 114.583 123.031C114.168 123.254 113.699 123.366 113.176 123.366ZM113.176 122.342C113.617 122.342 113.98 122.195 114.267 121.902C114.554 121.609 114.698 121.223 114.698 120.744C114.698 120.266 114.554 119.88 114.267 119.586C113.98 119.293 113.617 119.146 113.176 119.146C112.736 119.146 112.373 119.293 112.085 119.586C111.805 119.88 111.664 120.266 111.664 120.744C111.664 121.223 111.805 121.609 112.085 121.902C112.373 122.195 112.736 122.342 113.176 122.342Z" fill="white"/>
<path fill-rule="evenodd" clip-rule="evenodd" d="M71.2642 180.505C69.1673 180.505 67.2724 180.053 65.5795 179.149C63.9058 178.245 62.588 177.004 61.6261 175.427C60.6835 173.83 60.2122 172.041 60.2122 170.059C60.2122 168.078 60.6835 166.298 61.6261 164.721C62.588 163.124 63.9058 161.874 65.5795 160.97C67.2724 160.065 69.1673 159.613 71.2642 159.613C73.3611 159.613 75.2463 160.065 76.92 160.97C78.5937 161.874 79.9115 163.124 80.8733 164.721C81.8352 166.298 82.3162 168.078 82.3162 170.059C82.3162 172.041 81.8352 173.83 80.8733 175.427C79.9115 177.004 78.5937 178.245 76.92 179.149C75.2463 180.053 73.3611 180.505 71.2642 180.505ZM71.2642 176.523C72.4569 176.523 73.5342 176.254 74.4961 175.715C75.458 175.157 76.2082 174.388 76.7469 173.407C77.3048 172.426 77.5837 171.31 77.5837 170.059C77.5837 168.809 77.3048 167.693 76.7469 166.712C76.2082 165.731 75.458 164.971 74.4961 164.432C73.5342 163.874 72.4569 163.595 71.2642 163.595C70.0714 163.595 68.9941 163.874 68.0322 164.432C67.0704 164.971 66.3105 165.731 65.7526 166.712C65.2139 167.693 64.9446 168.809 64.9446 170.059C64.9446 171.31 65.2139 172.426 65.7526 173.407C66.3105 174.388 67.0704 175.157 68.0322 175.715C68.9941 176.254 70.0714 176.523 71.2642 176.523ZM54.1508 180.186H58.4792V176.35H55.6513V159.96H40.1266L39.8957 166.279C39.7803 169.492 39.4725 171.964 38.9723 173.695C38.4721 175.427 37.6161 176.311 36.4041 176.35H35.5961L35.5823 180.186H39.8957V180.159H54.1508V180.186ZM44.0222 166.712C43.926 169.117 43.724 171.137 43.4162 172.772C43.1084 174.388 42.6371 175.58 42.0022 176.35H51.0343V163.769H44.1088L44.0222 166.712ZM104.27 168.068L104.299 180.159H108.685L108.656 159.96H104.789L97.3445 172.512L89.7841 159.96H85.9173V180.159H90.3035V168.299L96.2479 178.024H98.3256L104.27 168.068Z" fill="white"/>
<path fill-rule="evenodd" clip-rule="evenodd" d="M10.3892 144.536C9.96566 143.975 9.37395 143.564 8.61407 143.303C9.19955 143.041 9.66046 142.667 9.99681 142.182C10.3331 141.696 10.5013 141.141 10.5013 140.519C10.5013 139.759 10.2459 139.092 9.73521 138.519C9.22447 137.946 8.53933 137.51 7.67979 137.211C6.82025 136.912 5.87974 136.763 4.85826 136.763C3.2513 136.763 1.75645 137.118 0.373712 137.828L1.28931 140.182C1.83742 139.871 2.41667 139.64 3.02707 139.491C3.63747 139.329 4.22918 139.248 4.8022 139.248C5.57454 139.248 6.20362 139.391 6.68945 139.678C7.18773 139.964 7.43687 140.363 7.43687 140.874C7.43687 141.31 7.26248 141.652 6.91368 141.901C6.57734 142.15 6.10397 142.275 5.49357 142.275H2.52256V144.555H5.7178C6.41539 144.555 6.96351 144.679 7.36213 144.928C7.77322 145.177 7.97876 145.545 7.97876 146.031C7.97876 146.616 7.67979 147.071 7.08185 147.395C6.49637 147.719 5.75517 147.881 4.85826 147.881C4.19803 147.881 3.51912 147.793 2.82153 147.619C2.13639 147.432 1.50731 147.164 0.934281 146.816L0 148.983C0.797253 149.444 1.63811 149.787 2.52256 150.011C3.41947 150.235 4.31638 150.347 5.21329 150.347C6.27214 150.347 7.24379 150.191 8.12824 149.88C9.02515 149.569 9.73521 149.12 10.2584 148.535C10.7816 147.949 11.0432 147.258 11.0432 146.461C11.0432 145.726 10.8252 145.084 10.3892 144.536ZM16.2238 147.32H22.2966L23.4551 150.123H26.6317L20.7831 137.043H17.7934L11.9635 150.123H15.0653L16.2238 147.32ZM19.2695 140.014L21.3436 145.022H17.1954L19.2695 140.014ZM37.5782 139.509H31.3559L31.3746 150.123H28.3662V137.043H37.5969L37.5782 139.509ZM40.6704 149.469C41.7666 150.054 42.9937 150.347 44.3515 150.347C45.7093 150.347 46.9301 150.054 48.0139 149.469C49.0976 148.883 49.9509 148.08 50.5738 147.058C51.1966 146.025 51.5081 144.866 51.5081 143.583C51.5081 142.3 51.1966 141.148 50.5738 140.126C49.9509 139.092 49.0976 138.282 48.0139 137.697C46.9301 137.111 45.7093 136.819 44.3515 136.819C42.9937 136.819 41.7666 137.111 40.6704 137.697C39.5866 138.282 38.7333 139.092 38.1105 140.126C37.5001 141.148 37.1949 142.3 37.1949 143.583C37.1949 144.866 37.5001 146.025 38.1105 147.058C38.7333 148.08 39.5866 148.883 40.6704 149.469ZM46.4443 147.245C45.8214 147.594 45.1238 147.769 44.3515 147.769C43.5791 147.769 42.8815 147.594 42.2587 147.245C41.6358 146.884 41.1438 146.386 40.7825 145.75C40.4337 145.115 40.2593 144.393 40.2593 143.583C40.2593 142.773 40.4337 142.051 40.7825 141.415C41.1438 140.78 41.6358 140.288 42.2587 139.939C42.8815 139.578 43.5791 139.397 44.3515 139.397C45.1238 139.397 45.8214 139.578 46.4443 139.939C47.0671 140.288 47.5529 140.78 47.9017 141.415C48.263 142.051 48.4436 142.773 48.4436 143.583C48.4436 144.393 48.263 145.115 47.9017 145.75C47.5529 146.386 47.0671 146.884 46.4443 147.245ZM59.5017 137.043C60.6602 137.043 61.663 137.236 62.5101 137.622C63.3696 138.008 64.0299 138.557 64.4908 139.267C64.9517 139.977 65.1821 140.817 65.1821 141.789C65.1821 142.748 64.9517 143.589 64.4908 144.312C64.0299 145.022 63.3696 145.57 62.5101 145.956C61.663 146.33 60.6602 146.517 59.5017 146.517H56.867V150.123H53.84V137.043H59.5017ZM59.3335 144.05C60.2429 144.05 60.9343 143.857 61.4076 143.471C61.881 143.072 62.1177 142.512 62.1177 141.789C62.1177 141.054 61.881 140.494 61.4076 140.107C60.9343 139.709 60.2429 139.509 59.3335 139.509H56.867V144.05H59.3335ZM69.9214 149.469C71.0176 150.054 72.2447 150.347 73.6025 150.347C74.9603 150.347 76.1811 150.054 77.2649 149.469C78.3486 148.883 79.202 148.08 79.8248 147.058C80.4477 146.025 80.7591 144.866 80.7591 143.583C80.7591 142.3 80.4477 141.148 79.8248 140.126C79.202 139.092 78.3486 138.282 77.2649 137.697C76.1811 137.111 74.9603 136.819 73.6025 136.819C72.2447 136.819 71.0176 137.111 69.9214 137.697C68.8377 138.282 67.9843 139.092 67.3615 140.126C66.7511 141.148 66.4459 142.3 66.4459 143.583C66.4459 144.866 66.7511 146.025 67.3615 147.058C67.9843 148.08 68.8377 148.883 69.9214 149.469ZM75.6953 147.245C75.0724 147.594 74.3748 147.769 73.6025 147.769C72.8302 147.769 72.1326 147.594 71.5097 147.245C70.8869 146.884 70.3948 146.386 70.0335 145.75C69.6847 145.115 69.5103 144.393 69.5103 143.583C69.5103 142.773 69.6847 142.051 70.0335 141.415C70.3948 140.78 70.8869 140.288 71.5097 139.939C72.1326 139.578 72.8302 139.397 73.6025 139.397C74.3748 139.397 75.0724 139.578 75.6953 139.939C76.3181 140.288 76.804 140.78 77.1528 141.415C77.514 142.051 77.6946 142.773 77.6946 143.583C77.6946 144.393 77.514 145.115 77.1528 145.75C76.804 146.386 76.3181 146.884 75.6953 147.245ZM93.4142 150.124H96.2171V147.656H94.3859V137.043H84.333L84.1835 141.135C84.1088 143.215 83.9095 144.816 83.5856 145.937C83.2617 147.058 82.7074 147.631 81.9226 147.656H81.3994L81.3905 150.124H84.1835V150.123H93.4142V150.124ZM86.8556 141.415C86.7933 142.973 86.6625 144.281 86.4632 145.339C86.2638 146.386 85.9587 147.158 85.5476 147.656H91.3962V139.509H86.9116L86.8556 141.415ZM107.224 150.123H110.251V137.043H107.224V142.2H101.282V137.043H98.2548V150.123H101.282V144.76H107.224V150.123ZM119.863 141.341C121.457 141.341 122.678 141.696 123.525 142.406C124.384 143.116 124.814 144.168 124.814 145.564C124.814 147.046 124.341 148.18 123.394 148.964C122.46 149.737 121.139 150.123 119.433 150.123H113.528V137.043H116.536V141.341H119.863ZM119.265 147.881C120.049 147.881 120.66 147.688 121.096 147.301C121.544 146.915 121.768 146.355 121.768 145.62C121.768 144.262 120.934 143.583 119.265 143.583H116.536V147.881H119.265ZM126.477 137.043H129.486V150.123H126.477V137.043ZM135.751 137.043H132.743V150.123H135.602L141.843 141.621V150.123H144.832V137.043H141.992L135.751 145.564V137.043Z" fill="white"/>
<rect x="135.807" y="132.702" width="5.92728" height="2.17588" fill="white"/>
<path fill-rule="evenodd" clip-rule="evenodd" d="M26.1608 0.181309V97.2102H38.0381L39.3165 68.5007L40.5099 97.2102H123.297L123.297 60.1993L123.297 60.1678L102.714 60.1993L79.0888 24.0562L60.2666 60.6634H57.4299L78.4506 20.7346H105.434V29.6485H115.507V20.7346L123.297 20.7214L123.297 0.0742188L26.1608 0.181309ZM52.4349 46.3374C56.1249 40.6329 58.5209 32.5437 58.5209 23.4302C58.5209 15.8292 56.8541 8.94061 54.16 3.55386H29.6405V50.606C31.7648 52.6825 34.0692 54.035 36.4208 54.6448L37.7516 23.2377H40.8813L41.4388 36.3952L44.5379 30.6285L47.603 32.2757L41.7275 43.2085L42.2121 54.6448C45.9083 53.6864 49.488 50.8931 52.4349 46.3374ZM36.2708 58.1852C33.9286 57.6993 31.6996 56.6608 29.6405 55.1573V93.7306H34.7646L36.2708 58.1852ZM43.8683 93.7306L42.3621 58.1852C53.45 55.885 62.0006 41.2013 62.0006 23.4302C62.0006 16.0505 60.526 9.20309 58.0076 3.55386H119.817V17.2549H115.507V9.08722H105.434V17.2549H76.3501L51.6657 64.1431H59.5886V93.7306H43.8683ZM119.817 63.679V68.541H63.0682V63.7803L119.817 63.679ZM87.224 72.0206H119.817V76.9648H87.224V72.0206ZM87.224 80.4445H119.817V85.3369H87.224V80.4445ZM87.224 88.8165H119.817V93.7184H87.224V88.8165ZM83.7443 72.021V93.7306H74.7929V72.021H83.7443ZM71.3133 72.0206H63.0682V76.9648H71.3133V72.0206ZM71.3133 80.4445H63.0682V85.3369H71.3133V80.4445ZM71.3133 88.8165H63.0682V93.7184H71.3133V88.8165ZM64.3658 60.3006H98.6233L95.4142 55.3912H66.89L64.3658 60.3006ZM68.6791 51.9116H93.1397L89.96 47.0472H71.1802L68.6791 51.9116ZM72.9693 43.5676H87.6855L84.4817 38.6663H75.4894L72.9693 43.5676ZM77.2785 35.1866H82.2072L79.4485 30.9663L77.2785 35.1866ZM108.913 12.5669V26.1688H112.028V12.5669H108.913Z" fill="url(#paint0_linear_126_359)"/>
<defs>
<linearGradient id="paint0_linear_126_359" x1="26.1608" y1="57.4316" x2="123.313" y2="57.2487" gradientUnits="userSpaceOnUse">
<stop stop-color="#28B750"/>
<stop offset="1" stop-color="#A6D554"/>
</linearGradient>
</defs>
</svg>
