<svg width="218" height="71" viewBox="0 0 218 71" fill="none" xmlns="http://www.w3.org/2000/svg">
<path d="M26.2816 42.011V44.8637H16.1652V42.011H26.2816ZM17.1557 34.0737V53.3029H13.5238V34.0737H17.1557ZM28.9758 34.0737V53.3029H25.3439V34.0737H28.9758Z" fill="white"/>
<path d="M48.2446 43.1996V44.1902C48.2446 45.6429 48.0509 46.9504 47.6635 48.1126C47.2761 49.266 46.7258 50.2477 46.0126 51.0577C45.2995 51.8677 44.4498 52.4885 43.4637 52.9199C42.4776 53.3513 41.3814 53.567 40.1752 53.567C38.9866 53.567 37.8948 53.3513 36.8999 52.9199C35.9138 52.4885 35.0598 51.8677 34.3378 51.0577C33.6158 50.2477 33.0567 49.266 32.6605 48.1126C32.2643 46.9504 32.0662 45.6429 32.0662 44.1902V43.1996C32.0662 41.7381 32.2643 40.4306 32.6605 39.2772C33.0567 38.1238 33.6114 37.1421 34.3246 36.3321C35.0378 35.5133 35.8874 34.8881 36.8735 34.4567C37.8684 34.0253 38.9602 33.8096 40.1488 33.8096C41.355 33.8096 42.4512 34.0253 43.4373 34.4567C44.4234 34.8881 45.2731 35.5133 45.9862 36.3321C46.7082 37.1421 47.2629 38.1238 47.6503 39.2772C48.0465 40.4306 48.2446 41.7381 48.2446 43.1996ZM44.5731 44.1902V43.1732C44.5731 42.1255 44.4762 41.2054 44.2825 40.413C44.0888 39.6118 43.8027 38.9382 43.4241 38.3923C43.0455 37.8465 42.5789 37.4371 42.0242 37.1641C41.4695 36.8824 40.8444 36.7415 40.1488 36.7415C39.4444 36.7415 38.8193 36.8824 38.2734 37.1641C37.7364 37.4371 37.2785 37.8465 36.8999 38.3923C36.5213 38.9382 36.2308 39.6118 36.0283 40.413C35.8346 41.2054 35.7377 42.1255 35.7377 43.1732V44.1902C35.7377 45.2291 35.8346 46.1492 36.0283 46.9504C36.2308 47.7516 36.5213 48.4295 36.8999 48.9842C37.2873 49.5301 37.754 49.9439 38.2998 50.2257C38.8457 50.5074 39.4709 50.6483 40.1752 50.6483C40.8796 50.6483 41.5047 50.5074 42.0506 50.2257C42.5965 49.9439 43.0543 49.5301 43.4241 48.9842C43.8027 48.4295 44.0888 47.7516 44.2825 46.9504C44.4762 46.1492 44.5731 45.2291 44.5731 44.1902Z" fill="white"/>
<path d="M58.6912 44.7316H53.7783L53.7519 42.1695H57.9648C58.6868 42.1695 59.2899 42.0683 59.7742 41.8657C60.2584 41.6632 60.6238 41.3683 60.8703 40.9809C61.1257 40.5935 61.2533 40.1224 61.2533 39.5678C61.2533 38.9514 61.1345 38.4496 60.8968 38.0622C60.6678 37.6748 60.3069 37.393 59.8138 37.2169C59.3207 37.032 58.6956 36.9396 57.9384 36.9396H54.9537V53.3029H51.3218V34.0737H57.9384C59.0302 34.0737 60.0031 34.1794 60.8571 34.3907C61.72 34.5932 62.4508 34.9101 63.0495 35.3416C63.6482 35.773 64.1016 36.3145 64.4098 36.966C64.7267 37.6175 64.8852 38.3923 64.8852 39.2904C64.8852 40.0828 64.7003 40.8136 64.3305 41.4827C63.9695 42.1431 63.4105 42.6802 62.6533 43.094C61.9049 43.5078 60.954 43.7455 59.8006 43.8072L58.6912 44.7316ZM58.5327 53.3029H52.7085L54.2273 50.4502H58.5327C59.2547 50.4502 59.849 50.3313 60.3157 50.0936C60.7911 49.8559 61.1433 49.5301 61.3722 49.1163C61.6099 48.6937 61.7288 48.2094 61.7288 47.6636C61.7288 47.0648 61.6231 46.5454 61.4118 46.1051C61.2093 45.6649 60.8836 45.3259 60.4345 45.0882C59.9943 44.8505 59.4132 44.7316 58.6912 44.7316H54.9141L54.9405 42.1695H59.7478L60.5798 43.16C61.6892 43.1688 62.5916 43.3889 63.2872 43.8204C63.9916 44.2518 64.511 44.8065 64.8456 45.4844C65.1802 46.1624 65.3475 46.8932 65.3475 47.6768C65.3475 48.9094 65.0789 49.9439 64.5418 50.7804C64.0136 51.6168 63.2388 52.2463 62.2174 52.6689C61.2049 53.0916 59.9767 53.3029 58.5327 53.3029Z" fill="white"/>
<path d="M76.1375 36.9924L70.6566 53.3029H66.8134L73.9979 34.0737H76.4544L76.1375 36.9924ZM80.7202 53.3029L75.213 36.9924L74.8828 34.0737H77.3525L84.5766 53.3029H80.7202ZM80.4693 46.158V49.0239H70.1548V46.158H80.4693Z" fill="white"/>
<path d="M96.8854 46.1976H91.6159L90.2952 45.6561C88.816 45.1895 87.6846 44.4851 86.901 43.543C86.1174 42.6009 85.7256 41.4079 85.7256 39.964C85.7256 38.6873 86.0074 37.6131 86.5709 36.7415C87.1432 35.861 87.9532 35.1963 89.0009 34.7473C90.0575 34.2982 91.3077 34.0737 92.7517 34.0737H99.3287V53.3029H95.6836V36.9396H92.7517C91.5983 36.9396 90.7442 37.2257 90.1895 37.798C89.6349 38.3703 89.3575 39.1671 89.3575 40.1885C89.3575 40.9016 89.4808 41.5048 89.7273 41.9978C89.9826 42.4909 90.3568 42.8607 90.8499 43.1072C91.3517 43.3537 91.9725 43.477 92.712 43.477H96.8722L96.8854 46.1976ZM92.9498 44.6656L88.5783 53.3029H84.6559L89.0538 44.6656H92.9498Z" fill="white"/>
<path d="M115.6 45.1807L108.362 34.0737H112.839L117.343 41.9978H120.737L120.248 45.1807H115.6ZM117.356 44.6656L112.562 53.3029H108.032L114.53 42.394L117.356 44.6656ZM122.995 34.0737V53.3029H119.377V34.0737H122.995ZM133.865 34.0737L126.706 45.1807H122.097L121.609 41.9978H124.963L129.374 34.0737H133.865ZM129.665 53.3029L124.963 44.6656L127.803 42.394L134.195 53.3029H129.665Z" fill="white"/>
<path d="M139.636 47.4919L147.758 34.0737H151.403V53.3029H147.758V39.8847L139.636 53.3029H136.004V34.0737H139.636V47.4919Z" fill="white"/>
<path d="M161.982 44.0845H159.169V42.0903H161.493C162.259 42.0903 162.876 41.9758 163.342 41.7469C163.809 41.518 164.152 41.1966 164.372 40.7828C164.593 40.3602 164.703 39.8715 164.703 39.3168C164.703 38.8414 164.579 38.4012 164.333 37.9961C164.095 37.5911 163.725 37.2698 163.223 37.032C162.722 36.7943 162.079 36.6755 161.295 36.6755C160.705 36.6755 160.168 36.7811 159.684 36.9924C159.2 37.1949 158.817 37.4899 158.535 37.8773C158.253 38.2559 158.112 38.7093 158.112 39.2376H154.48C154.48 38.3923 154.661 37.6396 155.022 36.9792C155.383 36.3101 155.876 35.7422 156.501 35.2755C157.135 34.8001 157.861 34.4391 158.68 34.1926C159.508 33.946 160.38 33.8228 161.295 33.8228C162.361 33.8228 163.325 33.9416 164.187 34.1794C165.059 34.4083 165.803 34.7517 166.419 35.2095C167.036 35.6673 167.507 36.2352 167.833 36.9132C168.167 37.5911 168.334 38.3791 168.334 39.2772C168.334 39.9375 168.185 40.5583 167.885 41.1394C167.586 41.7205 167.155 42.2311 166.591 42.6714C166.036 43.1116 165.367 43.4594 164.584 43.7147C163.809 43.9612 162.942 44.0845 161.982 44.0845ZM159.169 42.9355H161.982C163.038 42.9355 163.976 43.0456 164.795 43.2657C165.623 43.4858 166.318 43.8072 166.882 44.2298C167.454 44.6524 167.89 45.1763 168.189 45.8014C168.489 46.4177 168.638 47.1265 168.638 47.9277C168.638 48.8258 168.458 49.6226 168.097 50.3181C167.736 51.0137 167.225 51.6036 166.565 52.0878C165.913 52.5721 165.138 52.9375 164.24 53.184C163.342 53.4305 162.361 53.5538 161.295 53.5538C160.432 53.5538 159.578 53.4481 158.733 53.2368C157.897 53.0167 157.135 52.6822 156.448 52.2331C155.77 51.7841 155.224 51.2074 154.811 50.503C154.406 49.7987 154.203 48.9534 154.203 47.9673H157.848C157.848 48.478 157.993 48.9446 158.284 49.3672C158.575 49.781 158.98 50.1112 159.499 50.3577C160.019 50.5955 160.617 50.7143 161.295 50.7143C162.079 50.7143 162.744 50.5955 163.289 50.3577C163.844 50.1112 164.267 49.7722 164.557 49.3408C164.848 48.9094 164.993 48.4295 164.993 47.9013C164.993 47.3642 164.918 46.9064 164.769 46.5278C164.619 46.1492 164.394 45.841 164.095 45.6033C163.804 45.3568 163.439 45.1763 162.999 45.0618C162.567 44.9473 162.066 44.8901 161.493 44.8901H159.169V42.9355Z" fill="white"/>
<path d="M184.42 42.011V44.8637H174.304V42.011H184.42ZM175.294 34.0737V53.3029H171.663V34.0737H175.294ZM187.115 34.0737V53.3029H183.483V34.0737H187.115Z" fill="white"/>
<path d="M193.216 41.2714H197.878C199.366 41.2714 200.643 41.5224 201.708 42.0242C202.773 42.5173 203.588 43.2084 204.151 44.0977C204.724 44.987 205.01 46.0303 205.01 47.2277C205.01 48.1258 204.847 48.9446 204.521 49.6842C204.204 50.4238 203.738 51.0665 203.121 51.6124C202.505 52.1495 201.757 52.5677 200.876 52.867C199.996 53.1576 198.996 53.3029 197.878 53.3029H190.773V34.0737H194.418V50.4502H197.878C198.671 50.4502 199.327 50.3005 199.846 50.0012C200.365 49.7018 200.753 49.3056 201.008 48.8125C201.264 48.3195 201.391 47.7824 201.391 47.2013C201.391 46.629 201.264 46.1095 201.008 45.6429C200.753 45.1763 200.365 44.8065 199.846 44.5335C199.327 44.2606 198.671 44.1241 197.878 44.1241H193.216V41.2714Z" fill="white"/>
<path d="M17.5607 25.6266C17.8861 25.6266 18.1784 25.564 18.4376 25.4388C18.7023 25.3081 18.9146 25.1285 19.0745 24.8998C19.24 24.6711 19.331 24.4071 19.3475 24.1077H21.2253C21.2143 24.6793 21.0434 25.1992 20.7125 25.6675C20.3816 26.1357 19.9431 26.5086 19.3972 26.7863C18.8512 27.0585 18.2473 27.1946 17.5855 27.1946C16.9017 27.1946 16.3061 27.0803 15.7987 26.8516C15.2913 26.6175 14.8694 26.2963 14.533 25.888C14.1966 25.4796 13.9429 25.0087 13.772 24.4751C13.6065 23.9416 13.5238 23.3699 13.5238 22.7602V22.4743C13.5238 21.8646 13.6065 21.2929 13.772 20.7594C13.9429 20.2204 14.1966 19.7467 14.533 19.3384C14.8694 18.9301 15.2913 18.6116 15.7987 18.3829C16.3061 18.1488 16.8989 18.0317 17.5772 18.0317C18.2942 18.0317 18.9229 18.1733 19.4633 18.4564C20.0038 18.7341 20.4284 19.1233 20.7373 19.6242C21.0516 20.1197 21.2143 20.6968 21.2253 21.3555H19.3475C19.331 21.0289 19.2483 20.7349 19.0994 20.4735C18.956 20.2068 18.7519 19.9944 18.4872 19.8365C18.228 19.6787 17.9164 19.5997 17.5524 19.5997C17.1498 19.5997 16.8162 19.6814 16.5515 19.8447C16.2868 20.0026 16.08 20.2204 15.9311 20.498C15.7822 20.7703 15.6746 21.0779 15.6084 21.4209C15.5478 21.7584 15.5174 22.1096 15.5174 22.4743V22.7602C15.5174 23.1249 15.5478 23.4788 15.6084 23.8218C15.6691 24.1648 15.7739 24.4724 15.9228 24.7446C16.0772 25.0114 16.2868 25.2265 16.5515 25.3898C16.8162 25.5477 17.1526 25.6266 17.5607 25.6266Z" fill="white"/>
<path d="M26.9084 18.1951V27.0313H24.9065V18.1951H26.9084ZM29.8451 18.1951V19.7467H22.0195V18.1951H29.8451Z" fill="white"/>
<path d="M33.1789 19.8937V30.4286H31.1852V18.1951H33.0217L33.1789 19.8937ZM39.0109 22.5315V22.703C39.0109 23.3454 38.9337 23.9416 38.7792 24.4915C38.6303 25.0359 38.407 25.5123 38.1092 25.9206C37.8169 26.3235 37.4557 26.6366 37.0255 26.8598C36.5953 27.083 36.099 27.1946 35.5365 27.1946C34.9795 27.1946 34.4914 27.0939 34.0723 26.8924C33.6587 26.6856 33.3085 26.3943 33.0217 26.0186C32.7349 25.643 32.5033 25.202 32.3268 24.6956C32.1559 24.1839 32.0345 23.6231 31.9628 23.0133V22.3518C32.0345 21.704 32.1559 21.116 32.3268 20.5879C32.5033 20.0598 32.7349 19.6052 33.0217 19.2241C33.3085 18.8429 33.6587 18.549 34.0723 18.3421C34.4859 18.1352 34.9685 18.0317 35.5199 18.0317C36.0825 18.0317 36.5816 18.1406 37.0172 18.3584C37.4529 18.5707 37.8197 18.8756 38.1175 19.2731C38.4153 19.665 38.6386 20.1387 38.7875 20.694C38.9364 21.2439 39.0109 21.8564 39.0109 22.5315ZM37.0172 22.703V22.5315C37.0172 22.1232 36.9786 21.7448 36.9014 21.3964C36.8242 21.0425 36.7029 20.7321 36.5374 20.4654C36.372 20.1986 36.1597 19.9917 35.9005 19.8447C35.6468 19.6923 35.3407 19.616 34.9822 19.616C34.6293 19.616 34.326 19.6759 34.0723 19.7957C33.8186 19.91 33.6063 20.0707 33.4353 20.2775C33.2644 20.4844 33.132 20.7267 33.0382 21.0044C32.9445 21.2766 32.8783 21.5733 32.8397 21.8945V23.4788C32.9059 23.8708 33.0189 24.2302 33.1789 24.5568C33.3388 24.8835 33.5649 25.1448 33.8572 25.3408C34.155 25.5314 34.5355 25.6266 34.9988 25.6266C35.3573 25.6266 35.6633 25.5504 35.917 25.398C36.1707 25.2455 36.3775 25.0359 36.5374 24.7691C36.7029 24.4969 36.8242 24.1839 36.9014 23.83C36.9786 23.4761 37.0172 23.1004 37.0172 22.703Z" fill="white"/>
<path d="M40.3262 22.7112V22.5233C40.3262 21.8864 40.4199 21.2956 40.6074 20.7512C40.7949 20.2013 41.0652 19.7249 41.4181 19.3221C41.7766 18.9137 42.2123 18.598 42.7251 18.3747C43.2435 18.1461 43.8281 18.0317 44.4789 18.0317C45.1352 18.0317 45.7197 18.1461 46.2326 18.3747C46.751 18.598 47.1895 18.9137 47.5479 19.3221C47.9064 19.7249 48.1794 20.2013 48.3669 20.7512C48.5544 21.2956 48.6481 21.8864 48.6481 22.5233V22.7112C48.6481 23.3482 48.5544 23.9389 48.3669 24.4833C48.1794 25.0278 47.9064 25.5041 47.5479 25.9125C47.1895 26.3153 46.7538 26.6311 46.2409 26.8598C45.728 27.083 45.1462 27.1946 44.4954 27.1946C43.8392 27.1946 43.2518 27.083 42.7334 26.8598C42.2205 26.6311 41.7849 26.3153 41.4264 25.9125C41.0679 25.5041 40.7949 25.0278 40.6074 24.4833C40.4199 23.9389 40.3262 23.3482 40.3262 22.7112ZM42.3198 22.5233V22.7112C42.3198 23.1086 42.3612 23.4843 42.4439 23.8382C42.5266 24.192 42.6562 24.5024 42.8327 24.7691C43.0092 25.0359 43.2353 25.2455 43.511 25.398C43.7868 25.5504 44.1149 25.6266 44.4954 25.6266C44.8649 25.6266 45.1848 25.5504 45.455 25.398C45.7308 25.2455 45.9569 25.0359 46.1334 24.7691C46.3098 24.5024 46.4394 24.192 46.5222 23.8382C46.6104 23.4843 46.6545 23.1086 46.6545 22.7112V22.5233C46.6545 22.1313 46.6104 21.7611 46.5222 21.4127C46.4394 21.0588 46.3071 20.7458 46.1251 20.4735C45.9486 20.2013 45.7225 19.989 45.4467 19.8365C45.1765 19.6787 44.8539 19.5997 44.4789 19.5997C44.1039 19.5997 43.7785 19.6787 43.5027 19.8365C43.2325 19.989 43.0092 20.2013 42.8327 20.4735C42.6562 20.7458 42.5266 21.0588 42.4439 21.4127C42.3612 21.7611 42.3198 22.1313 42.3198 22.5233Z" fill="white"/>
<path d="M52.379 24.1567L55.8947 18.1951H57.8883V27.0313H55.8947V21.0615L52.379 27.0313H50.3853V18.1951H52.379V24.1567Z" fill="white"/>
<path d="M64.1505 18.1951V27.0313H62.1486V18.1951H64.1505ZM67.0872 18.1951V19.7467H59.2615V18.1951H67.0872Z" fill="white"/>
<path d="M71.7528 27.1946C71.091 27.1946 70.4926 27.0884 69.9577 26.8761C69.4283 26.6583 68.976 26.3562 68.601 25.9696C68.2315 25.5831 67.9475 25.1285 67.749 24.6058C67.5504 24.0832 67.4512 23.5197 67.4512 22.9153V22.5887C67.4512 21.8972 67.5532 21.2711 67.7572 20.7104C67.9613 20.1496 68.2453 19.6705 68.6093 19.2731C68.9733 18.8702 69.4034 18.5626 69.8998 18.3502C70.3961 18.1379 70.9338 18.0317 71.5129 18.0317C72.1526 18.0317 72.7124 18.1379 73.1922 18.3502C73.672 18.5626 74.069 18.862 74.3834 19.2486C74.7032 19.6297 74.9404 20.0843 75.0948 20.6124C75.2547 21.1405 75.3347 21.723 75.3347 22.36V23.2012H68.419V21.7884H73.3659V21.6332C73.3549 21.2793 73.2832 20.9472 73.1508 20.6369C73.024 20.3265 72.8282 20.0761 72.5635 19.8855C72.2988 19.695 71.9458 19.5997 71.5046 19.5997C71.1737 19.5997 70.8787 19.6705 70.6195 19.812C70.3658 19.9482 70.1535 20.1469 69.9825 20.4082C69.8115 20.6695 69.6792 20.9853 69.5854 21.3555C69.4972 21.7203 69.4531 22.1313 69.4531 22.5887V22.9153C69.4531 23.3019 69.5055 23.6612 69.6102 23.9933C69.7205 24.32 69.8805 24.6058 70.09 24.8508C70.2996 25.0958 70.5533 25.2891 70.8511 25.4306C71.1489 25.5667 71.4881 25.6348 71.8686 25.6348C72.3484 25.6348 72.7758 25.5395 73.1508 25.349C73.5258 25.1584 73.8512 24.8889 74.1269 24.5405L75.1775 25.545C74.9845 25.8226 74.7336 26.0894 74.4247 26.3453C74.1159 26.5957 73.7381 26.7999 73.2914 26.9578C72.8502 27.1157 72.3374 27.1946 71.7528 27.1946Z" fill="white"/>
<path d="M82.9039 18.1951V19.763H78.5361V18.1951H82.9039ZM84.4674 18.1951V27.0313H82.4737V18.1951H84.4674ZM78.048 18.1951H80.0168L79.7769 22.5642C79.7439 23.2121 79.6777 23.7837 79.5784 24.2792C79.4847 24.7691 79.3578 25.1911 79.1979 25.545C79.0379 25.8934 78.8422 26.1765 78.6105 26.3943C78.3789 26.6121 78.1087 26.7727 77.7999 26.8761C77.491 26.9796 77.1436 27.0313 76.7575 27.0313H76.1371L76.1288 25.4143L76.4432 25.3898C76.6472 25.3735 76.8237 25.3217 76.9726 25.2346C77.1215 25.1421 77.2484 25.0114 77.3531 24.8426C77.4634 24.6739 77.5517 24.4561 77.6179 24.1893C77.6896 23.9225 77.7447 23.6068 77.7833 23.242C77.8274 22.8772 77.8605 22.4526 77.8826 21.968L78.048 18.1951Z" fill="white"/>
<path d="M88.0658 21.0044H90.7047C91.4768 21.0044 92.1331 21.1323 92.6735 21.3882C93.214 21.6441 93.6248 22.0007 93.9061 22.458C94.1929 22.9099 94.3363 23.4271 94.3363 24.0097C94.3363 24.4398 94.2563 24.8399 94.0964 25.2101C93.9364 25.5749 93.6993 25.8934 93.3849 26.1656C93.0761 26.4378 92.6956 26.6502 92.2434 26.8026C91.7966 26.9551 91.2838 27.0313 90.7047 27.0313H86.7422V18.1951H88.7442V25.4715H90.7047C91.1018 25.4715 91.4189 25.4034 91.656 25.2673C91.8932 25.1312 92.0641 24.9543 92.1689 24.7365C92.2792 24.5187 92.3343 24.2873 92.3343 24.0423C92.3343 23.7919 92.2792 23.555 92.1689 23.3318C92.0641 23.1086 91.8932 22.9262 91.656 22.7847C91.4189 22.6431 91.1018 22.5723 90.7047 22.5723H88.0658V21.0044Z" fill="white"/>
<path d="M102.046 21.8864V23.438H97.4136V21.8864H102.046ZM97.9926 18.1951V27.0313H95.999V18.1951H97.9926ZM103.485 18.1951V27.0313H101.492V18.1951H103.485Z" fill="white"/>
<path d="M110.658 25.2591V21.0452C110.658 20.7294 110.6 20.4572 110.484 20.2285C110.368 19.9999 110.192 19.8229 109.954 19.6977C109.723 19.5725 109.431 19.5099 109.078 19.5099C108.752 19.5099 108.471 19.5643 108.234 19.6732C107.997 19.7821 107.812 19.9291 107.68 20.1142C107.547 20.2993 107.481 20.5089 107.481 20.743H105.496C105.496 20.3946 105.581 20.057 105.752 19.7304C105.923 19.4037 106.171 19.1124 106.497 18.8566C106.822 18.6007 107.211 18.3992 107.663 18.2522C108.115 18.1052 108.623 18.0317 109.185 18.0317C109.858 18.0317 110.454 18.1433 110.972 18.3666C111.496 18.5898 111.907 18.9273 112.205 19.3792C112.508 19.8257 112.659 20.3864 112.659 21.0615V24.9896C112.659 25.3925 112.687 25.7546 112.742 26.0758C112.803 26.3916 112.888 26.6665 112.999 26.9006V27.0313H110.955C110.862 26.8189 110.787 26.5495 110.732 26.2228C110.682 25.8907 110.658 25.5695 110.658 25.2591ZM110.947 21.6577L110.964 22.8745H109.533C109.163 22.8745 108.838 22.9099 108.556 22.9807C108.275 23.046 108.041 23.144 107.853 23.2747C107.666 23.4053 107.525 23.5632 107.431 23.7483C107.338 23.9334 107.291 24.143 107.291 24.3771C107.291 24.6113 107.346 24.8263 107.456 25.0223C107.566 25.2129 107.726 25.3626 107.936 25.4715C108.151 25.5804 108.41 25.6348 108.714 25.6348C109.122 25.6348 109.477 25.5531 109.781 25.3898C110.09 25.221 110.332 25.0169 110.509 24.7773C110.685 24.5323 110.779 24.3009 110.79 24.0832L111.435 24.957C111.369 25.1802 111.256 25.4197 111.096 25.6756C110.936 25.9315 110.727 26.1765 110.467 26.4106C110.214 26.6393 109.908 26.8271 109.549 26.9741C109.196 27.1211 108.788 27.1946 108.325 27.1946C107.74 27.1946 107.219 27.0803 106.761 26.8516C106.304 26.6175 105.945 26.3045 105.686 25.9125C105.427 25.515 105.297 25.0659 105.297 24.565C105.297 24.0968 105.385 23.683 105.562 23.3237C105.744 22.9589 106.009 22.654 106.356 22.409C106.709 22.164 107.139 21.9789 107.646 21.8537C108.154 21.723 108.733 21.6577 109.384 21.6577H110.947Z" fill="white"/>
<path d="M116.63 22.7112H118.698L116.159 27.0313H114.099L116.63 22.7112ZM118.086 18.1951H121.924V27.0313H119.939V19.7467H118.086C117.711 19.7467 117.402 19.812 117.16 19.9427C116.917 20.0679 116.738 20.234 116.622 20.4409C116.506 20.6423 116.448 20.8492 116.448 21.0615C116.448 21.2739 116.501 21.478 116.605 21.674C116.716 21.87 116.884 22.0306 117.11 22.1558C117.342 22.2811 117.631 22.3437 117.979 22.3437H120.609V23.781H117.979C117.427 23.781 116.934 23.7129 116.498 23.5768C116.062 23.4353 115.693 23.242 115.389 22.997C115.086 22.7466 114.854 22.4553 114.694 22.1232C114.535 21.7856 114.455 21.4181 114.455 21.0207C114.455 20.6124 114.537 20.2367 114.703 19.8937C114.868 19.5507 115.105 19.2513 115.414 18.9954C115.729 18.7395 116.109 18.5435 116.556 18.4074C117.008 18.2658 117.518 18.1951 118.086 18.1951Z" fill="white"/>
<path d="M130.511 18.1951V27.0313H128.518V18.1951H130.511ZM136.351 18.1951L132.323 23.5115H130.048L129.783 21.7312H131.446L133.861 18.1951H136.351ZM134.019 27.0313L131.322 23.1767L132.894 22.0578L136.641 27.0313H134.019Z" fill="white"/>
<path d="M137.046 22.7112V22.5233C137.046 21.8864 137.14 21.2956 137.328 20.7512C137.515 20.2013 137.785 19.7249 138.138 19.3221C138.497 18.9137 138.932 18.598 139.445 18.3747C139.964 18.1461 140.548 18.0317 141.199 18.0317C141.855 18.0317 142.44 18.1461 142.953 18.3747C143.471 18.598 143.91 18.9137 144.268 19.3221C144.627 19.7249 144.9 20.2013 145.087 20.7512C145.275 21.2956 145.368 21.8864 145.368 22.5233V22.7112C145.368 23.3482 145.275 23.9389 145.087 24.4833C144.9 25.0278 144.627 25.5041 144.268 25.9125C143.91 26.3153 143.474 26.6311 142.961 26.8598C142.448 27.083 141.866 27.1946 141.216 27.1946C140.559 27.1946 139.972 27.083 139.454 26.8598C138.941 26.6311 138.505 26.3153 138.147 25.9125C137.788 25.5041 137.515 25.0278 137.328 24.4833C137.14 23.9389 137.046 23.3482 137.046 22.7112ZM139.04 22.5233V22.7112C139.04 23.1086 139.081 23.4843 139.164 23.8382C139.247 24.192 139.376 24.5024 139.553 24.7691C139.729 25.0359 139.955 25.2455 140.231 25.398C140.507 25.5504 140.835 25.6266 141.216 25.6266C141.585 25.6266 141.905 25.5504 142.175 25.398C142.451 25.2455 142.677 25.0359 142.854 24.7691C143.03 24.5024 143.16 24.192 143.242 23.8382C143.331 23.4843 143.375 23.1086 143.375 22.7112V22.5233C143.375 22.1313 143.331 21.7611 143.242 21.4127C143.16 21.0588 143.027 20.7458 142.845 20.4735C142.669 20.2013 142.443 19.989 142.167 19.8365C141.897 19.6787 141.574 19.5997 141.199 19.5997C140.824 19.5997 140.499 19.6787 140.223 19.8365C139.953 19.989 139.729 20.2013 139.553 20.4735C139.376 20.7458 139.247 21.0588 139.164 21.4127C139.081 21.7611 139.04 22.1313 139.04 22.5233Z" fill="white"/>
<path d="M152.358 24.6466L155.022 18.1951H156.751L153.037 27.0313H151.68L147.974 18.1951H149.703L152.358 24.6466ZM149.19 18.1951V27.0313H147.196V18.1951H149.19ZM155.527 27.0313V18.1951H157.529V27.0313H155.527Z" fill="white"/>
<path d="M165.768 18.1951V19.763H161.35V18.1951H165.768ZM161.822 18.1951V27.0313H159.828V18.1951H161.822ZM167.331 18.1951V27.0313H165.329V18.1951H167.331Z" fill="white"/>
<path d="M174.487 25.2591V21.0452C174.487 20.7294 174.429 20.4572 174.313 20.2285C174.197 19.9999 174.021 19.8229 173.784 19.6977C173.552 19.5725 173.26 19.5099 172.907 19.5099C172.582 19.5099 172.3 19.5643 172.063 19.6732C171.826 19.7821 171.641 19.9291 171.509 20.1142C171.377 20.2993 171.31 20.5089 171.31 20.743H169.325C169.325 20.3946 169.41 20.057 169.581 19.7304C169.752 19.4037 170.001 19.1124 170.326 18.8566C170.651 18.6007 171.04 18.3992 171.492 18.2522C171.945 18.1052 172.452 18.0317 173.014 18.0317C173.687 18.0317 174.283 18.1433 174.801 18.3666C175.325 18.5898 175.736 18.9273 176.034 19.3792C176.337 19.8257 176.489 20.3864 176.489 21.0615V24.9896C176.489 25.3925 176.516 25.7546 176.572 26.0758C176.632 26.3916 176.718 26.6665 176.828 26.9006V27.0313H174.785C174.691 26.8189 174.617 26.5495 174.561 26.2228C174.512 25.8907 174.487 25.5695 174.487 25.2591ZM174.776 21.6577L174.793 22.8745H173.362C172.992 22.8745 172.667 22.9099 172.386 22.9807C172.104 23.046 171.87 23.144 171.683 23.2747C171.495 23.4053 171.354 23.5632 171.261 23.7483C171.167 23.9334 171.12 24.143 171.12 24.3771C171.12 24.6113 171.175 24.8263 171.286 25.0223C171.396 25.2129 171.556 25.3626 171.765 25.4715C171.98 25.5804 172.24 25.6348 172.543 25.6348C172.951 25.6348 173.307 25.5531 173.61 25.3898C173.919 25.221 174.162 25.0169 174.338 24.7773C174.514 24.5323 174.608 24.3009 174.619 24.0832L175.265 24.957C175.198 25.1802 175.085 25.4197 174.925 25.6756C174.765 25.9315 174.556 26.1765 174.297 26.4106C174.043 26.6393 173.737 26.8271 173.378 26.9741C173.025 27.1211 172.617 27.1946 172.154 27.1946C171.57 27.1946 171.048 27.0803 170.591 26.8516C170.133 26.6175 169.774 26.3045 169.515 25.9125C169.256 25.515 169.126 25.0659 169.126 24.565C169.126 24.0968 169.215 23.683 169.391 23.3237C169.573 22.9589 169.838 22.654 170.185 22.409C170.538 22.164 170.968 21.9789 171.476 21.8537C171.983 21.723 172.562 21.6577 173.213 21.6577H174.776Z" fill="white"/>
<path d="M184.687 21.8864V23.438H180.054V21.8864H184.687ZM180.633 18.1951V27.0313H178.64V18.1951H180.633ZM186.126 18.1951V27.0313H184.132V18.1951H186.126Z" fill="white"/>
<path d="M190.312 24.1567L193.828 18.1951H195.821V27.0313H193.828V21.0615L190.312 27.0313H188.318V18.1951H190.312V24.1567Z" fill="white"/>
<path d="M199.817 22.7112H201.885L199.345 27.0313H197.285L199.817 22.7112ZM201.273 18.1951H205.111V27.0313H203.126V19.7467H201.273C200.898 19.7467 200.589 19.812 200.346 19.9427C200.104 20.0679 199.924 20.234 199.809 20.4409C199.693 20.6423 199.635 20.8492 199.635 21.0615C199.635 21.2739 199.687 21.478 199.792 21.674C199.902 21.87 200.07 22.0306 200.297 22.1558C200.528 22.2811 200.818 22.3437 201.165 22.3437H203.796V23.781H201.165C200.614 23.781 200.12 23.7129 199.684 23.5768C199.249 23.4353 198.879 23.242 198.576 22.997C198.273 22.7466 198.041 22.4553 197.881 22.1232C197.721 21.7856 197.641 21.4181 197.641 21.0207C197.641 20.6124 197.724 20.2367 197.889 19.8937C198.055 19.5507 198.292 19.2513 198.601 18.9954C198.915 18.7395 199.296 18.5435 199.742 18.4074C200.195 18.2658 200.705 18.1951 201.273 18.1951Z" fill="white"/>
<rect x="1.5" y="1.5" width="214.508" height="68" stroke="url(#paint0_linear_405_9)" stroke-width="3"/>
<defs>
<linearGradient id="paint0_linear_405_9" x1="8.05049e-07" y1="4.50793" x2="217.508" y2="74.3809" gradientUnits="userSpaceOnUse">
<stop stop-color="#38A74C"/>
<stop offset="1" stop-color="#A0C050"/>
</linearGradient>
</defs>
</svg>
