<svg width="235" height="92" viewBox="0 0 235 92" fill="none" xmlns="http://www.w3.org/2000/svg">
<path d="M108.853 18.229C108.384 18.229 107.963 18.1301 107.59 17.9324C107.217 17.7347 106.926 17.4607 106.717 17.1104C106.508 16.7545 106.404 16.3534 106.404 15.9071C106.404 15.4608 106.508 15.0626 106.717 14.7123C106.926 14.3621 107.215 14.0881 107.582 13.8903C107.955 13.6926 108.378 13.5938 108.853 13.5938C109.299 13.5938 109.689 13.6841 110.022 13.8649C110.361 14.0457 110.615 14.3056 110.785 14.6445L109.971 15.1191C109.841 14.91 109.678 14.7547 109.48 14.653C109.288 14.5457 109.076 14.492 108.844 14.492C108.449 14.492 108.121 14.6219 107.861 14.8818C107.602 15.136 107.472 15.4778 107.472 15.9071C107.472 16.3365 107.599 16.6811 107.853 16.941C108.113 17.1952 108.443 17.3223 108.844 17.3223C109.076 17.3223 109.288 17.2714 109.48 17.1698C109.678 17.0624 109.841 16.9042 109.971 16.6952L110.785 17.1698C110.61 17.5087 110.353 17.7714 110.014 17.9578C109.68 18.1386 109.293 18.229 108.853 18.229Z" fill="white"/>
<path d="M116.193 14.5428H114.608V18.1697H113.549V14.5428H111.956V13.6446H116.193V14.5428Z" fill="white"/>
<path d="M120.401 13.5938C120.842 13.5938 121.235 13.6898 121.579 13.8819C121.93 14.0739 122.204 14.3451 122.401 14.6954C122.599 15.0456 122.698 15.4495 122.698 15.9071C122.698 16.3647 122.599 16.7715 122.401 17.1274C122.204 17.4776 121.93 17.7488 121.579 17.9409C121.235 18.133 120.842 18.229 120.401 18.229C119.791 18.229 119.308 18.0256 118.952 17.6189V19.8136H117.893V13.6446H118.902V14.2378C119.077 14.0231 119.291 13.8621 119.546 13.7548C119.805 13.6474 120.091 13.5938 120.401 13.5938ZM120.283 17.3223C120.673 17.3223 120.992 17.1924 121.24 16.9325C121.495 16.6726 121.622 16.3308 121.622 15.9071C121.622 15.4834 121.495 15.1417 121.24 14.8818C120.992 14.6219 120.673 14.492 120.283 14.492C120.029 14.492 119.8 14.5513 119.596 14.6699C119.393 14.7829 119.232 14.9468 119.113 15.1614C118.995 15.3761 118.936 15.6247 118.936 15.9071C118.936 16.1896 118.995 16.4382 119.113 16.6528C119.232 16.8675 119.393 17.0342 119.596 17.1528C119.8 17.2658 120.029 17.3223 120.283 17.3223Z" fill="white"/>
<path d="M126.701 18.229C126.243 18.229 125.831 18.1301 125.464 17.9324C125.097 17.7347 124.809 17.4607 124.6 17.1104C124.396 16.7545 124.294 16.3534 124.294 15.9071C124.294 15.4608 124.396 15.0626 124.6 14.7123C124.809 14.3621 125.097 14.0881 125.464 13.8903C125.831 13.6926 126.243 13.5938 126.701 13.5938C127.164 13.5938 127.58 13.6926 127.947 13.8903C128.314 14.0881 128.599 14.3621 128.803 14.7123C129.012 15.0626 129.116 15.4608 129.116 15.9071C129.116 16.3534 129.012 16.7545 128.803 17.1104C128.599 17.4607 128.314 17.7347 127.947 17.9324C127.58 18.1301 127.164 18.229 126.701 18.229ZM126.701 17.3223C127.091 17.3223 127.413 17.1924 127.667 16.9325C127.921 16.6726 128.048 16.3308 128.048 15.9071C128.048 15.4834 127.921 15.1417 127.667 14.8818C127.413 14.6219 127.091 14.492 126.701 14.492C126.311 14.492 125.989 14.6219 125.735 14.8818C125.486 15.1417 125.362 15.4834 125.362 15.9071C125.362 16.3308 125.486 16.6726 125.735 16.9325C125.989 17.1924 126.311 17.3223 126.701 17.3223Z" fill="white"/>
<path d="M131.095 13.6446H132.154V16.6274L134.654 13.6446H135.62V18.1697H134.561V15.1869L132.069 18.1697H131.095V13.6446Z" fill="white"/>
<path d="M141.561 14.5428H139.977V18.1697H138.917V14.5428H137.324V13.6446H141.561V14.5428Z" fill="white"/>
<path d="M147.3 15.9326C147.3 16.006 147.294 16.1105 147.283 16.2461H143.733C143.795 16.5794 143.956 16.8449 144.216 17.0426C144.481 17.2347 144.809 17.3308 145.199 17.3308C145.696 17.3308 146.105 17.1669 146.427 16.8393L146.995 17.4918C146.792 17.7347 146.535 17.9183 146.224 18.0426C145.913 18.1669 145.563 18.229 145.173 18.229C144.676 18.229 144.238 18.1301 143.86 17.9324C143.481 17.7347 143.187 17.4607 142.978 17.1104C142.775 16.7545 142.673 16.3534 142.673 15.9071C142.673 15.4665 142.772 15.071 142.97 14.7208C143.173 14.3649 143.453 14.0881 143.809 13.8903C144.165 13.6926 144.566 13.5938 145.012 13.5938C145.453 13.5938 145.845 13.6926 146.19 13.8903C146.54 14.0824 146.811 14.3564 147.004 14.7123C147.201 15.0626 147.3 15.4693 147.3 15.9326ZM145.012 14.4411C144.673 14.4411 144.385 14.5428 144.148 14.7462C143.916 14.9439 143.775 15.2094 143.724 15.5428H146.292C146.247 15.2151 146.108 14.9496 145.876 14.7462C145.645 14.5428 145.357 14.4411 145.012 14.4411Z" fill="white"/>
<path d="M153.434 13.6446V18.1697H152.375V14.5428H150.68L150.638 15.4411C150.61 16.0399 150.553 16.5427 150.468 16.9494C150.389 17.3505 150.251 17.6697 150.053 17.907C149.861 18.1386 149.596 18.2544 149.257 18.2544C149.098 18.2544 148.904 18.2233 148.672 18.1612L148.723 17.2714C148.802 17.2884 148.87 17.2969 148.926 17.2969C149.141 17.2969 149.302 17.2121 149.409 17.0426C149.516 16.8675 149.584 16.6613 149.613 16.424C149.646 16.1811 149.675 15.8365 149.697 15.3902L149.774 13.6446H153.434Z" fill="white"/>
<path d="M158.064 15.136C158.64 15.136 159.081 15.2659 159.386 15.5258C159.697 15.7857 159.852 16.1529 159.852 16.6274C159.852 17.1246 159.682 17.5087 159.343 17.7799C159.005 18.051 158.527 18.1838 157.911 18.1782L155.793 18.1697V13.6446H156.852V15.1275L158.064 15.136ZM157.818 17.3986C158.129 17.4042 158.366 17.3392 158.53 17.2036C158.694 17.0681 158.776 16.8703 158.776 16.6105C158.776 16.3563 158.697 16.1698 158.538 16.0512C158.38 15.9326 158.14 15.8704 157.818 15.8648L156.852 15.8563V17.3901L157.818 17.3986Z" fill="white"/>
<path d="M163.774 18.229C163.305 18.229 162.884 18.1301 162.512 17.9324C162.139 17.7347 161.848 17.4607 161.639 17.1104C161.43 16.7545 161.325 16.3534 161.325 15.9071C161.325 15.4608 161.43 15.0626 161.639 14.7123C161.848 14.3621 162.136 14.0881 162.503 13.8903C162.876 13.6926 163.3 13.5938 163.774 13.5938C164.221 13.5938 164.61 13.6841 164.944 13.8649C165.283 14.0457 165.537 14.3056 165.706 14.6445L164.893 15.1191C164.763 14.91 164.599 14.7547 164.401 14.653C164.209 14.5457 163.997 14.492 163.766 14.492C163.37 14.492 163.043 14.6219 162.783 14.8818C162.523 15.136 162.393 15.4778 162.393 15.9071C162.393 16.3365 162.52 16.6811 162.774 16.941C163.034 17.1952 163.365 17.3223 163.766 17.3223C163.997 17.3223 164.209 17.2714 164.401 17.1698C164.599 17.0624 164.763 16.9042 164.893 16.6952L165.706 17.1698C165.531 17.5087 165.274 17.7714 164.935 17.9578C164.602 18.1386 164.215 18.229 163.774 18.229Z" fill="white"/>
<path d="M171.114 14.5428H169.53V18.1697H168.47V14.5428H166.877V13.6446H171.114V14.5428Z" fill="white"/>
<path d="M176.094 15.8139C176.653 15.9834 176.933 16.345 176.933 16.8986C176.933 17.3053 176.78 17.6189 176.475 17.8392C176.17 18.0595 175.718 18.1697 175.12 18.1697H172.815V13.6446H175.026C175.58 13.6446 176.012 13.7463 176.323 13.9497C176.634 14.153 176.789 14.4411 176.789 14.814C176.789 15.0456 176.727 15.2462 176.602 15.4156C176.484 15.5851 176.314 15.7179 176.094 15.8139ZM173.823 15.5343H174.933C175.481 15.5343 175.755 15.345 175.755 14.9665C175.755 14.5993 175.481 14.4157 174.933 14.4157H173.823V15.5343ZM175.035 17.3986C175.617 17.3986 175.908 17.2093 175.908 16.8308C175.908 16.6331 175.84 16.4862 175.704 16.3902C175.569 16.2885 175.357 16.2376 175.069 16.2376H173.823V17.3986H175.035Z" fill="white"/>
<path d="M181.01 18.229C180.553 18.229 180.14 18.1301 179.773 17.9324C179.406 17.7347 179.118 17.4607 178.909 17.1104C178.705 16.7545 178.604 16.3534 178.604 15.9071C178.604 15.4608 178.705 15.0626 178.909 14.7123C179.118 14.3621 179.406 14.0881 179.773 13.8903C180.14 13.6926 180.553 13.5938 181.01 13.5938C181.473 13.5938 181.889 13.6926 182.256 13.8903C182.623 14.0881 182.908 14.3621 183.112 14.7123C183.321 15.0626 183.425 15.4608 183.425 15.9071C183.425 16.3534 183.321 16.7545 183.112 17.1104C182.908 17.4607 182.623 17.7347 182.256 17.9324C181.889 18.1301 181.473 18.229 181.01 18.229ZM181.01 17.3223C181.4 17.3223 181.722 17.1924 181.976 16.9325C182.23 16.6726 182.357 16.3308 182.357 15.9071C182.357 15.4834 182.23 15.1417 181.976 14.8818C181.722 14.6219 181.4 14.492 181.01 14.492C180.62 14.492 180.298 14.6219 180.044 14.8818C179.796 15.1417 179.671 15.4834 179.671 15.9071C179.671 16.3308 179.796 16.6726 180.044 16.9325C180.298 17.1924 180.62 17.3223 181.01 17.3223Z" fill="white"/>
<path fill-rule="evenodd" clip-rule="evenodd" d="M139.047 71.592C136.897 71.592 134.954 71.1284 133.219 70.2014C131.502 69.2743 130.151 68.0021 129.165 66.3846C128.199 64.7475 127.715 62.9131 127.715 60.8814C127.715 58.8498 128.199 57.0252 129.165 55.4078C130.151 53.7707 131.502 52.4886 133.219 51.5615C134.954 50.6344 136.897 50.1709 139.047 50.1709C141.197 50.1709 143.13 50.6344 144.846 51.5615C146.562 52.4886 147.913 53.7707 148.9 55.4078C149.886 57.0252 150.379 58.8498 150.379 60.8814C150.379 62.9131 149.886 64.7475 148.9 66.3846C147.913 68.0021 146.562 69.2743 144.846 70.2014C143.13 71.1284 141.197 71.592 139.047 71.592ZM139.047 67.5089C140.27 67.5089 141.375 67.2328 142.361 66.6805C143.347 66.1085 144.116 65.3195 144.669 64.3135C145.241 63.3076 145.527 62.1635 145.527 60.8814C145.527 59.5993 145.241 58.4553 144.669 57.4493C144.116 56.4434 143.347 55.6642 142.361 55.1119C141.375 54.5399 140.27 54.2539 139.047 54.2539C137.824 54.2539 136.72 54.5399 135.733 55.1119C134.747 55.6642 133.968 56.4434 133.396 57.4493C132.844 58.4553 132.568 59.5993 132.568 60.8814C132.568 62.1635 132.844 63.3076 133.396 64.3135C133.968 65.3195 134.747 66.1085 135.733 66.6805C136.72 67.2328 137.824 67.5089 139.047 67.5089Z" fill="white"/>
<path fill-rule="evenodd" clip-rule="evenodd" d="M121.5 71.2646H125.938V67.3314H123.039V50.5259H107.121L106.884 57.0055C106.766 60.2995 106.45 62.8342 105.938 64.6094C105.425 66.3846 104.547 67.292 103.304 67.3314H102.476L102.462 71.2646H106.884V71.2369H121.5V71.2646ZM111.115 57.4493C111.017 59.9149 110.81 61.986 110.494 63.6626C110.178 65.3195 109.695 66.5424 109.044 67.3314H118.305V54.4314H111.204L111.115 57.4493Z" fill="white"/>
<path d="M172.889 58.8399L172.918 71.2369H177.416L177.386 50.5259H173.421L165.788 63.3963L158.036 50.5259H154.071V71.2369H158.569V59.0766L164.664 69.0475H166.794L172.889 58.8399Z" fill="white"/>
<path d="M115.604 36.9756C115.229 36.4792 114.705 36.1151 114.032 35.8835C114.551 35.6518 114.959 35.3209 115.257 34.8906C115.555 34.4604 115.703 33.9695 115.703 33.4179C115.703 32.745 115.477 32.1548 115.025 31.6474C114.573 31.1399 113.966 30.7538 113.205 30.4891C112.444 30.2243 111.611 30.0919 110.706 30.0919C109.283 30.0919 107.959 30.4063 106.735 31.0351L107.546 33.1201C108.031 32.8443 108.544 32.6402 109.085 32.5078C109.625 32.3644 110.149 32.2927 110.657 32.2927C111.34 32.2927 111.898 32.4196 112.328 32.6733C112.769 32.927 112.99 33.28 112.99 33.7323C112.99 34.1184 112.835 34.4218 112.526 34.6424C112.229 34.863 111.809 34.9734 111.269 34.9734H108.638V36.9921H111.467C112.085 36.9921 112.57 37.1024 112.923 37.3231C113.288 37.5437 113.47 37.8691 113.47 38.2994C113.47 38.8178 113.205 39.2205 112.675 39.5073C112.157 39.7941 111.5 39.9375 110.706 39.9375C110.121 39.9375 109.52 39.8603 108.903 39.7059C108.296 39.5404 107.739 39.3032 107.231 38.9943L106.404 40.9138C107.11 41.322 107.855 41.6254 108.638 41.8239C109.432 42.0225 110.226 42.1218 111.021 42.1218C111.958 42.1218 112.819 41.9839 113.602 41.7081C114.396 41.4323 115.025 41.0352 115.488 40.5167C115.952 39.9982 116.183 39.386 116.183 38.6799C116.183 38.0291 115.99 37.461 115.604 36.9756Z" fill="white"/>
<path fill-rule="evenodd" clip-rule="evenodd" d="M120.771 39.4411H126.149L127.175 41.9232H129.988L124.809 30.3401H122.161L116.998 41.9232H119.745L120.771 39.4411ZM123.468 32.9711L125.305 37.4058H121.631L123.468 32.9711Z" fill="white"/>
<path d="M139.682 32.5244H134.171L134.188 41.9232H131.524V30.3401H139.698L139.682 32.5244Z" fill="white"/>
<path fill-rule="evenodd" clip-rule="evenodd" d="M142.42 41.3441C143.391 41.8625 144.477 42.1218 145.68 42.1218C146.882 42.1218 147.963 41.8625 148.923 41.3441C149.883 40.8256 150.638 40.114 151.19 39.2095C151.742 38.2938 152.017 37.2679 152.017 36.1317C152.017 34.9954 151.742 33.975 151.19 33.0704C150.638 32.1548 149.883 31.4378 148.923 30.9193C147.963 30.4008 146.882 30.1416 145.68 30.1416C144.477 30.1416 143.391 30.4008 142.42 30.9193C141.46 31.4378 140.705 32.1548 140.153 33.0704C139.612 33.975 139.342 34.9954 139.342 36.1317C139.342 37.2679 139.612 38.2938 140.153 39.2095C140.705 40.114 141.46 40.8256 142.42 41.3441ZM147.533 39.3749C146.982 39.6838 146.364 39.8383 145.68 39.8383C144.996 39.8383 144.378 39.6838 143.827 39.3749C143.275 39.055 142.839 38.6138 142.519 38.0511C142.21 37.4885 142.056 36.8487 142.056 36.1317C142.056 35.4146 142.21 34.7748 142.519 34.2122C142.839 33.6496 143.275 33.2138 143.827 32.905C144.378 32.585 144.996 32.4251 145.68 32.4251C146.364 32.4251 146.982 32.585 147.533 32.905C148.085 33.2138 148.515 33.6496 148.824 34.2122C149.144 34.7748 149.304 35.4146 149.304 36.1317C149.304 36.8487 149.144 37.4885 148.824 38.0511C148.515 38.6138 148.085 39.055 147.533 39.3749Z" fill="white"/>
<path fill-rule="evenodd" clip-rule="evenodd" d="M159.096 30.3401C160.122 30.3401 161.01 30.5111 161.76 30.8531C162.522 31.1951 163.106 31.6805 163.514 32.3093C163.923 32.938 164.127 33.6827 164.127 34.5431C164.127 35.3926 163.923 36.1372 163.514 36.777C163.106 37.4058 162.522 37.8912 161.76 38.2332C161.01 38.5641 160.122 38.7296 159.096 38.7296H156.763V41.9232H154.082V30.3401H159.096ZM158.947 36.5453C159.753 36.5453 160.365 36.3744 160.784 36.0324C161.203 35.6794 161.413 35.183 161.413 34.5431C161.413 33.8923 161.203 33.3959 160.784 33.0539C160.365 32.7009 159.753 32.5244 158.947 32.5244H156.763V36.5453H158.947Z" fill="white"/>
<path fill-rule="evenodd" clip-rule="evenodd" d="M168.324 41.3441C169.294 41.8625 170.381 42.1218 171.583 42.1218C172.786 42.1218 173.867 41.8625 174.827 41.3441C175.786 40.8256 176.542 40.114 177.094 39.2095C177.645 38.2938 177.921 37.2679 177.921 36.1317C177.921 34.9954 177.645 33.975 177.094 33.0704C176.542 32.1548 175.786 31.4378 174.827 30.9193C173.867 30.4008 172.786 30.1416 171.583 30.1416C170.381 30.1416 169.294 30.4008 168.324 30.9193C167.364 31.4378 166.608 32.1548 166.057 33.0704C165.516 33.975 165.246 34.9954 165.246 36.1317C165.246 37.2679 165.516 38.2938 166.057 39.2095C166.608 40.114 167.364 40.8256 168.324 41.3441ZM173.437 39.3749C172.885 39.6838 172.267 39.8383 171.583 39.8383C170.899 39.8383 170.282 39.6838 169.73 39.3749C169.179 39.055 168.743 38.6138 168.423 38.0511C168.114 37.4885 167.96 36.8487 167.96 36.1317C167.96 35.4146 168.114 34.7748 168.423 34.2122C168.743 33.6496 169.179 33.2138 169.73 32.905C170.282 32.585 170.899 32.4251 171.583 32.4251C172.267 32.4251 172.885 32.585 173.437 32.905C173.988 33.2138 174.418 33.6496 174.727 34.2122C175.047 34.7748 175.207 35.4146 175.207 36.1317C175.207 36.8487 175.047 37.4885 174.727 38.0511C174.418 38.6138 173.988 39.055 173.437 39.3749Z" fill="white"/>
<path fill-rule="evenodd" clip-rule="evenodd" d="M191.61 41.9232V39.739H189.988V30.3401H181.086L180.954 33.964C180.887 35.8062 180.711 37.2238 180.424 38.2166C180.137 39.2095 179.646 39.7169 178.951 39.739H178.488L178.48 41.9232H191.61ZM183.32 34.2122C183.265 35.5911 183.149 36.7494 182.972 37.6871C182.796 38.6138 182.526 39.2977 182.161 39.739H187.341V32.5244H183.369L183.32 34.2122Z" fill="white"/>
<path d="M201.357 41.9232H204.038V30.3401H201.357V34.9072H196.095V30.3401H193.415V41.9232H196.095V37.1741H201.357V41.9232Z" fill="white"/>
<path fill-rule="evenodd" clip-rule="evenodd" d="M212.549 34.146C213.962 34.146 215.043 34.4604 215.793 35.0892C216.554 35.718 216.934 36.6501 216.934 37.8857C216.934 39.1984 216.515 40.2023 215.677 40.8973C214.85 41.5812 213.68 41.9232 212.169 41.9232H206.94V30.3401H209.604V34.146H212.549ZM212.02 39.9375C212.715 39.9375 213.255 39.7665 213.642 39.4246C214.039 39.0826 214.237 38.5862 214.237 37.9353C214.237 36.7329 213.498 36.1317 212.02 36.1317H209.604V39.9375H212.02Z" fill="white"/>
<path d="M218.407 30.3401H221.071V41.9232H218.407V30.3401Z" fill="white"/>
<path d="M226.62 30.3401H223.956V41.9232H226.488L232.014 34.3942V41.9232H234.662V30.3401H232.147L226.62 37.8857V30.3401Z" fill="white"/>
<rect x="226.669" y="26.4967" width="5.24897" height="1.92687" fill="white"/>
<g filter="url(#filter0_d_126_256)">
<mask id="path-5-inside-1_126_256" fill="white">
<path fill-rule="evenodd" clip-rule="evenodd" d="M10 6.88585V77.4353H18.6359L19.5654 56.5607L20.4332 77.4353H80.6274L80.6274 50.5248L80.6274 50.5019L65.6617 50.5248L48.4838 24.2452L34.7982 50.8622H32.7357L48.0198 21.8301H67.639V28.3113H74.9636V21.8301L80.6274 21.8205L80.6274 6.80798L10 6.88585ZM29.1038 40.4458C31.7868 36.2981 33.5289 30.4164 33.5289 23.7901C33.5289 18.2634 32.317 13.2547 30.3581 9.33802H12.53V43.5495C14.0746 45.0594 15.7502 46.0428 17.46 46.4861L18.4277 23.6501H20.7032L21.1086 33.2169L23.362 29.024L25.5906 30.2216L21.3185 38.1708L21.6709 46.4861C24.3584 45.7893 26.9611 43.7583 29.1038 40.4458ZM17.3509 49.0604C15.6479 48.7071 14.0272 47.952 12.53 46.8588V74.9053H16.2558L17.3509 49.0604ZM22.8751 74.9053L21.7799 49.0604C29.8419 47.3879 36.059 36.7114 36.059 23.7901C36.059 18.4243 34.9869 13.4456 33.1557 9.33802H78.0973V19.3H74.9636V13.3613H67.639V19.3H46.4925L28.5445 53.3923H34.3052V74.9053H22.8751ZM78.0973 53.0548V56.59H36.8353V53.1285L78.0973 53.0548ZM54.3989 59.12H78.0973V62.715H54.3989V59.12ZM54.3989 65.245H78.0973V68.8022H54.3989V65.245ZM54.3989 71.3323H78.0973V74.8965H54.3989V71.3323ZM51.8688 59.1203V74.9053H45.3603V59.1203H51.8688ZM42.8303 59.12H36.8353V62.715H42.8303V59.12ZM42.8303 65.245H36.8353V68.8022H42.8303V65.245ZM42.8303 71.3323H36.8353V74.8965H42.8303V71.3323ZM37.7787 50.5985H62.6873L60.354 47.0289H39.6141L37.7787 50.5985ZM40.915 44.4988H58.7002L56.3883 40.962H42.7335L40.915 44.4988ZM44.0344 38.4319H54.7345L52.405 34.8682H45.8667L44.0344 38.4319ZM47.1676 32.3381H50.7512L48.7453 29.2695L47.1676 32.3381ZM70.1691 15.8914V25.7813H72.4335V15.8914H70.1691Z"/>
</mask>
<path fill-rule="evenodd" clip-rule="evenodd" d="M10 6.88585V77.4353H18.6359L19.5654 56.5607L20.4332 77.4353H80.6274L80.6274 50.5248L80.6274 50.5019L65.6617 50.5248L48.4838 24.2452L34.7982 50.8622H32.7357L48.0198 21.8301H67.639V28.3113H74.9636V21.8301L80.6274 21.8205L80.6274 6.80798L10 6.88585ZM29.1038 40.4458C31.7868 36.2981 33.5289 30.4164 33.5289 23.7901C33.5289 18.2634 32.317 13.2547 30.3581 9.33802H12.53V43.5495C14.0746 45.0594 15.7502 46.0428 17.46 46.4861L18.4277 23.6501H20.7032L21.1086 33.2169L23.362 29.024L25.5906 30.2216L21.3185 38.1708L21.6709 46.4861C24.3584 45.7893 26.9611 43.7583 29.1038 40.4458ZM17.3509 49.0604C15.6479 48.7071 14.0272 47.952 12.53 46.8588V74.9053H16.2558L17.3509 49.0604ZM22.8751 74.9053L21.7799 49.0604C29.8419 47.3879 36.059 36.7114 36.059 23.7901C36.059 18.4243 34.9869 13.4456 33.1557 9.33802H78.0973V19.3H74.9636V13.3613H67.639V19.3H46.4925L28.5445 53.3923H34.3052V74.9053H22.8751ZM78.0973 53.0548V56.59H36.8353V53.1285L78.0973 53.0548ZM54.3989 59.12H78.0973V62.715H54.3989V59.12ZM54.3989 65.245H78.0973V68.8022H54.3989V65.245ZM54.3989 71.3323H78.0973V74.8965H54.3989V71.3323ZM51.8688 59.1203V74.9053H45.3603V59.1203H51.8688ZM42.8303 59.12H36.8353V62.715H42.8303V59.12ZM42.8303 65.245H36.8353V68.8022H42.8303V65.245ZM42.8303 71.3323H36.8353V74.8965H42.8303V71.3323ZM37.7787 50.5985H62.6873L60.354 47.0289H39.6141L37.7787 50.5985ZM40.915 44.4988H58.7002L56.3883 40.962H42.7335L40.915 44.4988ZM44.0344 38.4319H54.7345L52.405 34.8682H45.8667L44.0344 38.4319ZM47.1676 32.3381H50.7512L48.7453 29.2695L47.1676 32.3381ZM70.1691 15.8914V25.7813H72.4335V15.8914H70.1691Z" stroke="url(#paint0_linear_126_256)" stroke-width="4" shape-rendering="crispEdges" mask="url(#path-5-inside-1_126_256)"/>
</g>
<rect x="187.084" y="53.6638" width="47.578" height="2.30597" fill="#28B750"/>
<rect x="187.084" y="59.8389" width="47.578" height="2.30597" fill="#28B750"/>
<rect x="187.084" y="65.7932" width="47.578" height="2.30597" fill="#28B750"/>
<defs>
<filter id="filter0_d_126_256" x="0" y="0.807983" width="90.6274" height="90.6273" filterUnits="userSpaceOnUse" color-interpolation-filters="sRGB">
<feFlood flood-opacity="0" result="BackgroundImageFix"/>
<feColorMatrix in="SourceAlpha" type="matrix" values="0 0 0 0 0 0 0 0 0 0 0 0 0 0 0 0 0 0 127 0" result="hardAlpha"/>
<feOffset dy="4"/>
<feGaussianBlur stdDeviation="5"/>
<feComposite in2="hardAlpha" operator="out"/>
<feColorMatrix type="matrix" values="0 0 0 0 0.835294 0 0 0 0 0.678431 0 0 0 0 0.435294 0 0 0 0.2 0"/>
<feBlend mode="normal" in2="BackgroundImageFix" result="effect1_dropShadow_126_256"/>
<feBlend mode="normal" in="SourceGraphic" in2="effect1_dropShadow_126_256" result="shape"/>
</filter>
<linearGradient id="paint0_linear_126_256" x1="10" y1="48.5124" x2="80.6392" y2="48.3794" gradientUnits="userSpaceOnUse">
<stop stop-color="#28B750"/>
<stop offset="1" stop-color="#A6D554"/>
</linearGradient>
</defs>
</svg>
