<svg xmlns="http://www.w3.org/2000/svg" xmlns:xlink="http://www.w3.org/1999/xlink" xmlns:bx="https://boxy-svg.com">
    <symbol id="icon-btn-arrow" viewBox="0 0 26 17">
        <path d="M1.90186 8.67321H23.7672M23.7672 8.67321L17.4898 1.61983M23.7672 8.67321L17.4898 14.9507" stroke="white" stroke-width="3" stroke-linecap="round" stroke-linejoin="round"/>
    </symbol>
    <symbol id="icon-m-advantage-1" fill="none" viewBox="0 0 20 27">
        <path d="M10.1323 1C5.54587 1 1.83643 4.70944 1.83643 9.29588C1.83643 15.5178 10.1323 24.7025 10.1323 24.7025C10.1323 24.7025 18.4282 15.5178 18.4282 9.29588C18.4282 4.70944 14.7187 1 10.1323 1ZM10.1323 12.2587C8.49683 12.2587 7.16949 10.9314 7.16949 9.29588C7.16949 7.66041 8.49683 6.33307 10.1323 6.33307C11.7678 6.33307 13.0951 7.66041 13.0951 9.29588C13.0951 10.9314 11.7678 12.2587 10.1323 12.2587Z" stroke="#28B750" stroke-width="2"/>
    </symbol>
    <symbol id="icon-m-advantage-2" fill="none" viewBox="0 0 31 25">
        <path d="M13.2701 23.0894V15.6461H18.2323V23.0894H24.435V13.165H28.1567L15.7512 2L3.34564 13.165H7.0673V23.0894H13.2701Z" stroke="#28B750" stroke-width="2"/>
    </symbol>
    <symbol id="icon-select-arrow" fill="none" viewBox="0 0 19 12">
        <path d="M17.9729 1.89258L9.50342 10.3619L1.03408 1.89258" stroke="#5C2D16" stroke-width="2" stroke-linecap="round"/>
    </symbol>
    <symbol id="icon-slider-next" viewBox="0 0 44 29">
        <path d="M0.19873 15.2271H42.2809M42.2809 15.2271L30.1993 1.6521M42.2809 15.2271L30.1993 27.3087" stroke-width="2"/>
    </symbol>
    <symbol id="icon-slider-prev" viewBox="0 0 45 29">
        <path d="M44.4338 15.2271H2.35169M2.35169 15.2271L14.4333 1.6521M2.35169 15.2271L14.4333 27.3087" stroke-width="2"/>
    </symbol>
    <symbol id="icon-social-1" fill="none" viewBox="0 0 27 31">
        <path d="M19.0419 1.92529H13.2174V20.1309C13.1942 20.1309 13.2174 20.9426 12.6108 21.8504C12.2707 22.3594 11.7873 22.7562 11.2217 22.9904C10.6561 23.2247 10.0338 23.286 9.43343 23.1665C8.83304 23.0471 8.28154 22.7523 7.84868 22.3195C7.41582 21.8866 7.12103 21.3351 7.0016 20.7347C6.88216 20.1343 6.94347 19.512 7.17772 18.9464C7.41199 18.3809 7.80869 17.8975 8.31769 17.5574C8.82669 17.2173 9.4251 17.0358 10.0373 17.0358V11.1262C8.2563 11.1262 6.51534 11.6543 5.03453 12.6438C3.55373 13.6332 2.39957 15.0396 1.71804 16.685C1.03649 18.3303 0.858178 20.1409 1.20561 21.8876C1.55307 23.6343 2.41067 25.2388 3.67001 26.4982C4.92933 27.7575 6.5338 28.6151 8.28053 28.9625C10.0273 29.31 11.8378 29.1317 13.4832 28.4501C15.1286 27.7686 16.5349 26.6144 17.5244 25.1336C18.485 23.6959 19.0108 22.0129 19.0406 20.2863H19.0419V12.1387C21.0689 13.421 23.4457 14.087 25.8786 14.0241L25.7264 8.13636C24.0537 8.17959 22.4324 7.55661 21.2191 6.40444C20.0057 5.25226 19.2998 3.66529 19.2566 1.99264L19.0419 1.99819V1.92529Z" stroke-width="2"/>
    </symbol>
    <symbol id="icon-social-2" fill="none" viewBox="0 0 28 27">
        <path d="M2.54744 23.4651L2.09526 25.1323L3.76624 24.6941L9.14295 23.2841C10.77 24.0709 12.5431 24.5009 14.3919 24.5009C20.9094 24.5009 26.1957 19.238 26.1957 12.7347V12.7211L26.1953 12.7076C26.1134 9.68792 24.9652 6.72649 22.7284 4.49749C20.5023 2.27914 17.5292 1.0437 14.3919 1.0437C7.87438 1.0437 2.58812 6.30661 2.58812 12.81C2.58812 14.7281 3.08751 16.637 3.95289 18.2829L2.54744 23.4651ZM17.6506 16.9396L17.6393 16.9412L17.6279 16.9431C17.3143 16.9952 16.8738 16.9991 16.4303 16.898C16.2836 16.8411 16.1475 16.793 16.0132 16.7456C15.7192 16.6418 15.4339 16.541 15.0645 16.3569L15.0338 16.3416L15.002 16.3284C14.6394 16.1779 14.2954 15.9943 13.9719 15.7902C14.3305 15.9944 14.6154 16.1226 14.7908 16.2015C14.8491 16.2277 14.8954 16.2485 14.9281 16.2648C15.1894 16.395 15.5365 16.5039 15.9284 16.4258C16.3133 16.3491 16.5617 16.1251 16.6843 16.0028C16.7925 15.8951 16.9858 15.679 17.1669 15.4585C17.2336 15.3772 17.3125 15.2788 17.3916 15.1731C17.5348 15.2409 17.7037 15.3233 17.8746 15.4084C18.068 15.5048 18.2593 15.6024 18.4138 15.6838C18.4912 15.7247 18.5563 15.7598 18.6064 15.7877C18.6458 15.8097 18.666 15.8218 18.6726 15.8257C18.6755 15.8275 18.6758 15.8276 18.6738 15.8263L18.7256 15.8607L18.7801 15.8878C18.7609 16.0051 18.727 16.1418 18.672 16.2894C18.6701 16.2919 18.6497 16.3283 18.5856 16.3938C18.5077 16.4734 18.3972 16.5632 18.2633 16.651C18.1308 16.7378 17.9927 16.8114 17.8698 16.8645C17.809 16.8908 17.7568 16.9099 17.7154 16.9227C17.695 16.9291 17.6789 16.9334 17.6671 16.9361C17.656 16.9388 17.6506 16.9396 17.6506 16.9396ZM11.457 10.3871C11.4668 10.4095 11.4766 10.4319 11.4864 10.4539C11.3657 10.5756 11.2599 10.7098 11.1954 10.7924C11.1794 10.8129 11.1665 10.8295 11.1554 10.8439C11.138 10.8663 11.1247 10.8834 11.1104 10.9015C11.107 10.9057 11.1042 10.9092 11.1019 10.9121C11.0373 10.9748 10.8376 11.1719 10.721 11.4333C10.6436 11.6069 10.5912 11.8254 10.6154 12.0733C10.6307 12.2288 10.6734 12.3692 10.7308 12.493L10.7158 12.4781C10.7188 12.481 10.7154 12.4767 10.7068 12.4656C10.6614 12.4072 10.4697 12.1603 10.2738 11.7837C10.0461 11.3463 9.87669 10.8526 9.87669 10.4007C9.87669 9.90368 9.99807 9.58014 10.1195 9.36111C10.2185 9.18265 10.2901 9.09872 10.384 8.98848C10.4206 8.94564 10.4605 8.89883 10.5067 8.84096C10.5162 8.84093 10.5267 8.84092 10.5388 8.84092H10.5397H10.5406H10.5415H10.5424H10.5433H10.5441H10.545H10.5459H10.5468H10.5477H10.5486H10.5496H10.5505H10.5514H10.5523H10.5532H10.5541H10.555H10.5559H10.5569H10.5578H10.5587H10.5596H10.5605H10.5615H10.5624H10.5633H10.5642H10.5652H10.5661H10.5671H10.568H10.5689H10.5699H10.5708H10.5717H10.5727H10.5736H10.5746H10.5755H10.5765H10.5774H10.5784H10.5793H10.5803H10.5813H10.5822H10.5832H10.5841H10.5851H10.5861H10.587H10.588H10.589H10.5899H10.5909H10.5919H10.5928H10.5938H10.5948H10.5958H10.5968H10.5977H10.5987H10.5997H10.6007H10.6017H10.6027H10.6036H10.6046H10.6056H10.6066H10.6076H10.6086H10.6096H10.6106H10.6116H10.6126H10.6136H10.6146H10.6156H10.6166H10.6176H10.6186H10.6196H10.6206H10.6216H10.6226H10.6237H10.6247H10.6257H10.6267H10.6277H10.6287H10.6298H10.6308H10.6318H10.6328H10.6338H10.6349H10.6359H10.6369H10.6379H10.639H10.64H10.641H10.6421H10.6431H10.6441H10.6452H10.6462H10.6472H10.6483H10.6493H10.6503H10.6514H10.6524H10.6535H10.6545H10.6556H10.6566H10.6576H10.6587H10.6597H10.6608H10.6618H10.6629H10.6639H10.665H10.666H10.6671H10.6681H10.6692H10.6703H10.6713H10.6724H10.6734H10.6745H10.6756H10.6766H10.6777H10.6787H10.6798H10.6809H10.6819H10.683H10.6841H10.6851H10.6862H10.6873H10.6883H10.6894H10.6905H10.6915H10.6926H10.6937H10.6948H10.6958H10.6969H10.698H10.6991H10.7001H10.7012H10.7023H10.7034H10.7045H10.7055H10.7066H10.7077H10.7088H10.7099H10.7109H10.712H10.7131H10.7142H10.7153H10.7164H10.7174H10.7185H10.7196H10.7207H10.7218H10.7229H10.724H10.7251H10.7262H10.7272H10.7283H10.7294H10.7305H10.7316H10.7327H10.7338H10.7349H10.736H10.7371H10.7382H10.7393H10.7404H10.7415H10.7426H10.7436H10.7447H10.7458H10.7469H10.748H10.7491H10.7502H10.7513H10.7524H10.7535H10.7546H10.7557H10.7568H10.7579H10.759H10.7601H10.7612H10.7623H10.7634H10.7645H10.7657H10.7668H10.7679H10.769H10.7701H10.7712H10.7723H10.7734H10.7745H10.7756H10.7767H10.7778H10.7789H10.78H10.7811H10.7822H10.7833H10.7844H10.7855H10.7866H10.7877H10.7888H10.79H10.7911H10.7922H10.7933H10.7944H10.7955H10.7966H10.7977H10.7988H10.7999H10.801H10.8021H10.8032H10.8043H10.8054H10.8066H10.8077H10.8088H10.8099H10.811H10.8121H10.8132H10.8143H10.8154H10.8165H10.8176H10.8182C10.8834 8.99741 10.9629 9.19241 11.0473 9.39966C11.1033 9.53713 11.1615 9.67998 11.2192 9.82057C11.3044 10.0282 11.3884 10.2301 11.457 10.3871ZM10.7195 8.61914C10.7196 8.61908 10.7204 8.62026 10.7219 8.62285C10.7203 8.6205 10.7195 8.6192 10.7195 8.61914ZM18.7968 15.5728C18.7967 15.5721 18.7966 15.5716 18.7966 15.5715L18.7968 15.5728Z" stroke-width="2"/>
    </symbol>
    <symbol id="icon-social-3" fill="none" viewBox="0 0 27 27">
        <rect x="1.82983" y="1.8562" width="23.8705" height="23.8705" rx="6.95484" stroke-width="2"/>
        <circle cx="13.7652" cy="13.7914" r="5.76503" stroke-width="2"/>
        <circle cx="20.6691" cy="6.70208" r="1.62175" fill="#28B750"/>
    </symbol>
    <symbol id="icon-social-4" fill="none" viewBox="0 0 27 27">
        <rect x="1.30884" y="1.27832" width="23.8705" height="23.8705" rx="6.95484" stroke-width="2"/>
        <circle cx="13.2442" cy="13.2133" r="5.76503" stroke-width="2"/>
        <circle cx="20.1481" cy="6.12371" r="1.62175" fill="#28B750"/>
    </symbol>
    <symbol id="icon-social-5" viewBox="0 0 27 27">
        <path d="M2.26411 23.6997L1.81194 25.3669L3.48291 24.9287L8.85962 23.5187C10.4866 24.3055 12.2597 24.7356 14.1086 24.7356C20.6261 24.7356 25.9124 19.4727 25.9124 12.9693V12.9557L25.912 12.9422C25.8301 9.92254 24.6819 6.96111 22.4451 4.7321C20.219 2.51376 17.2459 1.27832 14.1086 1.27832C7.59105 1.27832 2.3048 6.54123 2.3048 13.0446C2.3048 14.9627 2.80419 16.8716 3.66956 18.5176L2.26411 23.6997ZM17.3673 17.1742L17.356 17.1758L17.3445 17.1777C17.031 17.2298 16.5905 17.2337 16.147 17.1326C16.0002 17.0757 15.8642 17.0277 15.7299 16.9802C15.4359 16.8764 15.1506 16.7756 14.7812 16.5916L14.7504 16.5762L14.7187 16.5631C14.3561 16.4125 14.0121 16.2289 13.6886 16.0249C14.0471 16.229 14.3321 16.3572 14.5074 16.4361C14.5658 16.4623 14.612 16.4831 14.6448 16.4994C14.9061 16.6297 15.2532 16.7385 15.6451 16.6604C16.03 16.5837 16.2783 16.3597 16.401 16.2374C16.5091 16.1297 16.7025 15.9136 16.8836 15.6931C16.9503 15.6118 17.0292 15.5135 17.1083 15.4077C17.2515 15.4755 17.4204 15.5579 17.5913 15.643C17.7847 15.7394 17.976 15.837 18.1305 15.9185C18.2079 15.9593 18.273 15.9944 18.323 16.0223C18.3625 16.0443 18.3827 16.0564 18.3893 16.0603C18.3922 16.0621 18.3924 16.0622 18.3905 16.0609L18.4422 16.0953L18.4968 16.1225C18.4775 16.2397 18.4436 16.3764 18.3887 16.524C18.3868 16.5265 18.3664 16.5629 18.3023 16.6284C18.2244 16.708 18.1139 16.7978 17.98 16.8856C17.8475 16.9725 17.7093 17.046 17.5865 17.0991C17.5256 17.1254 17.4735 17.1445 17.4321 17.1573C17.4117 17.1637 17.3956 17.168 17.3838 17.1708C17.3727 17.1734 17.3673 17.1742 17.3673 17.1742ZM11.1736 10.6217C11.1834 10.6441 11.1933 10.6665 11.2031 10.6885C11.0824 10.8102 10.9765 10.9445 10.9121 11.0271C10.8961 11.0475 10.8832 11.0641 10.872 11.0786C10.8547 11.1009 10.8414 11.1181 10.827 11.1361C10.8237 11.1403 10.8209 11.1438 10.8185 11.1467C10.754 11.2094 10.5543 11.4065 10.4377 11.6679C10.3602 11.8416 10.3078 12.06 10.3321 12.308C10.3473 12.4634 10.3901 12.6038 10.4475 12.7277L10.4325 12.7127C10.4354 12.7156 10.4321 12.7113 10.4235 12.7002C10.3781 12.6418 10.1864 12.3949 9.99043 12.0183C9.76281 11.5809 9.59336 11.0872 9.59336 10.6354C9.59336 10.1383 9.71474 9.81476 9.8362 9.59573C9.93517 9.41727 10.0067 9.33334 10.1007 9.2231C10.1372 9.18026 10.1771 9.13345 10.2234 9.07558C10.2329 9.07555 10.2434 9.07554 10.2555 9.07554H10.2564H10.2573H10.2581H10.259H10.2599H10.2608H10.2617H10.2626H10.2635H10.2644H10.2653H10.2662H10.2671H10.268H10.269H10.2699H10.2708H10.2717H10.2726H10.2735H10.2744H10.2754H10.2763H10.2772H10.2781H10.2791H10.28H10.2809H10.2819H10.2828H10.2837H10.2847H10.2856H10.2865H10.2875H10.2884H10.2894H10.2903H10.2913H10.2922H10.2932H10.2941H10.2951H10.296H10.297H10.2979H10.2989H10.2998H10.3008H10.3018H10.3027H10.3037H10.3047H10.3056H10.3066H10.3076H10.3085H10.3095H10.3105H10.3115H10.3125H10.3134H10.3144H10.3154H10.3164H10.3174H10.3183H10.3193H10.3203H10.3213H10.3223H10.3233H10.3243H10.3253H10.3263H10.3273H10.3283H10.3293H10.3303H10.3313H10.3323H10.3333H10.3343H10.3353H10.3363H10.3373H10.3383H10.3393H10.3403H10.3413H10.3424H10.3434H10.3444H10.3454H10.3464H10.3474H10.3485H10.3495H10.3505H10.3515H10.3526H10.3536H10.3546H10.3556H10.3567H10.3577H10.3587H10.3598H10.3608H10.3618H10.3629H10.3639H10.3649H10.366H10.367H10.3681H10.3691H10.3701H10.3712H10.3722H10.3733H10.3743H10.3754H10.3764H10.3775H10.3785H10.3796H10.3806H10.3817H10.3827H10.3838H10.3848H10.3859H10.3869H10.388H10.3891H10.3901H10.3912H10.3922H10.3933H10.3944H10.3954H10.3965H10.3975H10.3986H10.3997H10.4007H10.4018H10.4029H10.4039H10.405H10.4061H10.4071H10.4082H10.4093H10.4104H10.4114H10.4125H10.4136H10.4147H10.4157H10.4168H10.4179H10.419H10.42H10.4211H10.4222H10.4233H10.4244H10.4254H10.4265H10.4276H10.4287H10.4298H10.4309H10.4319H10.433H10.4341H10.4352H10.4363H10.4374H10.4385H10.4396H10.4406H10.4417H10.4428H10.4439H10.445H10.4461H10.4472H10.4483H10.4494H10.4505H10.4516H10.4527H10.4538H10.4548H10.4559H10.457H10.4581H10.4592H10.4603H10.4614H10.4625H10.4636H10.4647H10.4658H10.4669H10.468H10.4691H10.4702H10.4713H10.4724H10.4735H10.4746H10.4757H10.4768H10.4779H10.479H10.4801H10.4812H10.4823H10.4834H10.4845H10.4856H10.4867H10.4878H10.4889H10.4901H10.4912H10.4923H10.4934H10.4945H10.4956H10.4967H10.4978H10.4989H10.5H10.5011H10.5022H10.5033H10.5044H10.5055H10.5066H10.5077H10.5088H10.5099H10.5111H10.5122H10.5133H10.5144H10.5155H10.5166H10.5177H10.5188H10.5199H10.521H10.5221H10.5232H10.5243H10.5254H10.5265H10.5277H10.5288H10.5299H10.531H10.5321H10.5332H10.5343H10.5348C10.6001 9.23203 10.6795 9.42703 10.764 9.63428C10.82 9.77175 10.8781 9.9146 10.9359 10.0552C11.0211 10.2629 11.105 10.4647 11.1736 10.6217ZM10.4362 8.85376C10.4362 8.8537 10.437 8.85488 10.4386 8.85747C10.437 8.85512 10.4362 8.85382 10.4362 8.85376ZM18.5135 15.8074C18.5134 15.8067 18.5133 15.8063 18.5133 15.8062L18.5135 15.8074Z" stroke="#28B750" stroke-width="2"/>
    </symbol>
    <symbol id="icon-social-6" fill="none" viewBox="0 0 26 25">
        <mask id="path-1-outside-1_129_28" maskUnits="userSpaceOnUse" x="0.69104" y="0.303711" width="17" height="25" fill="black">
            <rect fill="white" x="0.69104" y="0.303711" width="17" height="25"/>
            <path fill-rule="evenodd" clip-rule="evenodd" d="M4.69104 2.30371C3.58647 2.30371 2.69104 3.19914 2.69104 4.30371V20.9126C2.69104 22.0172 3.58647 22.9126 4.69104 22.9126H13.4772C14.5818 22.9126 15.4772 22.0172 15.4772 20.9126V4.30371C15.4772 3.19914 14.5818 2.30371 13.4772 2.30371H4.69104ZM6.03662 4.47216C4.93205 4.47216 4.03662 5.36759 4.03662 6.47216V18.7434C4.03662 19.8479 4.93205 20.7434 6.03662 20.7434H12.1316C13.2362 20.7434 14.1316 19.8479 14.1316 18.7434V6.47216C14.1316 5.36759 13.2362 4.47216 12.1316 4.47216H6.03662Z"/>
        </mask>
        <path d="M4.69104 4.30371L4.69104 4.30371V0.303711C2.4819 0.303711 0.69104 2.09457 0.69104 4.30371H4.69104ZM4.69104 20.9126V4.30371H0.69104V20.9126H4.69104ZM4.69104 20.9126H4.69104H0.69104C0.69104 23.1217 2.4819 24.9126 4.69104 24.9126V20.9126ZM13.4772 20.9126H4.69104V24.9126H13.4772V20.9126ZM13.4772 20.9126V24.9126C15.6863 24.9126 17.4772 23.1217 17.4772 20.9126H13.4772ZM13.4772 4.30371V20.9126H17.4772V4.30371H13.4772ZM13.4772 4.30371H17.4772C17.4772 2.09457 15.6863 0.303711 13.4772 0.303711V4.30371ZM4.69104 4.30371H13.4772V0.303711H4.69104V4.30371ZM6.03662 6.47216V6.47216V2.47216C3.82748 2.47216 2.03662 4.26302 2.03662 6.47216H6.03662ZM6.03662 18.7434V6.47216H2.03662V18.7434H6.03662ZM6.03662 18.7434H6.03662H2.03662C2.03662 20.9525 3.82748 22.7434 6.03662 22.7434V18.7434ZM12.1316 18.7434H6.03662V22.7434H12.1316V18.7434ZM12.1316 18.7434V18.7434V22.7434C14.3408 22.7434 16.1316 20.9525 16.1316 18.7434H12.1316ZM12.1316 6.47216V18.7434H16.1316V6.47216H12.1316ZM12.1316 6.47216H12.1316H16.1316C16.1316 4.26302 14.3408 2.47216 12.1316 2.47216V6.47216ZM6.03662 6.47216H12.1316V2.47216H6.03662V6.47216Z" fill="#28B750" mask="url(#path-1-outside-1_129_28)"/>
        <path d="M18.8463 10.6243C19.604 11.1205 20.1046 11.9769 20.1046 12.9503C20.1046 13.9237 19.604 14.7802 18.8463 15.2764" stroke="#28B750" stroke-width="2" stroke-linecap="round"/>
        <path d="M19.8871 8.0864C21.4714 9.12393 22.518 10.9147 22.518 12.9499C22.518 14.9852 21.4714 16.7759 19.8871 17.8135" stroke="#28B750" stroke-width="2" stroke-linecap="round"/>
        <path d="M20.825 5.2794C23.3236 6.9157 24.9742 9.73998 24.9742 12.9498C24.9742 16.1595 23.3236 18.9838 20.825 20.6201" stroke="#28B750" stroke-width="2" stroke-linecap="round"/>
    </symbol>
    <symbol id="icon-zoom" viewBox="0 0 13 14">
        <path d="M8.83205 8.23307H8.27462L8.07705 8.03445C8.76854 7.19583 9.18485 6.10709 9.18485 4.92272C9.18485 2.2818 7.13154 0.141113 4.59841 0.141113C2.06528 0.141113 0.0119629 2.2818 0.0119629 4.92272C0.0119629 7.56364 2.06528 9.70433 4.59841 9.70433C5.73443 9.70433 6.77873 9.27031 7.58312 8.54939L7.77364 8.75537V9.33652L11.3017 13.0073L12.353 11.9112L8.83205 8.23307ZM4.59841 8.23307C2.84145 8.23307 1.42318 6.75445 1.42318 4.92272C1.42318 3.091 2.84145 1.61238 4.59841 1.61238C6.35537 1.61238 7.77364 3.091 7.77364 4.92272C7.77364 6.75445 6.35537 8.23307 4.59841 8.23307Z"/>
    </symbol>
    <symbol id="icon-popup-close" viewBox="0 0 19 20">
        <path fill-rule="evenodd" clip-rule="evenodd" d="M17.2333 0.852763C17.6238 0.462242 18.257 0.462247 18.6475 0.852775C19.038 1.2433 19.038 1.87647 18.6475 2.26699L10.8851 10.0292L18.6475 17.7915C19.038 18.182 19.038 18.8152 18.6475 19.2057C18.257 19.5962 17.6238 19.5962 17.2333 19.2057L9.47093 11.4435L1.70869 19.2057C1.31817 19.5962 0.685006 19.5962 0.29448 19.2057C-0.0960441 18.8152 -0.0960441 18.182 0.29448 17.7915L8.05673 10.0292L0.29448 2.26698C-0.0960441 1.87646 -0.0960441 1.24329 0.29448 0.852769C0.685006 0.462244 1.31817 0.462244 1.70869 0.852769L9.47093 8.615L17.2333 0.852763Z"/>
    </symbol>
    <symbol id="icon-social-7" viewBox="0 0 28 27">
        <path fill-rule="evenodd" clip-rule="evenodd" d="M5.02362 18.1555C4.11701 16.5744 3.58815 14.6922 3.58815 12.81C3.58815 6.86217 8.42341 2.0437 14.3919 2.0437C17.2629 2.0437 19.9827 3.17303 22.0226 5.20582C24.0624 7.23861 25.1202 9.949 25.1957 12.7347C25.1957 18.6825 20.3605 23.5009 14.3919 23.5009C12.5787 23.5009 10.841 23.0492 9.25447 22.221L3.5126 23.7268L5.02362 18.1555ZM9.04744 24.343C10.7104 25.0915 12.5136 25.5009 14.3919 25.5009C21.4585 25.5009 27.1957 19.7936 27.1957 12.7347V12.7076L27.195 12.6805C27.1067 9.42683 25.868 6.21437 23.4343 3.78915C21.0221 1.38526 17.7956 0.0437012 14.3919 0.0437012C7.32541 0.0437012 1.58815 5.75105 1.58815 12.81C1.58815 14.7587 2.06071 16.6912 2.88735 18.3915L0.677979 26.5378L9.04744 24.343ZM13.4738 16.6576C12.8994 16.2985 12.3856 15.8842 11.9406 15.4693C11.9269 15.4565 11.9134 15.4438 11.8998 15.4311C10.8525 14.4453 10.1951 13.4656 10.0366 13.2265C10.0328 13.2209 10.0294 13.2157 10.0262 13.2109C10.0196 13.2009 10.0142 13.1927 10.01 13.1864C9.98769 13.1642 9.94732 13.1174 9.89469 13.0494C9.89167 13.0455 9.88861 13.0416 9.88552 13.0375C9.57641 12.6348 8.87672 11.5446 8.87672 10.4007C8.87672 9.22483 9.38866 8.61578 9.67219 8.27847C9.71542 8.22703 9.75334 8.18192 9.78333 8.14207C10.01 7.84092 10.3122 7.84092 10.5388 7.84092H11.0677C11.0837 7.84092 11.1006 7.84007 11.1183 7.83919C11.2669 7.83173 11.4695 7.82155 11.6721 8.29265C11.7493 8.47214 11.8615 8.7477 11.979 9.03604C12.2064 9.59431 12.4533 10.2005 12.5032 10.2502C12.5787 10.4007 12.5787 10.5513 12.5032 10.7019C12.4276 10.8525 12.3521 11.003 12.201 11.1536C12.1124 11.2418 12.0239 11.3559 11.9506 11.4503C11.8987 11.5171 11.8545 11.5742 11.8232 11.6054C11.7079 11.7203 11.5926 11.8352 11.6116 11.9836C11.6159 12.0175 11.6273 12.0532 11.6473 12.091C11.6545 12.1045 11.6627 12.1183 11.6721 12.1324C11.8232 12.4335 12.3521 13.2617 13.1831 14.0146C13.6737 14.4336 14.1155 14.7231 14.4784 14.928C14.7793 15.098 15.026 15.2099 15.2013 15.2893C15.2703 15.3207 15.3283 15.347 15.3741 15.3698C15.6763 15.5204 15.8274 15.4451 15.9785 15.2945C16.1296 15.1439 16.6585 14.5416 16.8096 14.2405C16.9607 13.9393 17.1873 14.0146 17.414 14.0899C17.6406 14.1652 19.0005 14.8428 19.2272 14.9933C19.5294 15.1439 19.6805 15.2192 19.756 15.2945C19.8316 15.5204 19.8316 16.0474 19.6049 16.6497C19.3783 17.252 18.3206 17.8543 17.7917 17.9296C17.3384 18.0049 16.734 18.0049 16.1296 17.8543C16.0152 17.8087 15.887 17.7631 15.747 17.7133C15.4247 17.5987 15.04 17.462 14.6186 17.252C14.2147 17.0843 13.8324 16.8817 13.4738 16.6576ZM11.2239 9.8364C11.2266 9.8363 11.228 9.83623 11.2279 9.83623C11.2278 9.83622 11.2269 9.83626 11.2252 9.83634L11.2239 9.8364ZM9.83481 9.08281C9.83496 9.08316 9.8351 9.0835 9.83525 9.08385C9.83206 9.07714 9.83205 9.07639 9.83481 9.08281Z"/>
    </symbol>
	
	<symbol id="icon-social-8" xmlns="http://www.w3.org/2000/svg"  viewBox="0 0 20 18">
    <path d="M0.350701 8.37408L4.9488 10.0886L6.74126 15.8557C6.8192 16.2454 7.2868 16.3233 7.59854 16.0895L10.1703 13.9853C10.4041 13.7515 10.7938 13.7515 11.1055 13.9853L15.7036 17.3364C16.0154 17.5702 16.483 17.4144 16.5609 17.0247L19.99 0.658655C20.0679 0.268988 19.6782 -0.120677 19.2886 0.0351905L0.350701 7.36095C-0.1169 7.51681 -0.1169 8.21821 0.350701 8.37408ZM6.50747 9.23135L15.5477 3.69807C15.7036 3.62013 15.8595 3.85394 15.7036 3.93187L8.29993 10.868C8.06613 11.1018 7.83233 11.4135 7.83233 11.8032L7.59854 13.6736C7.59854 13.9074 7.20886 13.9853 7.13093 13.6736L6.19572 10.2445C5.96192 9.85482 6.1178 9.38721 6.50747 9.23135Z" fill="evenodd"  clip-rule="evenodd"/>
            </symbol>
        
                <symbol id="quickWhatsApp" xmlns="http://www.w3.org/2000/svg"  viewBox="0 0 22 22">
    <path d="M18.2927 3.69643C16.2767 1.6875 13.5888 0.571426 10.7516 0.571426C4.85316 0.571426 0.0746629 5.33333 0.0746629 11.2113C0.0746629 13.0714 0.597312 14.9315 1.49328 16.494L0 22L5.67447 20.5119C7.24241 21.3304 8.95968 21.7768 10.7516 21.7768C16.6501 21.7768 21.4286 17.0149 21.4286 11.1369C21.3539 8.38393 20.3086 5.70535 18.2927 3.69643ZM15.9034 15.0059C15.6794 15.6012 14.6341 16.1964 14.1115 16.2708C13.6635 16.3452 13.0662 16.3452 12.4689 16.1964C12.0956 16.0476 11.5729 15.8988 10.9756 15.6012C8.2877 14.4851 6.57043 11.8065 6.42111 11.5833C6.27178 11.4345 5.30115 10.1696 5.30115 8.83035C5.30115 7.49107 5.97312 6.89583 6.19711 6.59821C6.4211 6.30059 6.71976 6.30059 6.94375 6.30059C7.09308 6.30059 7.31707 6.30059 7.4664 6.30059C7.61573 6.30059 7.83972 6.22619 8.06371 6.74702C8.2877 7.26785 8.81035 8.60714 8.88501 8.68154C8.95968 8.83035 8.95968 8.97916 8.88501 9.12797C8.81035 9.27678 8.73569 9.42559 8.58636 9.5744C8.43703 9.72321 8.2877 9.94643 8.21304 10.0208C8.06371 10.1696 7.91438 10.3184 8.06371 10.5417C8.21304 10.8393 8.73569 11.6577 9.55699 12.4018C10.6023 13.2946 11.4236 13.5923 11.7222 13.7411C12.0209 13.8899 12.1702 13.8155 12.3196 13.6667C12.4689 13.5179 12.9915 12.9226 13.1409 12.625C13.2902 12.3274 13.5142 12.4018 13.7382 12.4762C13.9622 12.5506 15.3061 13.2202 15.5301 13.369C15.8288 13.5179 15.9781 13.5923 16.0528 13.6667C16.1274 13.8899 16.1274 14.4107 15.9034 15.0059Z" fill="white"/>
            </symbol>
            
            <symbol id="quickTelegram" xmlns="http://www.w3.org/2000/svg"  viewBox="0 0 20 18">
    <path d="M0.350701 8.37408L4.9488 10.0886L6.74126 15.8557C6.8192 16.2454 7.2868 16.3233 7.59854 16.0895L10.1703 13.9853C10.4041 13.7515 10.7938 13.7515 11.1055 13.9853L15.7036 17.3364C16.0154 17.5702 16.483 17.4144 16.5609 17.0247L19.99 0.658655C20.0679 0.268988 19.6782 -0.120677 19.2886 0.0351905L0.350701 7.36095C-0.1169 7.51681 -0.1169 8.21821 0.350701 8.37408ZM6.50747 9.23135L15.5477 3.69807C15.7036 3.62013 15.8595 3.85394 15.7036 3.93187L8.29993 10.868C8.06613 11.1018 7.83233 11.4135 7.83233 11.8032L7.59854 13.6736C7.59854 13.9074 7.20886 13.9853 7.13093 13.6736L6.19572 10.2445C5.96192 9.85482 6.1178 9.38721 6.50747 9.23135Z" fill="white"/>
        </symbol>
		
		<symbol id="quickTel" xmlns="http://www.w3.org/2000/svg"  viewBox="0 0 18 18">
           <path d="M3.62 7.79C5.06 10.62 7.38 12.93 10.21 14.38L12.41 12.18C12.68 11.91 13.08 11.82 13.43 11.94C14.55 12.31 15.76 12.51 17 12.51C17.55 12.51 18 12.96 18 13.51V17C18 17.55 17.55 18 17 18C7.61 18 0 10.39 0 1C0 0.45 0.45 0 1 0H4.5C5.05 0 5.5 0.45 5.5 1C5.5 2.25 5.7 3.45 6.07 4.57C6.18 4.92 6.1 5.31 5.82 5.59L3.62 7.79Z" fill="white"/>
        </symbol>
	
	 <symbol id="icon-social-1" fill="none" viewBox="0 0 27 31">
        <path d="M19.0419 1.92529H13.2174V20.1309C13.1942 20.1309 13.2174 20.9426 12.6108 21.8504C12.2707 22.3594 11.7873 22.7562 11.2217 22.9904C10.6561 23.2247 10.0338 23.286 9.43343 23.1665C8.83304 23.0471 8.28154 22.7523 7.84868 22.3195C7.41582 21.8866 7.12103 21.3351 7.0016 20.7347C6.88216 20.1343 6.94347 19.512 7.17772 18.9464C7.41199 18.3809 7.80869 17.8975 8.31769 17.5574C8.82669 17.2173 9.4251 17.0358 10.0373 17.0358V11.1262C8.2563 11.1262 6.51534 11.6543 5.03453 12.6438C3.55373 13.6332 2.39957 15.0396 1.71804 16.685C1.03649 18.3303 0.858178 20.1409 1.20561 21.8876C1.55307 23.6343 2.41067 25.2388 3.67001 26.4982C4.92933 27.7575 6.5338 28.6151 8.28053 28.9625C10.0273 29.31 11.8378 29.1317 13.4832 28.4501C15.1286 27.7686 16.5349 26.6144 17.5244 25.1336C18.485 23.6959 19.0108 22.0129 19.0406 20.2863H19.0419V12.1387C21.0689 13.421 23.4457 14.087 25.8786 14.0241L25.7264 8.13636C24.0537 8.17959 22.4324 7.55661 21.2191 6.40444C20.0057 5.25226 19.2998 3.66529 19.2566 1.99264L19.0419 1.99819V1.92529Z" stroke-width="2"/>
    </symbol>

   <symbol id="newBtn" viewBox="0 0 26 18" fill="none" xmlns="http://www.w3.org/2000/svg">
        <path d="M1.90186 9.35465H23.7672M23.7672 9.35465L17.4898 2.30127M23.7672 9.35465L17.4898 15.6321" stroke="white" stroke-width="3" stroke-linecap="round" stroke-linejoin="round"/>
    </symbol>
    <symbol id="newIcon1" viewBox="0 0 41 39" fill="none" xmlns="http://www.w3.org/2000/svg">
        <path fill-rule="evenodd" clip-rule="evenodd" d="M15.9514 1.54708L16.8638 2.45955V8.34247H15.4503V3.05077L14.4024 2.0028C11.5054 3.25807 10.5667 6.30251 10.5146 8.09723L9.10171 8.05569C9.16465 5.89028 10.3367 1.91607 14.3405 0.501992C15.3356 0.150526 16.4862 -0.0329068 17.8084 0.00487274C18.7663 0.0322417 19.6246 0.16787 20.3916 0.393241C24.9458 1.73153 25.9014 6.05303 25.7717 8.33393L26.9456 8.84809C26.7192 9.37092 26.1774 9.95896 25.3088 10.4975C25.3073 10.5866 25.3039 10.6819 25.2992 10.7798C25.2833 11.1121 25.2509 11.5146 25.2157 11.8979C25.1803 12.283 25.1413 12.6564 25.1112 12.933C25.0961 13.0714 25.0832 13.186 25.0741 13.2661L25.0634 13.3592L25.0596 13.3921L25.0595 13.3927L24.3577 13.3091C25.0595 13.3927 25.0595 13.3927 25.0595 13.3927L25.0245 13.69L24.7892 13.872L24.7888 13.8723L24.7866 13.874L24.7734 13.8845C24.7612 13.8943 24.7429 13.9091 24.7205 13.9279C24.6749 13.9661 24.6168 14.0169 24.5609 14.0709C24.5365 14.0945 24.5152 14.1161 24.4973 14.1353C24.5194 15.0596 24.4009 16.2434 24.034 17.4215C23.6712 18.5862 23.0526 19.7851 22.0469 20.7089V23.3193L24.2182 24.7605L24.5351 38.9681L23.122 39L22.8217 25.5369L21.4213 24.6073L17.4642 28.816L13.3215 24.1401C12.9798 24.2882 12.5387 24.4826 12.0139 24.7188V38.9841H10.6004V25.3636C9.86205 25.7047 9.03218 26.0945 8.13401 26.5258V38.9841H6.72054V27.2118C6.60502 27.2684 6.48869 27.3256 6.37158 27.3834C4.64797 28.2332 3.56026 29.1521 2.90098 29.9284C2.25546 30.6885 2.04321 31.2828 2.00557 31.5341V38.9841H0.592102V31.4527L0.595985 31.4156C0.659963 30.8043 1.03991 29.9309 1.82622 29.0051C2.6263 28.063 3.87533 27.0309 5.74943 26.1069C6.22 25.8749 6.67814 25.6514 7.12129 25.4374C8.62542 24.7107 9.95717 24.0917 11.0165 23.611C11.8633 23.2267 12.5378 22.93 12.9881 22.737V20.7146C11.829 19.6763 11.2233 18.3163 10.8976 17.1647C10.5953 16.0962 10.518 15.1395 10.485 14.7312C10.4799 14.6669 10.4758 14.6161 10.4721 14.5808C10.4625 14.4894 10.4421 14.434 10.4267 14.4029C10.4114 14.372 10.3961 14.3553 10.3857 14.3459C10.375 14.3364 10.365 14.3306 10.3578 14.3274L9.71865 14.2846V10.5827C8.8621 10.0207 8.31404 9.41304 8.03981 8.90177L9.2838 8.2268C9.70913 9.01975 12.0531 11.1558 17.7586 10.9138C20.6173 10.7926 22.5514 10.271 23.7958 9.69832C24.9166 9.18251 25.4242 8.65274 25.597 8.37784L24.3579 8.29575C24.4808 6.41974 23.7288 3.10971 20.4149 1.89602L19.421 3.02469V8.34247H18.0075V2.48563L18.8614 1.51597C18.5193 1.46784 18.1554 1.43698 17.7683 1.42592C17.1024 1.4069 16.4986 1.45165 15.9514 1.54708ZM20.6335 21.6704V23.3762L17.4951 26.714L14.3012 23.109H14.4016V21.6537C15.3256 22.0925 16.4482 22.3404 17.803 22.312C18.895 22.2891 19.834 22.0573 20.6335 21.6704ZM11.1321 11.329V13.1377C11.4889 13.3661 11.8093 13.7782 11.8778 14.4319C11.8833 14.4846 11.8888 14.5511 11.8954 14.63C11.9312 15.0604 11.9976 15.8585 12.2571 16.7756C12.5639 17.8601 13.1192 19.0206 14.1329 19.8256C14.9404 20.467 16.0919 20.9259 17.7736 20.8907C19.1459 20.8619 20.1502 20.4401 20.8946 19.8318C21.7767 19.111 22.3464 18.0839 22.6851 16.9965C23.0237 15.9095 23.1162 14.8087 23.0786 14.0078L23.0778 13.991V13.9742C23.0778 13.8011 23.131 13.6616 23.1702 13.5782C23.2122 13.4887 23.263 13.4121 23.3067 13.3529C23.394 13.2348 23.4971 13.1275 23.5812 13.0461C23.6176 13.011 23.6535 12.9777 23.6875 12.947C23.6932 12.8963 23.6994 12.8397 23.7061 12.7782C23.7357 12.5064 23.7738 12.1415 23.8082 11.7671C23.8253 11.581 23.8414 11.3943 23.8549 11.2168C22.4346 11.7785 20.4683 12.2218 17.8181 12.3342C14.9162 12.4573 12.7176 11.9993 11.1321 11.329Z" fill="url(#paint0_linear_925_16)"/>
        <path d="M37.912 23.7298H30.7053V22.3082H37.912V23.7298Z" fill="url(#paint1_linear_925_16)"/>
        <path d="M28.1658 23.7298H29.3709V22.3082H28.1658V23.7298Z" fill="url(#paint2_linear_925_16)"/>
        <path d="M37.912 26.1522H30.7053V24.7306H37.912V26.1522Z" fill="url(#paint3_linear_925_16)"/>
        <path d="M28.1658 26.1522H29.3709V24.7306H28.1658V26.1522Z" fill="url(#paint4_linear_925_16)"/>
        <path d="M37.912 28.575H30.7053V27.1534H37.912V28.575Z" fill="url(#paint5_linear_925_16)"/>
        <path d="M28.1658 28.575H29.3709V27.1534H28.1658V28.575Z" fill="url(#paint6_linear_925_16)"/>
        <path d="M37.912 30.9974H30.7053V29.5758H37.912V30.9974Z" fill="url(#paint7_linear_925_16)"/>
        <path d="M34.04 36.6452H37.9119V35.2236H34.04V36.6452Z" fill="url(#paint8_linear_925_16)"/>
        <path d="M29.3709 30.9974H28.1658V29.5758H29.3709V30.9974Z" fill="url(#paint9_linear_925_16)"/>
        <path fill-rule="evenodd" clip-rule="evenodd" d="M29.514 18.4061V17.2083H37.0185V18.4061H40.5921V38.833H25.8809V18.4061H29.514ZM30.9275 18.6299H35.6051V19.3209H30.9275V18.6299ZM29.514 19.8278H27.2944V37.4114H39.1786V19.8278H37.0185V20.7425H29.514V19.8278Z" fill="url(#paint10_linear_925_16)"/>
        <path d="M16.752 29.7764V30.9434H18.1654V29.7764H16.752Z" fill="url(#paint11_linear_925_16)"/>
        <path d="M16.752 33.4206V32.2536H18.1654V33.4206H16.752Z" fill="url(#paint12_linear_925_16)"/>
        <path d="M16.752 34.7675V35.9346H18.1654V34.7675H16.752Z" fill="url(#paint13_linear_925_16)"/>
        <defs>
        <linearGradient id="paint0_linear_925_16" x1="0.592102" y1="23.0289" x2="40.5988" y2="22.9517" gradientUnits="userSpaceOnUse">
        <stop stop-color="#28B750"/>
        <stop offset="1" stop-color="#A6D554"/>
        </linearGradient>
        <linearGradient id="paint1_linear_925_16" x1="0.592102" y1="23.0289" x2="40.5988" y2="22.9517" gradientUnits="userSpaceOnUse">
        <stop stop-color="#28B750"/>
        <stop offset="1" stop-color="#A6D554"/>
        </linearGradient>
        <linearGradient id="paint2_linear_925_16" x1="0.592102" y1="23.0289" x2="40.5988" y2="22.9517" gradientUnits="userSpaceOnUse">
        <stop stop-color="#28B750"/>
        <stop offset="1" stop-color="#A6D554"/>
        </linearGradient>
        <linearGradient id="paint3_linear_925_16" x1="0.592102" y1="23.0289" x2="40.5988" y2="22.9517" gradientUnits="userSpaceOnUse">
        <stop stop-color="#28B750"/>
        <stop offset="1" stop-color="#A6D554"/>
        </linearGradient>
        <linearGradient id="paint4_linear_925_16" x1="0.592102" y1="23.0289" x2="40.5988" y2="22.9517" gradientUnits="userSpaceOnUse">
        <stop stop-color="#28B750"/>
        <stop offset="1" stop-color="#A6D554"/>
        </linearGradient>
        <linearGradient id="paint5_linear_925_16" x1="0.592102" y1="23.0289" x2="40.5988" y2="22.9517" gradientUnits="userSpaceOnUse">
        <stop stop-color="#28B750"/>
        <stop offset="1" stop-color="#A6D554"/>
        </linearGradient>
        <linearGradient id="paint6_linear_925_16" x1="0.592102" y1="23.0289" x2="40.5988" y2="22.9517" gradientUnits="userSpaceOnUse">
        <stop stop-color="#28B750"/>
        <stop offset="1" stop-color="#A6D554"/>
        </linearGradient>
        <linearGradient id="paint7_linear_925_16" x1="0.592102" y1="23.0289" x2="40.5988" y2="22.9517" gradientUnits="userSpaceOnUse">
        <stop stop-color="#28B750"/>
        <stop offset="1" stop-color="#A6D554"/>
        </linearGradient>
        <linearGradient id="paint8_linear_925_16" x1="0.592102" y1="23.0289" x2="40.5988" y2="22.9517" gradientUnits="userSpaceOnUse">
        <stop stop-color="#28B750"/>
        <stop offset="1" stop-color="#A6D554"/>
        </linearGradient>
        <linearGradient id="paint9_linear_925_16" x1="0.592102" y1="23.0289" x2="40.5988" y2="22.9517" gradientUnits="userSpaceOnUse">
        <stop stop-color="#28B750"/>
        <stop offset="1" stop-color="#A6D554"/>
        </linearGradient>
        <linearGradient id="paint10_linear_925_16" x1="0.592102" y1="23.0289" x2="40.5988" y2="22.9517" gradientUnits="userSpaceOnUse">
        <stop stop-color="#28B750"/>
        <stop offset="1" stop-color="#A6D554"/>
        </linearGradient>
        <linearGradient id="paint11_linear_925_16" x1="0.592102" y1="23.0289" x2="40.5988" y2="22.9517" gradientUnits="userSpaceOnUse">
        <stop stop-color="#28B750"/>
        <stop offset="1" stop-color="#A6D554"/>
        </linearGradient>
        <linearGradient id="paint12_linear_925_16" x1="0.592102" y1="23.0289" x2="40.5988" y2="22.9517" gradientUnits="userSpaceOnUse">
        <stop stop-color="#28B750"/>
        <stop offset="1" stop-color="#A6D554"/>
        </linearGradient>
        <linearGradient id="paint13_linear_925_16" x1="0.592102" y1="23.0289" x2="40.5988" y2="22.9517" gradientUnits="userSpaceOnUse">
        <stop stop-color="#28B750"/>
        <stop offset="1" stop-color="#A6D554"/>
        </linearGradient>
        </defs>
   </symbol>
    <symbol id="newIcon2" viewBox="0 0 35 40" fill="none" xmlns="http://www.w3.org/2000/svg">
        <path d="M8.68888 24.7054C9.1837 24.7054 9.58484 24.2975 9.58484 23.7947C9.58484 23.2916 9.1837 22.8839 8.68888 22.8839C8.19406 22.8839 7.79293 23.2916 7.79293 23.7947C7.79293 24.2975 8.19406 24.7054 8.68888 24.7054Z" fill="url(#paint0_linear_925_19)"/>
        <path fill-rule="evenodd" clip-rule="evenodd" d="M18.9872 0.322166C19.9184 0.756065 20.895 1.61552 21.4228 2.71646C21.9726 3.86332 21.8916 5.45879 21.6466 6.86365C21.466 7.89861 21.1808 8.9119 20.9066 9.71848H29.1472C29.1992 9.71848 29.2586 9.71749 29.3242 9.71669C29.786 9.70993 30.5559 9.6986 31.2227 9.95421C31.6258 10.1089 32.0233 10.369 32.3147 10.8013C32.6054 11.2323 32.7548 11.7812 32.7548 12.4497C32.7548 13.1974 32.475 13.7776 32.01 14.1881C31.9821 14.2127 31.9537 14.2366 31.9249 14.2598C32.1729 14.3727 32.4078 14.5146 32.6162 14.6937C33.1217 15.1284 33.4268 15.7458 33.4268 16.5478C33.4268 17.3883 33.1349 18.0317 32.6221 18.4746C32.3018 18.7513 31.9214 18.9266 31.5325 19.0381C31.8573 19.3807 32.0828 19.8313 32.0828 20.4183C32.0828 21.1704 31.7955 21.7554 31.3261 22.1736C30.9662 22.4942 30.5214 22.6973 30.0722 22.8293C30.4558 23.1757 30.7389 23.6498 30.7389 24.2888C30.7389 25.2826 30.2841 25.9357 29.7414 26.3366C29.2285 26.7157 28.65 26.8616 28.3743 26.9278L28.3118 26.9429L28.2476 26.9441C26.2671 26.9828 23.2346 27.0293 20.5736 27.0428C19.2435 27.0496 18.0033 27.0482 17.0326 27.0333C16.5476 27.026 16.1264 27.015 15.7933 27.0001C15.4744 26.9856 15.1983 26.9661 15.028 26.9339C14.0562 26.7501 13.5158 26.0967 13.2604 25.5525H12.2918V27.1762H4.65497L2.34896 9.71848H12.2918V11.2382C12.3135 11.2323 12.3351 11.2259 12.3565 11.2193C12.38 11.212 12.4033 11.2046 12.4264 11.1967L12.4477 11.1891C12.7177 11.0927 12.7917 11.0025 12.8047 10.9866C12.8069 10.984 12.8074 10.9834 12.8068 10.9852C12.9034 10.6926 13.13 10.3899 13.3297 10.1331L13.3991 10.0445L13.4642 9.96216L13.5902 9.80395C13.7475 9.60697 13.9154 9.39649 14.1011 9.14902C14.6654 8.39651 15.2937 7.42595 15.7147 6.16718C16.2426 4.58881 16.2822 3.53934 16.2434 2.79955L16.2378 2.70414L16.2309 2.60138C16.2246 2.51671 16.2176 2.43502 16.2105 2.35551L16.198 2.22035L16.1836 2.06333C16.1755 1.9713 16.1682 1.88027 16.1635 1.79341C16.1475 1.49228 16.1541 1.13849 16.3216 0.796017C16.5796 0.269097 17.0661 0.0403205 17.553 0.0051395C18.0194 -0.0284514 18.5224 0.105515 18.9872 0.322166ZM12.2918 12.4904V24.3313H14.1744L14.2716 24.8213C14.3174 25.0528 14.5858 25.608 15.248 25.7334C15.2852 25.7404 15.3517 25.7483 15.4499 25.7563C15.549 25.7644 15.6805 25.7726 15.8466 25.7801C16.1629 25.7944 16.571 25.805 17.0507 25.8123C18.0095 25.8268 19.2405 25.8284 20.5676 25.8216C23.192 25.8083 26.1811 25.7628 28.159 25.7245C28.4145 25.6605 28.7539 25.5565 29.035 25.3488C29.3093 25.1463 29.5375 24.8414 29.5375 24.2888C29.5375 23.929 29.2546 23.5967 28.5688 23.3431C28.2043 23.2081 27.8081 23.1308 27.4713 23.0942C27.3665 23.0928 27.2669 23.0906 27.1736 23.0883L27.0003 23.0837C26.9148 23.0815 26.8366 23.0793 26.7667 23.0779L26.7244 21.8593C26.9342 21.84 27.2159 21.8424 27.5319 21.8732C28.1386 21.8808 28.8519 21.8635 29.489 21.7204C29.9478 21.6174 30.3025 21.4614 30.5344 21.2549C30.7435 21.0686 30.8814 20.8184 30.8814 20.4183C30.8814 20.0154 30.5847 19.6757 29.894 19.4213C29.6033 19.3142 29.2878 19.242 28.9898 19.1963C28.8443 19.1867 28.7125 19.1768 28.5928 19.1679L28.5839 19.1673C28.3425 19.149 28.151 19.1347 27.9953 19.1347L27.9674 17.9141C28.2573 17.9004 28.6662 17.9155 29.1129 17.9803C29.1654 17.9838 29.2175 17.987 29.2688 17.9898C29.7638 18.0172 30.2853 18.0238 30.7587 17.9558C31.2389 17.887 31.6053 17.7503 31.8443 17.544C32.0573 17.3599 32.2254 17.0735 32.2254 16.5478C32.2254 16.0978 32.0705 15.8241 31.8402 15.6261C31.5843 15.4059 31.1933 15.2463 30.6872 15.1457C30.2831 15.0652 29.8579 15.03 29.4412 15.0159C28.9108 15.0465 28.4069 15.033 28.0372 15.0231C27.9467 15.0205 27.8645 15.0183 27.792 15.0171L27.7128 15.0165L27.6647 15.0157L27.6743 13.7947C27.7174 13.7947 27.7621 13.7949 27.8082 13.7957C27.9289 13.7957 28.0678 13.7937 28.2206 13.7913H28.2317C28.3386 13.7897 28.4523 13.7881 28.5712 13.787C28.6659 13.7862 28.764 13.7856 28.8647 13.7858C29.0455 13.786 29.2349 13.7883 29.4286 13.7947C29.6964 13.7776 29.9664 13.7464 30.227 13.6929C30.6665 13.6023 31.0034 13.4592 31.2222 13.266C31.4172 13.0941 31.5534 12.8538 31.5534 12.4497C31.5534 11.9665 31.4468 11.6743 31.3238 11.4918C31.2015 11.3104 31.0273 11.1846 30.7986 11.0969C30.3633 10.9299 29.8487 10.9343 29.3661 10.9385H29.3639C29.2908 10.9391 29.2184 10.9397 29.1472 10.9397H19.1454L19.4842 10.0979C19.803 9.30565 20.2298 7.99064 20.4636 6.65038C20.7037 5.27434 20.7121 4.02194 20.3427 3.25133C19.9513 2.43482 19.1968 1.7632 18.4864 1.43206C18.1305 1.26629 17.835 1.20905 17.638 1.22336C17.4617 1.23608 17.4199 1.29392 17.3973 1.34003C17.3827 1.37004 17.3685 1.41437 17.3625 1.49844C17.3584 1.5545 17.3579 1.62824 17.3632 1.72722C17.3691 1.83734 17.3803 1.95798 17.3942 2.10765L17.3988 2.15695C17.4111 2.28932 17.4245 2.4374 17.4351 2.59999C17.438 2.64372 17.4407 2.68864 17.4431 2.73455C17.4894 3.61746 17.4331 4.82355 16.8522 6.56034C16.3737 7.99083 15.6633 9.08025 15.0564 9.88942C14.9761 9.99655 14.8955 10.1013 14.817 10.2021C14.7639 10.27 14.7118 10.3362 14.6611 10.4L14.5025 10.5994L14.4937 10.6107C14.4112 10.7141 14.3363 10.8081 14.2722 10.8904C14.1213 11.0844 14.0347 11.21 13.9882 11.2885C13.965 11.3279 13.9519 11.3553 13.9457 11.3738C13.7578 11.943 13.2061 12.2128 12.8457 12.3414C12.6616 12.4069 12.4713 12.4556 12.2918 12.4904ZM3.72248 10.9397L5.70587 25.955H11.0904V10.9397H3.72248Z" fill="url(#paint1_linear_925_19)"/>
        <path fill-rule="evenodd" clip-rule="evenodd" d="M6.37016 34.275L5.00615 31.4657L3.64213 34.275L0.592102 34.7254L2.79912 36.9122L2.27812 40L5.00615 38.5421L7.73417 40L7.21317 36.9122L8.28125 35.854L9.34933 36.9122L8.82833 40L11.5563 38.5421L14.2844 40L13.7634 36.9122L14.7436 35.9411L15.7238 36.9122L15.2027 40L17.9308 38.5421L20.6588 40L20.1378 36.9122L21.1045 35.9544L22.0712 36.9122L21.5502 40L24.2782 38.5421L27.0062 40L26.4852 36.9122L27.3249 36.0802L28.1646 36.9122L27.6436 40L30.3716 38.5421L33.0996 40L32.5786 36.9122L34.7856 34.7254L31.7356 34.275L30.3716 31.4657L29.0076 34.275L27.3249 34.5235L25.6422 34.275L24.2782 31.4657L22.9142 34.275L21.1045 34.5424L19.2948 34.275L17.9308 31.4657L16.5668 34.275L14.7436 34.5444L12.9204 34.275L11.5563 31.4657L10.1923 34.275L8.28125 34.5573L6.37016 34.275ZM6.83841 35.5781L5.57234 35.3913L5.00615 34.2251L4.43995 35.3913L3.17391 35.5781L4.09003 36.4859L3.87376 37.7677L5.00615 37.1625L6.13854 37.7677L5.92226 36.4859L6.83841 35.5781ZM13.3886 35.5781L12.1225 35.3913L11.5563 34.2251L10.9902 35.3913L9.72411 35.5781L10.6402 36.4859L10.424 37.7677L11.5563 37.1625L12.6887 37.7677L12.4725 36.4859L13.3886 35.5781ZM18.497 35.3913L19.763 35.5781L18.8469 36.4859L19.0632 37.7677L17.9308 37.1625L16.7984 37.7677L17.0146 36.4859L16.0985 35.5781L17.3646 35.3913L17.9308 34.2251L18.497 35.3913ZM26.1104 35.5781L24.8444 35.3913L24.2782 34.2251L23.712 35.3913L22.4459 35.5781L23.3621 36.4859L23.1458 37.7677L24.2782 37.1625L25.4106 37.7677L25.1943 36.4859L26.1104 35.5781ZM30.9378 35.3913L32.2038 35.5781L31.2877 36.4859L31.504 37.7677L30.3716 37.1625L29.2392 37.7677L29.4555 36.4859L28.5394 35.5781L29.8054 35.3913L30.3716 34.2251L30.9378 35.3913Z" fill="url(#paint2_linear_925_19)"/>
        <defs>
        <linearGradient id="paint0_linear_925_19" x1="0.592102" y1="23.6194" x2="34.7914" y2="23.5644" gradientUnits="userSpaceOnUse">
        <stop stop-color="#28B750"/>
        <stop offset="1" stop-color="#A6D554"/>
        </linearGradient>
        <linearGradient id="paint1_linear_925_19" x1="0.592102" y1="23.6194" x2="34.7914" y2="23.5644" gradientUnits="userSpaceOnUse">
        <stop stop-color="#28B750"/>
        <stop offset="1" stop-color="#A6D554"/>
        </linearGradient>
        <linearGradient id="paint2_linear_925_19" x1="0.592102" y1="23.6194" x2="34.7914" y2="23.5644" gradientUnits="userSpaceOnUse">
        <stop stop-color="#28B750"/>
        <stop offset="1" stop-color="#A6D554"/>
        </linearGradient>
        </defs>
    </symbol>
    <symbol id="newIcon3" viewBox="0 0 41 38" fill="none" xmlns="http://www.w3.org/2000/svg">
        <path d="M30.4452 37.6975H1.69666C1.08655 37.6975 0.592041 37.203 0.592041 36.5929V12.156C0.592041 11.5459 1.08655 11.0514 1.69666 11.0514H33.6593C34.2698 11.0514 34.7644 11.5459 34.7644 12.156V16.6382C34.7644 17.2483 34.2698 17.7428 33.6593 17.7428C33.0496 17.7428 32.5551 17.2483 32.5551 16.6382V13.2602H2.80083V35.4883H30.4452C31.6083 35.4883 32.5551 34.541 32.5551 33.3762V21.8927C32.5551 21.2826 33.0496 20.7881 33.6593 20.7881C34.2698 20.7881 34.7644 21.2826 34.7644 21.8927V33.3766C34.7639 35.7591 32.8263 37.6975 30.4452 37.6975Z" fill="url(#paint0_linear_925_22)"/>
        <path fill-rule="evenodd" clip-rule="evenodd" d="M28.3314 3.91291H33.6597C34.2698 3.91291 34.7644 4.40741 34.7644 5.01752V12.1542C34.7639 12.7643 34.2694 13.2588 33.6593 13.2588H1.69666C1.08699 13.2588 0.592484 12.7643 0.592484 12.1542V5.01752C0.592484 4.40741 1.08699 3.91291 1.69666 3.91291H7.02456V2.04126C7.02456 1.43115 7.51906 0.936646 8.12917 0.936646C8.73928 0.936646 9.23379 1.43115 9.23379 2.04126V3.91291H16.5745V2.04126C16.5745 1.43115 17.069 0.936646 17.6786 0.936646C18.2892 0.936646 18.7837 1.43115 18.7837 2.04126V3.91291H26.1221V2.04126C26.1221 1.43115 26.6167 0.936646 27.2268 0.936646C27.8369 0.936646 28.3314 1.43115 28.3314 2.04126V3.91291ZM7.02456 8.09137C7.02456 8.70148 7.51906 9.19599 8.12917 9.19599C8.73928 9.19599 9.23379 8.70148 9.23379 8.09181V6.12214H16.5745V8.09137C16.5745 8.70148 17.069 9.19599 17.6786 9.19599C18.2892 9.19599 18.7837 8.70148 18.7837 8.09181V6.12214H26.1221V8.09137C26.1221 8.70148 26.6167 9.19599 27.2268 9.19599C27.8364 9.19599 28.3309 8.70148 28.3314 8.09181V6.12214H32.5547V11.05H2.80128V6.12214H7.02456V8.09137Z" fill="url(#paint1_linear_925_22)"/>
        <path d="M22.2158 27.7287C22.1687 27.7287 22.1204 27.7256 22.0729 27.7195C21.7586 27.6782 21.4778 27.5045 21.3002 27.2417L18.1098 22.5094C17.7692 22.0039 17.9024 21.3173 18.4083 20.9766C18.9138 20.6351 19.6008 20.7692 19.9415 21.2751L22.432 24.9696L28.0593 20.0589V18.1767H16.3731V30.3424H28.0593V26.098C28.0593 25.4879 28.5538 24.9934 29.1639 24.9934C29.774 24.9934 30.2685 25.4879 30.2685 26.098V31.447C30.2685 32.0571 29.774 32.5516 29.1639 32.5516H15.269C14.6589 32.5516 14.1644 32.0571 14.1644 31.447V17.0725C14.1644 16.4624 14.6589 15.9679 15.269 15.9679H29.1639C29.774 15.9679 30.2685 16.4624 30.2685 17.0725V18.131L38.3934 11.0408C38.8531 10.6395 39.5503 10.6865 39.9516 11.1463C40.3525 11.6061 40.3054 12.3037 39.8457 12.7045L29.9244 21.3629C29.9019 21.3843 29.8784 21.4047 29.8542 21.4242L22.9424 27.4562C22.7402 27.6333 22.4817 27.7287 22.2158 27.7287Z" fill="url(#paint2_linear_925_22)"/>
        <path fill-rule="evenodd" clip-rule="evenodd" d="M11.0158 22.9969H6.19379C5.58368 22.9969 5.08918 22.5024 5.08918 21.8922V17.0711C5.08918 16.461 5.58368 15.9665 6.19379 15.9665H11.0158C11.6254 15.9665 12.1199 16.461 12.1199 17.0711V21.8922C12.1199 22.5024 11.6254 22.9969 11.0158 22.9969ZM7.29841 20.7876H9.91072V18.1758H7.29841V20.7876Z" fill="url(#paint3_linear_925_22)"/>
        <path fill-rule="evenodd" clip-rule="evenodd" d="M11.0158 32.5494H6.19379C5.58368 32.5494 5.08918 32.0549 5.08918 31.4448V26.6241C5.08918 26.014 5.58368 25.5195 6.19379 25.5195H11.0158C11.6254 25.5195 12.1199 26.014 12.1199 26.6241V31.4452C12.1199 32.0549 11.6254 32.5494 11.0158 32.5494ZM7.29841 30.3406H9.91072V27.7287H7.29841V30.3406Z" fill="url(#paint4_linear_925_22)"/>
        <defs>
        <linearGradient id="paint0_linear_925_22" x1="0.592041" y1="22.6434" x2="40.2305" y2="22.563" gradientUnits="userSpaceOnUse">
        <stop stop-color="#28B750"/>
        <stop offset="1" stop-color="#A6D554"/>
        </linearGradient>
        <linearGradient id="paint1_linear_925_22" x1="0.592041" y1="22.6434" x2="40.2305" y2="22.563" gradientUnits="userSpaceOnUse">
        <stop stop-color="#28B750"/>
        <stop offset="1" stop-color="#A6D554"/>
        </linearGradient>
        <linearGradient id="paint2_linear_925_22" x1="0.592041" y1="22.6434" x2="40.2305" y2="22.563" gradientUnits="userSpaceOnUse">
        <stop stop-color="#28B750"/>
        <stop offset="1" stop-color="#A6D554"/>
        </linearGradient>
        <linearGradient id="paint3_linear_925_22" x1="0.592041" y1="22.6434" x2="40.2305" y2="22.563" gradientUnits="userSpaceOnUse">
        <stop stop-color="#28B750"/>
        <stop offset="1" stop-color="#A6D554"/>
        </linearGradient>
        <linearGradient id="paint4_linear_925_22" x1="0.592041" y1="22.6434" x2="40.2305" y2="22.563" gradientUnits="userSpaceOnUse">
        <stop stop-color="#28B750"/>
        <stop offset="1" stop-color="#A6D554"/>
        </linearGradient>
        </defs>
    </symbol>
    <symbol id="newIcon4"  viewBox="0 0 41 40" fill="none" xmlns="http://www.w3.org/2000/svg">
        <path fill-rule="evenodd" clip-rule="evenodd" d="M27.882 12.3744C26.5311 11.2368 24.6646 10.668 22.2828 10.668H15.297V21.7353H10.9071V23.3786H15.297V24.5621H10.9071V26.2054H15.297V29.3321H17.2701V26.2054H21.0297V24.5621H17.2701V23.4396H22.2828C24.6646 23.4396 26.5311 22.8797 27.882 21.7599C29.2329 20.6222 29.9084 19.058 29.9084 17.0671C29.9084 15.0763 29.2329 13.512 27.882 12.3744ZM26.4689 20.5067C25.4912 21.3065 24.0781 21.7065 22.2295 21.7065H17.2701V12.3744H22.2295C24.0781 12.3744 25.4912 12.7833 26.4689 13.6009C27.4465 14.4008 27.9354 15.5562 27.9354 17.0671C27.9354 18.5425 27.4465 19.689 26.4689 20.5067Z" fill="url(#paint0_linear_925_25)"/>
        <path fill-rule="evenodd" clip-rule="evenodd" d="M20.4079 40C31.4535 40 40.4078 31.0457 40.4078 20C40.4078 8.95429 31.4535 0 20.4079 0C9.36213 0 0.407837 8.95429 0.407837 20C0.407837 31.0457 9.36213 40 20.4079 40ZM20.4079 36.8592C30.2712 36.8592 37.2671 29.8634 37.2671 20C37.2671 10.1366 30.2712 3.14075 20.4079 3.14075C10.5444 3.14075 3.54859 10.1366 3.54859 20C3.54859 29.8634 10.5444 36.8592 20.4079 36.8592Z" fill="url(#paint1_linear_925_25)"/>
        <defs>
        <linearGradient id="paint0_linear_925_25" x1="0.407837" y1="23.6194" x2="40.4145" y2="23.5441" gradientUnits="userSpaceOnUse">
        <stop stop-color="#28B750"/>
        <stop offset="1" stop-color="#A6D554"/>
        </linearGradient>
        <linearGradient id="paint1_linear_925_25" x1="0.407837" y1="23.6194" x2="40.4145" y2="23.5441" gradientUnits="userSpaceOnUse">
        <stop stop-color="#28B750"/>
        <stop offset="1" stop-color="#A6D554"/>
        </linearGradient>
        </defs>
    </symbol>
    <symbol id="newIcon5" viewBox="0 0 20 20" fill="none" xmlns="http://www.w3.org/2000/svg">
        <circle cx="10" cy="10" r="10" fill="white"/>
        <path fill-rule="evenodd" clip-rule="evenodd" d="M12.9897 6.94977C12.4493 6.49472 11.7027 6.2672 10.75 6.2672H7.95568V10.6941H6.19969V11.3514H7.95568V11.8249H6.19969V12.4822H7.95568V13.7329H8.7449V12.4822H10.2487V11.8249H8.7449V11.3758H10.75C11.7027 11.3758 12.4493 11.1519 12.9897 10.7039C13.53 10.2489 13.8002 9.62318 13.8002 8.82685C13.8002 8.03051 13.53 7.40482 12.9897 6.94977ZM12.4244 10.2027C12.0333 10.5226 11.4681 10.6826 10.7287 10.6826H8.7449V6.94977H10.7287C11.4681 6.94977 12.0333 7.11331 12.4244 7.44038C12.8155 7.76032 13.011 8.2225 13.011 8.82685C13.011 9.417 12.8155 9.8756 12.4244 10.2027Z" fill="url(#paint0_linear_811_616)"/>
        <path fill-rule="evenodd" clip-rule="evenodd" d="M10 18C14.4183 18 18 14.4183 18 9.99999C18 5.58171 14.4183 2 10 2C5.58172 2 2 5.58171 2 9.99999C2 14.4183 5.58172 18 10 18ZM10 17.1437C13.9454 17.1437 17.1437 13.9453 17.1437 9.99999C17.1437 6.05464 13.9454 2.8563 10 2.8563C6.05464 2.8563 2.8563 6.05464 2.8563 9.99999C2.8563 13.9453 6.05464 17.1437 10 17.1437Z" fill="url(#paint1_linear_811_616)"/>
        <defs>
        <linearGradient id="paint0_linear_811_616" x1="2" y1="11.4478" x2="18.0027" y2="11.4176" gradientUnits="userSpaceOnUse">
        <stop stop-color="#28B750"/>
        <stop offset="1" stop-color="#A6D554"/>
        </linearGradient>
        <linearGradient id="paint1_linear_811_616" x1="2" y1="11.4478" x2="18.0027" y2="11.4176" gradientUnits="userSpaceOnUse">
        <stop stop-color="#28B750"/>
        <stop offset="1" stop-color="#A6D554"/>
        </linearGradient>
        </defs>
    </symbol>
    <symbol id="newIcon6" viewBox="0 0 64 64" fill="none" xmlns="http://www.w3.org/2000/svg">
        <circle cx="32" cy="32" r="32" fill="white"/>
        <path fill-rule="evenodd" clip-rule="evenodd" d="M40.9691 22.8493C39.3479 21.4842 37.1082 20.8016 34.2499 20.8016H25.867V34.0824H20.5991V36.0543H25.867V37.4746H20.5991V39.4465H25.867V43.1986H28.2347V39.4465H32.7462V37.4746H28.2347V36.1275H34.2499C37.1082 36.1275 39.3479 35.4556 40.9691 34.1118C42.5901 32.7466 43.4007 30.8695 43.4007 28.4805C43.4007 26.0915 42.5901 24.2145 40.9691 22.8493ZM39.2733 32.608C38.1 33.5679 36.4043 34.0478 34.186 34.0478H28.2347V22.8493H34.186C36.4043 22.8493 38.1 23.3399 39.2733 24.3211C40.4464 25.281 41.033 26.6675 41.033 28.4805C41.033 30.251 40.4464 31.6268 39.2733 32.608Z" fill="url(#paint0_linear_951_27)"/>
        <path fill-rule="evenodd" clip-rule="evenodd" d="M32.0001 56C45.2548 56 56 45.2548 56 32C56 18.7451 45.2548 8 32.0001 8C18.7452 8 8 18.7451 8 32C8 45.2548 18.7452 56 32.0001 56ZM32.0001 53.4311C43.8361 53.4311 53.4311 43.836 53.4311 32C53.4311 20.1639 43.8361 10.5689 32.0001 10.5689C20.1639 10.5689 10.5689 20.1639 10.5689 32C10.5689 43.836 20.1639 53.4311 32.0001 53.4311Z" fill="url(#paint1_linear_951_27)"/>
        <defs>
        <linearGradient id="paint0_linear_951_27" x1="8" y1="36.3433" x2="56.008" y2="36.2529" gradientUnits="userSpaceOnUse">
        <stop stop-color="#28B750"/>
        <stop offset="1" stop-color="#A6D554"/>
        </linearGradient>
        <linearGradient id="paint1_linear_951_27" x1="8" y1="36.3433" x2="56.008" y2="36.2529" gradientUnits="userSpaceOnUse">
        <stop stop-color="#28B750"/>
        <stop offset="1" stop-color="#A6D554"/>
        </linearGradient>
        </defs>
    </symbol>
    <symbol id="newIcon7" viewBox="0 0 64 64" fill="none" xmlns="http://www.w3.org/2000/svg">
        <circle cx="32" cy="32" r="32" fill="white"/>
        <path d="M45.5431 53.5023H12.4822C11.7806 53.5023 11.2119 52.9336 11.2119 52.232V24.1295C11.2119 23.4279 11.7806 22.8592 12.4822 22.8592H49.2393C49.9414 22.8592 50.5101 23.4279 50.5101 24.1295V29.284C50.5101 29.9857 49.9414 30.5543 49.2393 30.5543C48.5381 30.5543 47.9695 29.9857 47.9695 29.284V25.3993H13.752V50.9617H45.5431C46.8806 50.9617 47.9695 49.8723 47.9695 48.5328V35.3267C47.9695 34.6251 48.5381 34.0564 49.2393 34.0564C49.9414 34.0564 50.5101 34.6251 50.5101 35.3267V48.5333C50.5096 51.273 48.2813 53.5023 45.5431 53.5023Z" fill="url(#paint0_linear_951_28)"/>
        <path fill-rule="evenodd" clip-rule="evenodd" d="M18.6093 19.4552C18.6093 20.1568 19.178 20.7255 19.8796 20.7255C20.5812 20.7255 21.1499 20.1568 21.1499 19.4557V17.1905H29.5917V19.4552C29.5917 20.1568 30.1603 20.7255 30.8615 20.7255C31.5636 20.7255 32.1323 20.1568 32.1323 19.4557V17.1905H40.5715V19.4552C40.5715 20.1568 41.1402 20.7255 41.8418 20.7255C42.5429 20.7255 43.1116 20.1568 43.1121 19.4557V17.1905H47.9689V22.8576H13.7525V17.1905H18.6093V19.4552ZM43.1121 14.6499H49.2397C49.9414 14.6499 50.5101 15.2186 50.5101 15.9202V24.1275C50.5095 24.8291 49.9409 25.3978 49.2392 25.3978H12.4822C11.7811 25.3978 11.2124 24.8291 11.2124 24.1275V15.9202C11.2124 15.2186 11.7811 14.6499 12.4822 14.6499H18.6093V12.4975C18.6093 11.7959 19.178 11.2272 19.8796 11.2272C20.5812 11.2272 21.1499 11.7959 21.1499 12.4975V14.6499H29.5917V12.4975C29.5917 11.7959 30.1603 11.2272 30.8615 11.2272C31.5636 11.2272 32.1323 11.7959 32.1323 12.4975V14.6499H40.5715V12.4975C40.5715 11.7959 41.1402 11.2272 41.8418 11.2272C42.5434 11.2272 43.1121 11.7959 43.1121 12.4975V14.6499Z" fill="url(#paint1_linear_951_28)"/>
        <path fill-rule="evenodd" clip-rule="evenodd" d="M36.0791 42.0381C36.025 42.0381 35.9694 42.0345 35.9148 42.0275C35.5534 41.9799 35.2304 41.7803 35.0262 41.478L31.3573 36.0358C30.9655 35.4545 31.1187 34.6649 31.7005 34.2732C32.2819 33.8804 33.0719 34.0346 33.4637 34.6164L36.3278 38.8651L42.7992 33.2178V31.0532H29.3601V45.0438H42.7992V40.1627C42.7992 39.4611 43.3679 38.8924 44.0695 38.8924C44.7711 38.8924 45.3398 39.4611 45.3398 40.1627V46.3141C45.3398 47.0157 44.7711 47.5844 44.0695 47.5844H28.0903C27.3887 47.5844 26.82 47.0157 26.82 46.3141V29.7834C26.82 29.0818 27.3887 28.5131 28.0903 28.5131H44.0695C44.7711 28.5131 45.3398 29.0818 45.3398 29.7834V31.0007L54.6833 22.847C55.2121 22.3855 56.0138 22.4396 56.4753 22.9683C56.9363 23.4971 56.8822 24.2993 56.3535 24.7603L44.944 34.7174C44.9181 34.742 44.8912 34.7655 44.8633 34.7879L36.9147 41.7247C36.6822 41.9284 36.385 42.0381 36.0791 42.0381ZM23.1991 36.5965H17.6539C16.9522 36.5965 16.3835 36.0278 16.3835 35.3261V29.7819C16.3835 29.0803 16.9522 28.5116 17.6539 28.5116H23.1991C23.9002 28.5116 24.4689 29.0803 24.4689 29.7819V35.3261C24.4689 36.0278 23.9002 36.5965 23.1991 36.5965ZM18.9242 34.0558H21.9283V31.0522H18.9242V34.0558ZM23.1991 47.5819H17.6539C16.9522 47.5819 16.3835 47.0132 16.3835 46.3116V40.7678C16.3835 40.0662 16.9522 39.4975 17.6539 39.4975H23.1991C23.9002 39.4975 24.4689 40.0662 24.4689 40.7678V46.3121C24.4689 47.0132 23.9002 47.5819 23.1991 47.5819ZM18.9242 45.0418H21.9283V42.0381H18.9242V45.0418Z" fill="url(#paint2_linear_951_28)"/>
        <defs>
        <linearGradient id="paint0_linear_951_28" x1="11.2119" y1="40.9535" x2="50.5165" y2="40.8586" gradientUnits="userSpaceOnUse">
        <stop stop-color="#28B750"/>
        <stop offset="1" stop-color="#A6D554"/>
        </linearGradient>
        <linearGradient id="paint1_linear_951_28" x1="11.2124" y1="19.5947" x2="50.5157" y2="19.3895" gradientUnits="userSpaceOnUse">
        <stop stop-color="#28B750"/>
        <stop offset="1" stop-color="#A6D554"/>
        </linearGradient>
        <linearGradient id="paint2_linear_951_28" x1="16.3835" y1="37.3256" x2="56.795" y2="37.203" gradientUnits="userSpaceOnUse">
        <stop stop-color="#28B750"/>
        <stop offset="1" stop-color="#A6D554"/>
        </linearGradient>
        </defs>
    </symbol>
    <symbol id="newIcon8" viewBox="0 0 14 18" fill="none" xmlns="http://www.w3.org/2000/svg">
        <g clip-path="url(#clip0_801_357)">
        <path d="M13.6762 1.44396C13.5746 1.36173 13.4558 1.30332 13.3286 1.27304C13.2014 1.24275 13.0691 1.24136 12.9412 1.26896C12.0063 1.46491 11.041 1.4674 10.1051 1.27629C9.16906 1.08518 8.28209 0.704508 7.49875 0.157709C7.35228 0.0560974 7.17827 0.00164795 7 0.00164795C6.82173 0.00164795 6.64772 0.0560974 6.50125 0.157709C5.71791 0.704508 4.83094 1.08518 3.89495 1.27629C2.95895 1.4674 1.99375 1.46491 1.05875 1.26896C0.930951 1.24136 0.798587 1.24275 0.671393 1.27304C0.544199 1.30332 0.425408 1.36173 0.323755 1.44396C0.222237 1.52631 0.140461 1.63036 0.0844358 1.74847C0.0284108 1.86658 -0.000439416 1.99574 5.0588e-06 2.12646V8.6452C-0.000772847 9.89973 0.298181 11.1363 0.871972 12.2519C1.44576 13.3675 2.27779 14.3299 3.29875 15.0589L6.4925 17.3339C6.64069 17.4395 6.81808 17.4962 7 17.4962C7.18192 17.4962 7.35931 17.4395 7.5075 17.3339L10.7012 15.0589C11.7222 14.3299 12.5542 13.3675 13.128 12.2519C13.7018 11.1363 14.0008 9.89973 14 8.6452V2.12646C14.0004 1.99574 13.9716 1.86658 13.9156 1.74847C13.8595 1.63036 13.7778 1.52631 13.6762 1.44396ZM12.25 8.6452C12.2507 9.62061 12.0184 10.5821 11.5724 11.4496C11.1265 12.3171 10.4798 13.0656 9.68625 13.6327L7 15.5489L4.31375 13.6327C3.52016 13.0656 2.87349 12.3171 2.42756 11.4496C1.98163 10.5821 1.74933 9.62061 1.75 8.6452V3.13271C3.58438 3.28971 5.42154 2.8641 7 1.91646C8.57846 2.8641 10.4156 3.28971 12.25 3.13271V8.6452ZM8.3475 6.64145L5.99375 9.00395L5.215 8.21645C5.05024 8.05169 4.82677 7.95912 4.59375 7.95912C4.36074 7.95912 4.13727 8.05169 3.9725 8.21645C3.80774 8.38122 3.71517 8.60469 3.71517 8.8377C3.71517 9.07072 3.80774 9.29419 3.9725 9.45895L5.3725 10.859C5.45384 10.941 5.55062 11.0061 5.65725 11.0505C5.76387 11.0949 5.87824 11.1178 5.99375 11.1178C6.10926 11.1178 6.22363 11.0949 6.33026 11.0505C6.43688 11.0061 6.53366 10.941 6.615 10.859L9.625 7.8752C9.78976 7.71044 9.88233 7.48697 9.88233 7.25395C9.88233 7.02094 9.78976 6.79747 9.625 6.6327C9.46023 6.46794 9.23676 6.37537 9.00375 6.37537C8.77073 6.37537 8.54727 6.46794 8.3825 6.6327L8.3475 6.64145Z" fill="url(#paint0_linear_801_357)"/>
        </g>
        <defs>
        <linearGradient id="paint0_linear_801_357" x1="1.93369e-08" y1="10.3319" x2="14.0024" y2="10.3108" gradientUnits="userSpaceOnUse">
        <stop stop-color="#28B750"/>
        <stop offset="1" stop-color="#A6D554"/>
        </linearGradient>
        <clipPath id="clip0_801_357">
        <rect width="14" height="17.5" fill="white"/>
        </clipPath>
        </defs>
    </symbol>


    <!-- <symbol id="iconlinext" viewBox="">

    </symbol>
    <symbol id="iconlinext" viewBox="">

    </symbol>
    <symbol id="iconlinext" viewBox="">

    </symbol>
    <symbol id="iconlinext" viewBox="">

    </symbol> -->
</svg>