<svg xmlns="http://www.w3.org/2000/svg" xmlns:xlink="http://www.w3.org/1999/xlink" xmlns:bx="https://boxy-svg.com">
    <symbol id="icon-btn-arrow" viewBox="0 0 26 17">
        <path d="M1.90186 8.67321H23.7672M23.7672 8.67321L17.4898 1.61983M23.7672 8.67321L17.4898 14.9507" stroke="white" stroke-width="3" stroke-linecap="round" stroke-linejoin="round"/>
    </symbol>
    <symbol id="icon-m-advantage-1" fill="none" viewBox="0 0 20 27">
        <path d="M10.1323 1C5.54587 1 1.83643 4.70944 1.83643 9.29588C1.83643 15.5178 10.1323 24.7025 10.1323 24.7025C10.1323 24.7025 18.4282 15.5178 18.4282 9.29588C18.4282 4.70944 14.7187 1 10.1323 1ZM10.1323 12.2587C8.49683 12.2587 7.16949 10.9314 7.16949 9.29588C7.16949 7.66041 8.49683 6.33307 10.1323 6.33307C11.7678 6.33307 13.0951 7.66041 13.0951 9.29588C13.0951 10.9314 11.7678 12.2587 10.1323 12.2587Z" stroke="#28B750" stroke-width="2"/>
    </symbol>
    <symbol id="icon-m-advantage-2" fill="none" viewBox="0 0 31 25">
        <path d="M13.2701 23.0894V15.6461H18.2323V23.0894H24.435V13.165H28.1567L15.7512 2L3.34564 13.165H7.0673V23.0894H13.2701Z" stroke="#28B750" stroke-width="2"/>
    </symbol>
    <symbol id="icon-select-arrow" fill="none" viewBox="0 0 19 12">
        <path d="M17.9729 1.89258L9.50342 10.3619L1.03408 1.89258" stroke="#5C2D16" stroke-width="2" stroke-linecap="round"/>
    </symbol>
    <symbol id="icon-slider-next" viewBox="0 0 44 29">
        <path d="M0.19873 15.2271H42.2809M42.2809 15.2271L30.1993 1.6521M42.2809 15.2271L30.1993 27.3087" stroke-width="2"/>
    </symbol>
    <symbol id="icon-slider-prev" viewBox="0 0 45 29">
        <path d="M44.4338 15.2271H2.35169M2.35169 15.2271L14.4333 1.6521M2.35169 15.2271L14.4333 27.3087" stroke-width="2"/>
    </symbol>
    <symbol id="icon-social-1" fill="none" viewBox="0 0 27 31">
        <path d="M19.0419 1.92529H13.2174V20.1309C13.1942 20.1309 13.2174 20.9426 12.6108 21.8504C12.2707 22.3594 11.7873 22.7562 11.2217 22.9904C10.6561 23.2247 10.0338 23.286 9.43343 23.1665C8.83304 23.0471 8.28154 22.7523 7.84868 22.3195C7.41582 21.8866 7.12103 21.3351 7.0016 20.7347C6.88216 20.1343 6.94347 19.512 7.17772 18.9464C7.41199 18.3809 7.80869 17.8975 8.31769 17.5574C8.82669 17.2173 9.4251 17.0358 10.0373 17.0358V11.1262C8.2563 11.1262 6.51534 11.6543 5.03453 12.6438C3.55373 13.6332 2.39957 15.0396 1.71804 16.685C1.03649 18.3303 0.858178 20.1409 1.20561 21.8876C1.55307 23.6343 2.41067 25.2388 3.67001 26.4982C4.92933 27.7575 6.5338 28.6151 8.28053 28.9625C10.0273 29.31 11.8378 29.1317 13.4832 28.4501C15.1286 27.7686 16.5349 26.6144 17.5244 25.1336C18.485 23.6959 19.0108 22.0129 19.0406 20.2863H19.0419V12.1387C21.0689 13.421 23.4457 14.087 25.8786 14.0241L25.7264 8.13636C24.0537 8.17959 22.4324 7.55661 21.2191 6.40444C20.0057 5.25226 19.2998 3.66529 19.2566 1.99264L19.0419 1.99819V1.92529Z" stroke-width="2"/>
    </symbol>
    <symbol id="icon-social-2" fill="none" viewBox="0 0 28 27">
        <path d="M2.54744 23.4651L2.09526 25.1323L3.76624 24.6941L9.14295 23.2841C10.77 24.0709 12.5431 24.5009 14.3919 24.5009C20.9094 24.5009 26.1957 19.238 26.1957 12.7347V12.7211L26.1953 12.7076C26.1134 9.68792 24.9652 6.72649 22.7284 4.49749C20.5023 2.27914 17.5292 1.0437 14.3919 1.0437C7.87438 1.0437 2.58812 6.30661 2.58812 12.81C2.58812 14.7281 3.08751 16.637 3.95289 18.2829L2.54744 23.4651ZM17.6506 16.9396L17.6393 16.9412L17.6279 16.9431C17.3143 16.9952 16.8738 16.9991 16.4303 16.898C16.2836 16.8411 16.1475 16.793 16.0132 16.7456C15.7192 16.6418 15.4339 16.541 15.0645 16.3569L15.0338 16.3416L15.002 16.3284C14.6394 16.1779 14.2954 15.9943 13.9719 15.7902C14.3305 15.9944 14.6154 16.1226 14.7908 16.2015C14.8491 16.2277 14.8954 16.2485 14.9281 16.2648C15.1894 16.395 15.5365 16.5039 15.9284 16.4258C16.3133 16.3491 16.5617 16.1251 16.6843 16.0028C16.7925 15.8951 16.9858 15.679 17.1669 15.4585C17.2336 15.3772 17.3125 15.2788 17.3916 15.1731C17.5348 15.2409 17.7037 15.3233 17.8746 15.4084C18.068 15.5048 18.2593 15.6024 18.4138 15.6838C18.4912 15.7247 18.5563 15.7598 18.6064 15.7877C18.6458 15.8097 18.666 15.8218 18.6726 15.8257C18.6755 15.8275 18.6758 15.8276 18.6738 15.8263L18.7256 15.8607L18.7801 15.8878C18.7609 16.0051 18.727 16.1418 18.672 16.2894C18.6701 16.2919 18.6497 16.3283 18.5856 16.3938C18.5077 16.4734 18.3972 16.5632 18.2633 16.651C18.1308 16.7378 17.9927 16.8114 17.8698 16.8645C17.809 16.8908 17.7568 16.9099 17.7154 16.9227C17.695 16.9291 17.6789 16.9334 17.6671 16.9361C17.656 16.9388 17.6506 16.9396 17.6506 16.9396ZM11.457 10.3871C11.4668 10.4095 11.4766 10.4319 11.4864 10.4539C11.3657 10.5756 11.2599 10.7098 11.1954 10.7924C11.1794 10.8129 11.1665 10.8295 11.1554 10.8439C11.138 10.8663 11.1247 10.8834 11.1104 10.9015C11.107 10.9057 11.1042 10.9092 11.1019 10.9121C11.0373 10.9748 10.8376 11.1719 10.721 11.4333C10.6436 11.6069 10.5912 11.8254 10.6154 12.0733C10.6307 12.2288 10.6734 12.3692 10.7308 12.493L10.7158 12.4781C10.7188 12.481 10.7154 12.4767 10.7068 12.4656C10.6614 12.4072 10.4697 12.1603 10.2738 11.7837C10.0461 11.3463 9.87669 10.8526 9.87669 10.4007C9.87669 9.90368 9.99807 9.58014 10.1195 9.36111C10.2185 9.18265 10.2901 9.09872 10.384 8.98848C10.4206 8.94564 10.4605 8.89883 10.5067 8.84096C10.5162 8.84093 10.5267 8.84092 10.5388 8.84092H10.5397H10.5406H10.5415H10.5424H10.5433H10.5441H10.545H10.5459H10.5468H10.5477H10.5486H10.5496H10.5505H10.5514H10.5523H10.5532H10.5541H10.555H10.5559H10.5569H10.5578H10.5587H10.5596H10.5605H10.5615H10.5624H10.5633H10.5642H10.5652H10.5661H10.5671H10.568H10.5689H10.5699H10.5708H10.5717H10.5727H10.5736H10.5746H10.5755H10.5765H10.5774H10.5784H10.5793H10.5803H10.5813H10.5822H10.5832H10.5841H10.5851H10.5861H10.587H10.588H10.589H10.5899H10.5909H10.5919H10.5928H10.5938H10.5948H10.5958H10.5968H10.5977H10.5987H10.5997H10.6007H10.6017H10.6027H10.6036H10.6046H10.6056H10.6066H10.6076H10.6086H10.6096H10.6106H10.6116H10.6126H10.6136H10.6146H10.6156H10.6166H10.6176H10.6186H10.6196H10.6206H10.6216H10.6226H10.6237H10.6247H10.6257H10.6267H10.6277H10.6287H10.6298H10.6308H10.6318H10.6328H10.6338H10.6349H10.6359H10.6369H10.6379H10.639H10.64H10.641H10.6421H10.6431H10.6441H10.6452H10.6462H10.6472H10.6483H10.6493H10.6503H10.6514H10.6524H10.6535H10.6545H10.6556H10.6566H10.6576H10.6587H10.6597H10.6608H10.6618H10.6629H10.6639H10.665H10.666H10.6671H10.6681H10.6692H10.6703H10.6713H10.6724H10.6734H10.6745H10.6756H10.6766H10.6777H10.6787H10.6798H10.6809H10.6819H10.683H10.6841H10.6851H10.6862H10.6873H10.6883H10.6894H10.6905H10.6915H10.6926H10.6937H10.6948H10.6958H10.6969H10.698H10.6991H10.7001H10.7012H10.7023H10.7034H10.7045H10.7055H10.7066H10.7077H10.7088H10.7099H10.7109H10.712H10.7131H10.7142H10.7153H10.7164H10.7174H10.7185H10.7196H10.7207H10.7218H10.7229H10.724H10.7251H10.7262H10.7272H10.7283H10.7294H10.7305H10.7316H10.7327H10.7338H10.7349H10.736H10.7371H10.7382H10.7393H10.7404H10.7415H10.7426H10.7436H10.7447H10.7458H10.7469H10.748H10.7491H10.7502H10.7513H10.7524H10.7535H10.7546H10.7557H10.7568H10.7579H10.759H10.7601H10.7612H10.7623H10.7634H10.7645H10.7657H10.7668H10.7679H10.769H10.7701H10.7712H10.7723H10.7734H10.7745H10.7756H10.7767H10.7778H10.7789H10.78H10.7811H10.7822H10.7833H10.7844H10.7855H10.7866H10.7877H10.7888H10.79H10.7911H10.7922H10.7933H10.7944H10.7955H10.7966H10.7977H10.7988H10.7999H10.801H10.8021H10.8032H10.8043H10.8054H10.8066H10.8077H10.8088H10.8099H10.811H10.8121H10.8132H10.8143H10.8154H10.8165H10.8176H10.8182C10.8834 8.99741 10.9629 9.19241 11.0473 9.39966C11.1033 9.53713 11.1615 9.67998 11.2192 9.82057C11.3044 10.0282 11.3884 10.2301 11.457 10.3871ZM10.7195 8.61914C10.7196 8.61908 10.7204 8.62026 10.7219 8.62285C10.7203 8.6205 10.7195 8.6192 10.7195 8.61914ZM18.7968 15.5728C18.7967 15.5721 18.7966 15.5716 18.7966 15.5715L18.7968 15.5728Z" stroke-width="2"/>
    </symbol>
    <symbol id="icon-social-3" fill="none" viewBox="0 0 27 27">
        <rect x="1.82983" y="1.8562" width="23.8705" height="23.8705" rx="6.95484" stroke-width="2"/>
        <circle cx="13.7652" cy="13.7914" r="5.76503" stroke-width="2"/>
        <circle cx="20.6691" cy="6.70208" r="1.62175" fill="#28B750"/>
    </symbol>
    <symbol id="icon-social-4" fill="none" viewBox="0 0 27 27">
        <rect x="1.30884" y="1.27832" width="23.8705" height="23.8705" rx="6.95484" stroke-width="2"/>
        <circle cx="13.2442" cy="13.2133" r="5.76503" stroke-width="2"/>
        <circle cx="20.1481" cy="6.12371" r="1.62175" fill="#28B750"/>
    </symbol>
    <symbol id="icon-social-5" viewBox="0 0 27 27">
        <path d="M2.26411 23.6997L1.81194 25.3669L3.48291 24.9287L8.85962 23.5187C10.4866 24.3055 12.2597 24.7356 14.1086 24.7356C20.6261 24.7356 25.9124 19.4727 25.9124 12.9693V12.9557L25.912 12.9422C25.8301 9.92254 24.6819 6.96111 22.4451 4.7321C20.219 2.51376 17.2459 1.27832 14.1086 1.27832C7.59105 1.27832 2.3048 6.54123 2.3048 13.0446C2.3048 14.9627 2.80419 16.8716 3.66956 18.5176L2.26411 23.6997ZM17.3673 17.1742L17.356 17.1758L17.3445 17.1777C17.031 17.2298 16.5905 17.2337 16.147 17.1326C16.0002 17.0757 15.8642 17.0277 15.7299 16.9802C15.4359 16.8764 15.1506 16.7756 14.7812 16.5916L14.7504 16.5762L14.7187 16.5631C14.3561 16.4125 14.0121 16.2289 13.6886 16.0249C14.0471 16.229 14.3321 16.3572 14.5074 16.4361C14.5658 16.4623 14.612 16.4831 14.6448 16.4994C14.9061 16.6297 15.2532 16.7385 15.6451 16.6604C16.03 16.5837 16.2783 16.3597 16.401 16.2374C16.5091 16.1297 16.7025 15.9136 16.8836 15.6931C16.9503 15.6118 17.0292 15.5135 17.1083 15.4077C17.2515 15.4755 17.4204 15.5579 17.5913 15.643C17.7847 15.7394 17.976 15.837 18.1305 15.9185C18.2079 15.9593 18.273 15.9944 18.323 16.0223C18.3625 16.0443 18.3827 16.0564 18.3893 16.0603C18.3922 16.0621 18.3924 16.0622 18.3905 16.0609L18.4422 16.0953L18.4968 16.1225C18.4775 16.2397 18.4436 16.3764 18.3887 16.524C18.3868 16.5265 18.3664 16.5629 18.3023 16.6284C18.2244 16.708 18.1139 16.7978 17.98 16.8856C17.8475 16.9725 17.7093 17.046 17.5865 17.0991C17.5256 17.1254 17.4735 17.1445 17.4321 17.1573C17.4117 17.1637 17.3956 17.168 17.3838 17.1708C17.3727 17.1734 17.3673 17.1742 17.3673 17.1742ZM11.1736 10.6217C11.1834 10.6441 11.1933 10.6665 11.2031 10.6885C11.0824 10.8102 10.9765 10.9445 10.9121 11.0271C10.8961 11.0475 10.8832 11.0641 10.872 11.0786C10.8547 11.1009 10.8414 11.1181 10.827 11.1361C10.8237 11.1403 10.8209 11.1438 10.8185 11.1467C10.754 11.2094 10.5543 11.4065 10.4377 11.6679C10.3602 11.8416 10.3078 12.06 10.3321 12.308C10.3473 12.4634 10.3901 12.6038 10.4475 12.7277L10.4325 12.7127C10.4354 12.7156 10.4321 12.7113 10.4235 12.7002C10.3781 12.6418 10.1864 12.3949 9.99043 12.0183C9.76281 11.5809 9.59336 11.0872 9.59336 10.6354C9.59336 10.1383 9.71474 9.81476 9.8362 9.59573C9.93517 9.41727 10.0067 9.33334 10.1007 9.2231C10.1372 9.18026 10.1771 9.13345 10.2234 9.07558C10.2329 9.07555 10.2434 9.07554 10.2555 9.07554H10.2564H10.2573H10.2581H10.259H10.2599H10.2608H10.2617H10.2626H10.2635H10.2644H10.2653H10.2662H10.2671H10.268H10.269H10.2699H10.2708H10.2717H10.2726H10.2735H10.2744H10.2754H10.2763H10.2772H10.2781H10.2791H10.28H10.2809H10.2819H10.2828H10.2837H10.2847H10.2856H10.2865H10.2875H10.2884H10.2894H10.2903H10.2913H10.2922H10.2932H10.2941H10.2951H10.296H10.297H10.2979H10.2989H10.2998H10.3008H10.3018H10.3027H10.3037H10.3047H10.3056H10.3066H10.3076H10.3085H10.3095H10.3105H10.3115H10.3125H10.3134H10.3144H10.3154H10.3164H10.3174H10.3183H10.3193H10.3203H10.3213H10.3223H10.3233H10.3243H10.3253H10.3263H10.3273H10.3283H10.3293H10.3303H10.3313H10.3323H10.3333H10.3343H10.3353H10.3363H10.3373H10.3383H10.3393H10.3403H10.3413H10.3424H10.3434H10.3444H10.3454H10.3464H10.3474H10.3485H10.3495H10.3505H10.3515H10.3526H10.3536H10.3546H10.3556H10.3567H10.3577H10.3587H10.3598H10.3608H10.3618H10.3629H10.3639H10.3649H10.366H10.367H10.3681H10.3691H10.3701H10.3712H10.3722H10.3733H10.3743H10.3754H10.3764H10.3775H10.3785H10.3796H10.3806H10.3817H10.3827H10.3838H10.3848H10.3859H10.3869H10.388H10.3891H10.3901H10.3912H10.3922H10.3933H10.3944H10.3954H10.3965H10.3975H10.3986H10.3997H10.4007H10.4018H10.4029H10.4039H10.405H10.4061H10.4071H10.4082H10.4093H10.4104H10.4114H10.4125H10.4136H10.4147H10.4157H10.4168H10.4179H10.419H10.42H10.4211H10.4222H10.4233H10.4244H10.4254H10.4265H10.4276H10.4287H10.4298H10.4309H10.4319H10.433H10.4341H10.4352H10.4363H10.4374H10.4385H10.4396H10.4406H10.4417H10.4428H10.4439H10.445H10.4461H10.4472H10.4483H10.4494H10.4505H10.4516H10.4527H10.4538H10.4548H10.4559H10.457H10.4581H10.4592H10.4603H10.4614H10.4625H10.4636H10.4647H10.4658H10.4669H10.468H10.4691H10.4702H10.4713H10.4724H10.4735H10.4746H10.4757H10.4768H10.4779H10.479H10.4801H10.4812H10.4823H10.4834H10.4845H10.4856H10.4867H10.4878H10.4889H10.4901H10.4912H10.4923H10.4934H10.4945H10.4956H10.4967H10.4978H10.4989H10.5H10.5011H10.5022H10.5033H10.5044H10.5055H10.5066H10.5077H10.5088H10.5099H10.5111H10.5122H10.5133H10.5144H10.5155H10.5166H10.5177H10.5188H10.5199H10.521H10.5221H10.5232H10.5243H10.5254H10.5265H10.5277H10.5288H10.5299H10.531H10.5321H10.5332H10.5343H10.5348C10.6001 9.23203 10.6795 9.42703 10.764 9.63428C10.82 9.77175 10.8781 9.9146 10.9359 10.0552C11.0211 10.2629 11.105 10.4647 11.1736 10.6217ZM10.4362 8.85376C10.4362 8.8537 10.437 8.85488 10.4386 8.85747C10.437 8.85512 10.4362 8.85382 10.4362 8.85376ZM18.5135 15.8074C18.5134 15.8067 18.5133 15.8063 18.5133 15.8062L18.5135 15.8074Z" stroke="#28B750" stroke-width="2"/>
    </symbol>
    <symbol id="icon-social-6" fill="none" viewBox="0 0 26 25">
        <mask id="path-1-outside-1_129_28" maskUnits="userSpaceOnUse" x="0.69104" y="0.303711" width="17" height="25" fill="black">
            <rect fill="white" x="0.69104" y="0.303711" width="17" height="25"/>
            <path fill-rule="evenodd" clip-rule="evenodd" d="M4.69104 2.30371C3.58647 2.30371 2.69104 3.19914 2.69104 4.30371V20.9126C2.69104 22.0172 3.58647 22.9126 4.69104 22.9126H13.4772C14.5818 22.9126 15.4772 22.0172 15.4772 20.9126V4.30371C15.4772 3.19914 14.5818 2.30371 13.4772 2.30371H4.69104ZM6.03662 4.47216C4.93205 4.47216 4.03662 5.36759 4.03662 6.47216V18.7434C4.03662 19.8479 4.93205 20.7434 6.03662 20.7434H12.1316C13.2362 20.7434 14.1316 19.8479 14.1316 18.7434V6.47216C14.1316 5.36759 13.2362 4.47216 12.1316 4.47216H6.03662Z"/>
        </mask>
        <path d="M4.69104 4.30371L4.69104 4.30371V0.303711C2.4819 0.303711 0.69104 2.09457 0.69104 4.30371H4.69104ZM4.69104 20.9126V4.30371H0.69104V20.9126H4.69104ZM4.69104 20.9126H4.69104H0.69104C0.69104 23.1217 2.4819 24.9126 4.69104 24.9126V20.9126ZM13.4772 20.9126H4.69104V24.9126H13.4772V20.9126ZM13.4772 20.9126V24.9126C15.6863 24.9126 17.4772 23.1217 17.4772 20.9126H13.4772ZM13.4772 4.30371V20.9126H17.4772V4.30371H13.4772ZM13.4772 4.30371H17.4772C17.4772 2.09457 15.6863 0.303711 13.4772 0.303711V4.30371ZM4.69104 4.30371H13.4772V0.303711H4.69104V4.30371ZM6.03662 6.47216V6.47216V2.47216C3.82748 2.47216 2.03662 4.26302 2.03662 6.47216H6.03662ZM6.03662 18.7434V6.47216H2.03662V18.7434H6.03662ZM6.03662 18.7434H6.03662H2.03662C2.03662 20.9525 3.82748 22.7434 6.03662 22.7434V18.7434ZM12.1316 18.7434H6.03662V22.7434H12.1316V18.7434ZM12.1316 18.7434V18.7434V22.7434C14.3408 22.7434 16.1316 20.9525 16.1316 18.7434H12.1316ZM12.1316 6.47216V18.7434H16.1316V6.47216H12.1316ZM12.1316 6.47216H12.1316H16.1316C16.1316 4.26302 14.3408 2.47216 12.1316 2.47216V6.47216ZM6.03662 6.47216H12.1316V2.47216H6.03662V6.47216Z" fill="#28B750" mask="url(#path-1-outside-1_129_28)"/>
        <path d="M18.8463 10.6243C19.604 11.1205 20.1046 11.9769 20.1046 12.9503C20.1046 13.9237 19.604 14.7802 18.8463 15.2764" stroke="#28B750" stroke-width="2" stroke-linecap="round"/>
        <path d="M19.8871 8.0864C21.4714 9.12393 22.518 10.9147 22.518 12.9499C22.518 14.9852 21.4714 16.7759 19.8871 17.8135" stroke="#28B750" stroke-width="2" stroke-linecap="round"/>
        <path d="M20.825 5.2794C23.3236 6.9157 24.9742 9.73998 24.9742 12.9498C24.9742 16.1595 23.3236 18.9838 20.825 20.6201" stroke="#28B750" stroke-width="2" stroke-linecap="round"/>
    </symbol>
    <symbol id="icon-zoom" viewBox="0 0 13 14">
        <path d="M8.83205 8.23307H8.27462L8.07705 8.03445C8.76854 7.19583 9.18485 6.10709 9.18485 4.92272C9.18485 2.2818 7.13154 0.141113 4.59841 0.141113C2.06528 0.141113 0.0119629 2.2818 0.0119629 4.92272C0.0119629 7.56364 2.06528 9.70433 4.59841 9.70433C5.73443 9.70433 6.77873 9.27031 7.58312 8.54939L7.77364 8.75537V9.33652L11.3017 13.0073L12.353 11.9112L8.83205 8.23307ZM4.59841 8.23307C2.84145 8.23307 1.42318 6.75445 1.42318 4.92272C1.42318 3.091 2.84145 1.61238 4.59841 1.61238C6.35537 1.61238 7.77364 3.091 7.77364 4.92272C7.77364 6.75445 6.35537 8.23307 4.59841 8.23307Z"/>
    </symbol>
    <symbol id="icon-popup-close" viewBox="0 0 19 20">
        <path fill-rule="evenodd" clip-rule="evenodd" d="M17.2333 0.852763C17.6238 0.462242 18.257 0.462247 18.6475 0.852775C19.038 1.2433 19.038 1.87647 18.6475 2.26699L10.8851 10.0292L18.6475 17.7915C19.038 18.182 19.038 18.8152 18.6475 19.2057C18.257 19.5962 17.6238 19.5962 17.2333 19.2057L9.47093 11.4435L1.70869 19.2057C1.31817 19.5962 0.685006 19.5962 0.29448 19.2057C-0.0960441 18.8152 -0.0960441 18.182 0.29448 17.7915L8.05673 10.0292L0.29448 2.26698C-0.0960441 1.87646 -0.0960441 1.24329 0.29448 0.852769C0.685006 0.462244 1.31817 0.462244 1.70869 0.852769L9.47093 8.615L17.2333 0.852763Z"/>
    </symbol>
    <symbol id="icon-social-7" viewBox="0 0 28 27">
        <path fill-rule="evenodd" clip-rule="evenodd" d="M5.02362 18.1555C4.11701 16.5744 3.58815 14.6922 3.58815 12.81C3.58815 6.86217 8.42341 2.0437 14.3919 2.0437C17.2629 2.0437 19.9827 3.17303 22.0226 5.20582C24.0624 7.23861 25.1202 9.949 25.1957 12.7347C25.1957 18.6825 20.3605 23.5009 14.3919 23.5009C12.5787 23.5009 10.841 23.0492 9.25447 22.221L3.5126 23.7268L5.02362 18.1555ZM9.04744 24.343C10.7104 25.0915 12.5136 25.5009 14.3919 25.5009C21.4585 25.5009 27.1957 19.7936 27.1957 12.7347V12.7076L27.195 12.6805C27.1067 9.42683 25.868 6.21437 23.4343 3.78915C21.0221 1.38526 17.7956 0.0437012 14.3919 0.0437012C7.32541 0.0437012 1.58815 5.75105 1.58815 12.81C1.58815 14.7587 2.06071 16.6912 2.88735 18.3915L0.677979 26.5378L9.04744 24.343ZM13.4738 16.6576C12.8994 16.2985 12.3856 15.8842 11.9406 15.4693C11.9269 15.4565 11.9134 15.4438 11.8998 15.4311C10.8525 14.4453 10.1951 13.4656 10.0366 13.2265C10.0328 13.2209 10.0294 13.2157 10.0262 13.2109C10.0196 13.2009 10.0142 13.1927 10.01 13.1864C9.98769 13.1642 9.94732 13.1174 9.89469 13.0494C9.89167 13.0455 9.88861 13.0416 9.88552 13.0375C9.57641 12.6348 8.87672 11.5446 8.87672 10.4007C8.87672 9.22483 9.38866 8.61578 9.67219 8.27847C9.71542 8.22703 9.75334 8.18192 9.78333 8.14207C10.01 7.84092 10.3122 7.84092 10.5388 7.84092H11.0677C11.0837 7.84092 11.1006 7.84007 11.1183 7.83919C11.2669 7.83173 11.4695 7.82155 11.6721 8.29265C11.7493 8.47214 11.8615 8.7477 11.979 9.03604C12.2064 9.59431 12.4533 10.2005 12.5032 10.2502C12.5787 10.4007 12.5787 10.5513 12.5032 10.7019C12.4276 10.8525 12.3521 11.003 12.201 11.1536C12.1124 11.2418 12.0239 11.3559 11.9506 11.4503C11.8987 11.5171 11.8545 11.5742 11.8232 11.6054C11.7079 11.7203 11.5926 11.8352 11.6116 11.9836C11.6159 12.0175 11.6273 12.0532 11.6473 12.091C11.6545 12.1045 11.6627 12.1183 11.6721 12.1324C11.8232 12.4335 12.3521 13.2617 13.1831 14.0146C13.6737 14.4336 14.1155 14.7231 14.4784 14.928C14.7793 15.098 15.026 15.2099 15.2013 15.2893C15.2703 15.3207 15.3283 15.347 15.3741 15.3698C15.6763 15.5204 15.8274 15.4451 15.9785 15.2945C16.1296 15.1439 16.6585 14.5416 16.8096 14.2405C16.9607 13.9393 17.1873 14.0146 17.414 14.0899C17.6406 14.1652 19.0005 14.8428 19.2272 14.9933C19.5294 15.1439 19.6805 15.2192 19.756 15.2945C19.8316 15.5204 19.8316 16.0474 19.6049 16.6497C19.3783 17.252 18.3206 17.8543 17.7917 17.9296C17.3384 18.0049 16.734 18.0049 16.1296 17.8543C16.0152 17.8087 15.887 17.7631 15.747 17.7133C15.4247 17.5987 15.04 17.462 14.6186 17.252C14.2147 17.0843 13.8324 16.8817 13.4738 16.6576ZM11.2239 9.8364C11.2266 9.8363 11.228 9.83623 11.2279 9.83623C11.2278 9.83622 11.2269 9.83626 11.2252 9.83634L11.2239 9.8364ZM9.83481 9.08281C9.83496 9.08316 9.8351 9.0835 9.83525 9.08385C9.83206 9.07714 9.83205 9.07639 9.83481 9.08281Z"/>
    </symbol>
	
	<symbol id="icon-social-8" xmlns="http://www.w3.org/2000/svg"  viewBox="0 0 20 18">
    <path d="M0.350701 8.37408L4.9488 10.0886L6.74126 15.8557C6.8192 16.2454 7.2868 16.3233 7.59854 16.0895L10.1703 13.9853C10.4041 13.7515 10.7938 13.7515 11.1055 13.9853L15.7036 17.3364C16.0154 17.5702 16.483 17.4144 16.5609 17.0247L19.99 0.658655C20.0679 0.268988 19.6782 -0.120677 19.2886 0.0351905L0.350701 7.36095C-0.1169 7.51681 -0.1169 8.21821 0.350701 8.37408ZM6.50747 9.23135L15.5477 3.69807C15.7036 3.62013 15.8595 3.85394 15.7036 3.93187L8.29993 10.868C8.06613 11.1018 7.83233 11.4135 7.83233 11.8032L7.59854 13.6736C7.59854 13.9074 7.20886 13.9853 7.13093 13.6736L6.19572 10.2445C5.96192 9.85482 6.1178 9.38721 6.50747 9.23135Z" fill="evenodd"  clip-rule="evenodd"/>
            </symbol>
        
                <symbol id="quickWhatsApp" xmlns="http://www.w3.org/2000/svg"  viewBox="0 0 22 22">
    <path d="M18.2927 3.69643C16.2767 1.6875 13.5888 0.571426 10.7516 0.571426C4.85316 0.571426 0.0746629 5.33333 0.0746629 11.2113C0.0746629 13.0714 0.597312 14.9315 1.49328 16.494L0 22L5.67447 20.5119C7.24241 21.3304 8.95968 21.7768 10.7516 21.7768C16.6501 21.7768 21.4286 17.0149 21.4286 11.1369C21.3539 8.38393 20.3086 5.70535 18.2927 3.69643ZM15.9034 15.0059C15.6794 15.6012 14.6341 16.1964 14.1115 16.2708C13.6635 16.3452 13.0662 16.3452 12.4689 16.1964C12.0956 16.0476 11.5729 15.8988 10.9756 15.6012C8.2877 14.4851 6.57043 11.8065 6.42111 11.5833C6.27178 11.4345 5.30115 10.1696 5.30115 8.83035C5.30115 7.49107 5.97312 6.89583 6.19711 6.59821C6.4211 6.30059 6.71976 6.30059 6.94375 6.30059C7.09308 6.30059 7.31707 6.30059 7.4664 6.30059C7.61573 6.30059 7.83972 6.22619 8.06371 6.74702C8.2877 7.26785 8.81035 8.60714 8.88501 8.68154C8.95968 8.83035 8.95968 8.97916 8.88501 9.12797C8.81035 9.27678 8.73569 9.42559 8.58636 9.5744C8.43703 9.72321 8.2877 9.94643 8.21304 10.0208C8.06371 10.1696 7.91438 10.3184 8.06371 10.5417C8.21304 10.8393 8.73569 11.6577 9.55699 12.4018C10.6023 13.2946 11.4236 13.5923 11.7222 13.7411C12.0209 13.8899 12.1702 13.8155 12.3196 13.6667C12.4689 13.5179 12.9915 12.9226 13.1409 12.625C13.2902 12.3274 13.5142 12.4018 13.7382 12.4762C13.9622 12.5506 15.3061 13.2202 15.5301 13.369C15.8288 13.5179 15.9781 13.5923 16.0528 13.6667C16.1274 13.8899 16.1274 14.4107 15.9034 15.0059Z" fill="white"/>
            </symbol>
            
            <symbol id="quickTelegram" xmlns="http://www.w3.org/2000/svg"  viewBox="0 0 20 18">
    <path d="M0.350701 8.37408L4.9488 10.0886L6.74126 15.8557C6.8192 16.2454 7.2868 16.3233 7.59854 16.0895L10.1703 13.9853C10.4041 13.7515 10.7938 13.7515 11.1055 13.9853L15.7036 17.3364C16.0154 17.5702 16.483 17.4144 16.5609 17.0247L19.99 0.658655C20.0679 0.268988 19.6782 -0.120677 19.2886 0.0351905L0.350701 7.36095C-0.1169 7.51681 -0.1169 8.21821 0.350701 8.37408ZM6.50747 9.23135L15.5477 3.69807C15.7036 3.62013 15.8595 3.85394 15.7036 3.93187L8.29993 10.868C8.06613 11.1018 7.83233 11.4135 7.83233 11.8032L7.59854 13.6736C7.59854 13.9074 7.20886 13.9853 7.13093 13.6736L6.19572 10.2445C5.96192 9.85482 6.1178 9.38721 6.50747 9.23135Z" fill="white"/>
        </symbol>
		
		<symbol id="quickTel" xmlns="http://www.w3.org/2000/svg"  viewBox="0 0 18 18">
           <path d="M3.62 7.79C5.06 10.62 7.38 12.93 10.21 14.38L12.41 12.18C12.68 11.91 13.08 11.82 13.43 11.94C14.55 12.31 15.76 12.51 17 12.51C17.55 12.51 18 12.96 18 13.51V17C18 17.55 17.55 18 17 18C7.61 18 0 10.39 0 1C0 0.45 0.45 0 1 0H4.5C5.05 0 5.5 0.45 5.5 1C5.5 2.25 5.7 3.45 6.07 4.57C6.18 4.92 6.1 5.31 5.82 5.59L3.62 7.79Z" fill="white"/>
        </symbol>
	
	 <symbol id="icon-social-1" fill="none" viewBox="0 0 27 31">
        <path d="M19.0419 1.92529H13.2174V20.1309C13.1942 20.1309 13.2174 20.9426 12.6108 21.8504C12.2707 22.3594 11.7873 22.7562 11.2217 22.9904C10.6561 23.2247 10.0338 23.286 9.43343 23.1665C8.83304 23.0471 8.28154 22.7523 7.84868 22.3195C7.41582 21.8866 7.12103 21.3351 7.0016 20.7347C6.88216 20.1343 6.94347 19.512 7.17772 18.9464C7.41199 18.3809 7.80869 17.8975 8.31769 17.5574C8.82669 17.2173 9.4251 17.0358 10.0373 17.0358V11.1262C8.2563 11.1262 6.51534 11.6543 5.03453 12.6438C3.55373 13.6332 2.39957 15.0396 1.71804 16.685C1.03649 18.3303 0.858178 20.1409 1.20561 21.8876C1.55307 23.6343 2.41067 25.2388 3.67001 26.4982C4.92933 27.7575 6.5338 28.6151 8.28053 28.9625C10.0273 29.31 11.8378 29.1317 13.4832 28.4501C15.1286 27.7686 16.5349 26.6144 17.5244 25.1336C18.485 23.6959 19.0108 22.0129 19.0406 20.2863H19.0419V12.1387C21.0689 13.421 23.4457 14.087 25.8786 14.0241L25.7264 8.13636C24.0537 8.17959 22.4324 7.55661 21.2191 6.40444C20.0057 5.25226 19.2998 3.66529 19.2566 1.99264L19.0419 1.99819V1.92529Z" stroke-width="2"/>
    </symbol>

   <symbol id="newBtn" viewBox="0 0 26 18" fill="none" xmlns="http://www.w3.org/2000/svg">
        <path d="M1.90186 9.35465H23.7672M23.7672 9.35465L17.4898 2.30127M23.7672 9.35465L17.4898 15.6321" stroke="white" stroke-width="3" stroke-linecap="round" stroke-linejoin="round"/>
    </symbol>

  
   


    <!-- <symbol id="iconlinext" viewBox="">

    </symbol>
    <symbol id="iconlinext" viewBox="">

    </symbol>
    <symbol id="iconlinext" viewBox="">

    </symbol>
    <symbol id="iconlinext" viewBox="">

    </symbol> -->
</svg>